<svg xmlns="http://www.w3.org/2000/svg" viewBox="0 0 1093.93 1019.6"><defs><style>.cls-1,.cls-3{fill:#fff;}.cls-1,.cls-2{opacity:0.08;}</style></defs><title>Asset 1</title><g id="Layer_2" data-name="Layer 2"><g id="Menu_Overlay" data-name="Menu Overlay"><path class="cls-1" d="M916.31,0,579.77,867.2l204,78.41,100.06-43.13-169.1-64.85-24.15-9.37,9.22-23.76L990.6,55.25q10.53,9.09,20.58,18.54L724,813.87,917.22,888.1l91.25-39.34.55-1.39-184.5-70.82,269.41-694.2Z"/><g class="cls-2"><polygon class="cls-3" points="557.18 319.36 657.81 275.98 418.43 182.2 325.5 421.68 546.99 508.02 572.63 441.96 430.04 386.25 469.54 284.46 557.18 319.36"/><path class="cls-3" d="M350.06,54.67,0,956.71l79.55,27.15,16.56-42.7q1-2.68,2.23-5.73l5.81-15h0L403.5,149.07,691.17,261.59l89.92-38.76Z"/><polygon class="cls-3" points="184.25 1019.6 370.2 540.45 512.79 596.16 537.78 531.77 316.27 445.43 126.57 934.27 126.57 934.27 104.08 992.23 184.25 1019.6"/></g></g></g></svg>