<svg xmlns="http://www.w3.org/2000/svg" xmlns:xlink="http://www.w3.org/1999/xlink" width="40" height="40" viewBox="0 0 40 40">
  <defs>
    <polygon id="group-35@3x-a" points="0 0 40 0 40 40 0 40"/>
  </defs>
  <g fill="none" fill-rule="evenodd">
    <mask id="group-35@3x-b" fill="#fff">
      <use xlink:href="#group-35@3x-a"/>
    </mask>
    <path fill="#009B2D" d="M11.9087122,16.5204652 L14.8655347,8.90104253 L22.4811604,11.8846715 L19.2798577,13.2647977 L16.491494,12.1545602 L15.2346978,15.3930298 L19.7713586,17.165384 L18.955643,19.2670376 L11.9087122,16.5204652 Z M35.6506485,7.54221813 L27.7852661,27.810453 L33.6543536,30.0635648 L33.6373513,30.107732 L30.7342715,31.3592654 L24.5861131,28.9978854 L33.7233396,5.45248574 C33.5103233,5.25197462 33.2920304,5.0553721 33.068461,4.86248274 L23.8178865,28.6998547 L23.5247448,29.4553869 L24.2929714,29.753613 L29.6729031,31.8167669 L26.4895798,33.1892714 L19.9984457,30.6946081 L30.7051527,3.10478583 C22.359018,-2.19840112 11.1725357,-0.620695187 4.6575594,7.16953323 C-0.946527987,13.8710214 -1.41399127,23.1615655 2.82698726,30.2597765 L12.6900325,4.84411233 L26.4032007,10.194007 L23.5425287,11.42717 L14.3906452,7.84728427 L4.6821833,32.8644668 C4.88073794,33.1003507 5.08535083,33.3323261 5.29602199,33.5603928 L11.6153751,17.2761928 L18.6623059,20.0229606 L17.867501,22.0714573 L13.3310357,20.2989077 L7.41543641,35.5430296 C15.8848861,42.4047704 28.3236697,41.2226146 35.3416771,32.8308528 C41.5457278,25.4121368 41.4558311,14.8198338 35.6506485,7.54221813 L35.6506485,7.54221813 Z" mask="url(#group-35@3x-b)"/>
  </g>
</svg>
