<?xml version="1.0" encoding="utf-8" ?>
<svg xmlns="http://www.w3.org/2000/svg" xmlns:xlink="http://www.w3.org/1999/xlink" width="10" height="10">
	<path fill="rgb(0,155,45)" stroke="none" d="M10 1.11994C10 0.521082 9.47892 0 8.88006 0L1.11994 0C0.521082 0 0 0.521082 0 1.11994L0 8.88006C0 9.47892 0.521082 10 1.11994 10L8.88006 10C9.47892 10 10 9.47892 10 8.88006L10 1.11994ZM8.33343 3.88034L8.33343 6.11966L6.12022 6.11966L6.12022 8.33287L3.8809 8.33287L3.8809 6.11966L1.66769 6.11966L1.66769 3.88034L3.8809 3.88034L3.8809 1.66713L6.12022 1.66713L6.12022 3.88034L8.33343 3.88034Z" fill-rule="evenodd"/>

</svg>