<?xml version="1.0" encoding="utf-8" ?>
<svg xmlns="http://www.w3.org/2000/svg" xmlns:xlink="http://www.w3.org/1999/xlink" width="10" height="10">
	<path fill="rgb(111,164,255)" stroke="none" d="M10 5C10 2.23007 7.76993 0 5 0C2.23007 0 0 2.23007 0 5C0 7.76993 2.23007 10 5 10C7.76993 10 10 7.76993 10 5ZM4.03746 3.00431C4.2488 2.27664 4.57732 1.61959 5 1.00911C5.42268 1.61909 5.7512 2.27664 5.96254 3.00431L4.03746 3.00431ZM3.00481 3.00481C3.16907 2.37079 3.40395 1.78385 3.70893 1.22045C2.79347 1.52544 1.99519 2.18299 1.52594 3.00481L3.00481 3.00481ZM8.47456 3.00481C8.00481 2.18299 7.20703 1.52594 6.29157 1.22045C6.59655 1.78385 6.83143 2.37079 6.99569 3.00481L8.47456 3.00481ZM1.1268 6.00962L2.81701 6.00962C2.76993 5.68109 2.74639 5.35206 2.74639 5C2.74639 4.64794 2.76993 4.31941 2.81701 3.99038L1.1268 3.99038C1.05619 4.31891 0.986078 4.64794 0.986078 5C0.986078 5.35206 1.05669 5.68059 1.1268 6.00962ZM6.17388 6.00962C6.22095 5.68109 6.24449 5.35206 6.24449 5C6.24449 4.64794 6.22095 4.31941 6.17388 3.99038L3.82612 3.99038C3.77905 4.31891 3.75551 4.64794 3.75551 5C3.75551 5.35206 3.77905 5.68059 3.82612 6.00962L6.17388 6.00962ZM8.8732 6.00962L7.18299 6.00962C7.23007 5.68059 7.25361 5.35206 7.25361 5C7.25361 4.64794 7.23007 4.31891 7.18299 3.99038L8.8732 3.99038C8.94331 4.31941 9.01392 4.64794 9.01392 5C9.01392 5.35206 8.94381 5.68109 8.8732 6.00962ZM3.70893 8.77955C2.79347 8.47406 1.99569 7.81701 1.52594 6.99519L3.00481 6.99519C3.16907 7.62921 3.40395 8.21615 3.70893 8.77955ZM8.47406 6.99519C8.00481 7.81701 7.20653 8.47456 6.29107 8.77955C6.59605 8.21615 6.83093 7.62921 6.99519 6.99519L8.47406 6.99519ZM5.96254 6.99569C5.7512 7.72336 5.42268 8.38041 5 8.99089C4.57732 8.38091 4.2488 7.72336 4.03746 6.99569L5.96254 6.99569Z" fill-rule="evenodd"/>

</svg>