<?xml version="1.0" encoding="utf-8" ?>
<svg xmlns="http://www.w3.org/2000/svg" xmlns:xlink="http://www.w3.org/1999/xlink" width="11" height="13">
	<path fill="rgb(207,0,26)" stroke="none" transform="matrix(0.936423 -0.0819264 0.0819264 0.936423 4.02393 3.51146)" d="M0.964818 0.157839L4.67189 0.856304Q4.77283 0.875323 4.86682 0.911957Q4.9608 0.948592 5.04477 1.00165Q5.12874 1.05471 5.19995 1.12246Q5.27116 1.19022 5.32731 1.27046Q5.38346 1.3507 5.4227 1.44082Q5.46195 1.53095 5.48302 1.62801Q5.50409 1.72507 5.5063 1.82592Q5.50851 1.92677 5.49179 2.02812L4.4838 8.13658Q4.46707 8.23793 4.43272 8.33189Q4.39836 8.42584 4.34749 8.50935Q4.29662 8.59286 4.2309 8.66321Q4.16517 8.73355 4.08673 8.78843Q4.00828 8.84332 3.91968 8.88096Q3.83107 8.9186 3.73519 8.93777Q3.6393 8.95695 3.53926 8.95702Q3.43922 8.9571 3.33828 8.93808L-0.368801 8.23962Q-0.469742 8.2206 -0.563726 8.18396Q-0.65771 8.14733 -0.741676 8.09427Q-0.825642 8.04121 -0.896857 7.97346Q-0.968072 7.9057 -1.02422 7.82546Q-1.08036 7.74522 -1.11961 7.6551Q-1.15886 7.56497 -1.17993 7.46791Q-1.201 7.37085 -1.20321 7.27Q-1.20542 7.16915 -1.1887 7.0678L-0.180705 0.95934Q-0.163981 0.857993 -0.129626 0.764035Q-0.0952699 0.670077 -0.0444008 0.586567Q0.00646827 0.503058 0.0721945 0.432715Q0.137921 0.362372 0.216364 0.307487Q0.294808 0.252601 0.383415 0.21496Q0.472022 0.177319 0.567907 0.158147Q0.663792 0.138976 0.763834 0.138898Q0.863876 0.13882 0.964818 0.157839Z"/>
	<path fill="rgb(255,209,0)" stroke="none" transform="matrix(0.936423 -0.0819264 0.0819264 0.936423 1.50146 2.48569)" d="M1 0L5 0Q5.10272 0 5.20144 0.0186045Q5.30016 0.037209 5.39167 0.0738122Q5.48317 0.110415 5.56449 0.163826Q5.64581 0.217236 5.71429 0.285714Q5.78276 0.354193 5.83617 0.43551Q5.88959 0.516827 5.92619 0.608335Q5.96279 0.699843 5.9814 0.798563Q6 0.897283 6 1L6 7Q6 7.10272 5.9814 7.20144Q5.96279 7.30016 5.92619 7.39167Q5.88959 7.48317 5.83617 7.56449Q5.78276 7.64581 5.71429 7.71429Q5.64581 7.78276 5.56449 7.83618Q5.48317 7.88959 5.39167 7.92619Q5.30016 7.96279 5.20144 7.9814Q5.10272 8 5 8L1 8Q0.897283 8 0.798563 7.9814Q0.699843 7.96279 0.608335 7.92619Q0.516827 7.88959 0.43551 7.83618Q0.354193 7.78276 0.285714 7.71429Q0.217236 7.64581 0.163826 7.56449Q0.110415 7.48317 0.0738122 7.39167Q0.037209 7.30016 0.0186045 7.20144Q0 7.10272 0 7L0 1Q0 0.897283 0.0186045 0.798563Q0.037209 0.699843 0.0738122 0.608335Q0.110415 0.516827 0.163826 0.43551Q0.217236 0.354193 0.285714 0.285714Q0.354193 0.217236 0.43551 0.163826Q0.516827 0.110415 0.608335 0.0738122Q0.699843 0.037209 0.798563 0.0186045Q0.897283 0 1 0Z"/>

</svg>