<?xml version="1.0" encoding="utf-8" ?>
<svg xmlns="http://www.w3.org/2000/svg" xmlns:xlink="http://www.w3.org/1999/xlink" width="40" height="45">
	<defs>
		<clipPath id="clip_0">
			<rect x="-86" y="-378.14001" width="313.60001" height="556.64001" clip-rule="evenodd"/>
		</clipPath>
	</defs>
	<g clip-path="url(#clip_0)">
		<path fill="none" stroke="rgb(127,205,150)" stroke-width="2" stroke-miterlimit="4" transform="matrix(0.98 0 0 0.98 0.23999 1.12)" d="M20.3269 0C22.8298 0.290039 25.2954 0.802897 27.7238 1.53857C31.3664 2.64209 34.7453 5.44067 34.7453 5.44067C34.7453 5.44067 37.923 8.86328 38.923 14.8389C39.5897 18.8226 39.8061 20.9603 39.5722 21.252C38.1676 21.9005 37.0049 22.3133 36.0842 22.4905C35.1635 22.6676 33.7764 22.7366 31.923 22.6975L31.923 41.1221C29.9615 43.1113 26.0961 44.106 20.3269 44.106C20.1568 44.106 19.9917 44.0932 19.8316 44.0676C19.6716 44.0932 19.5065 44.106 19.3364 44.106C13.5672 44.106 9.70182 43.1113 7.74023 41.1221L7.74023 22.6975C5.88686 22.7366 4.49982 22.6676 3.5791 22.4905C2.65839 22.3133 1.49571 21.9005 0.0910645 21.252C-0.142822 20.9603 0.0735677 18.8226 0.740234 14.8389C1.74023 8.86328 3.82764 6.82544 4.91797 5.44067C6.0083 4.05591 8.29687 2.64209 11.9395 1.53857C14.3678 0.802897 16.8335 0.290039 19.3364 0C19.8316 0 19.8316 0 20.3269 0Z"/>
	</g>

</svg>