<?xml version="1.0" encoding="UTF-8"?>
<svg width="48px" height="48px" viewBox="0 0 48 48" version="1.1" xmlns="http://www.w3.org/2000/svg" xmlns:xlink="http://www.w3.org/1999/xlink">
    <!-- Generator: Sketch 53.2 (72643) - https://sketchapp.com -->
    <title>029-valencia</title>
    <desc>Created with Sketch.</desc>
    <defs>
        <rect id="path-1" x="0" y="0" width="48" height="48" rx="2"></rect>
        <linearGradient x1="14.644668%" y1="14.644668%" x2="85.355332%" y2="85.355332%" id="linearGradient-3">
            <stop stop-color="#FFD237" offset="0%"></stop>
            <stop stop-color="#FFB037" offset="100%"></stop>
        </linearGradient>
        <linearGradient x1="32.5084035%" y1="-3.63273963%" x2="81.1513209%" y2="73.7120163%" id="linearGradient-4">
            <stop stop-color="#FF4B37" offset="0%"></stop>
            <stop stop-color="#D5011D" offset="100%"></stop>
        </linearGradient>
        <linearGradient x1="25.6789004%" y1="7.22803455%" x2="60.6606755%" y2="62.8518266%" id="linearGradient-5">
            <stop stop-color="#FF4B37" offset="0%"></stop>
            <stop stop-color="#D5011D" offset="100%"></stop>
        </linearGradient>
        <linearGradient x1="45.2679022%" y1="15.5360543%" x2="56.523694%" y2="75.000692%" id="linearGradient-6">
            <stop stop-color="#FFD237" offset="0%"></stop>
            <stop stop-color="#FFB037" offset="100%"></stop>
        </linearGradient>
        <linearGradient x1="44.3722858%" y1="20.2682949%" x2="53.8363458%" y2="70.2681648%" id="linearGradient-7">
            <stop stop-color="#FFD237" offset="0%"></stop>
            <stop stop-color="#FFB037" offset="100%"></stop>
        </linearGradient>
        <linearGradient x1="45.512946%" y1="20.2639503%" x2="54.4871686%" y2="76.6934185%" id="linearGradient-8">
            <stop stop-color="#FFD237" offset="0%"></stop>
            <stop stop-color="#FFB037" offset="100%"></stop>
        </linearGradient>
        <linearGradient x1="21.1901031%" y1="45.0793302%" x2="78.8096157%" y2="54.682846%" id="linearGradient-9">
            <stop stop-color="#5CD4FF" offset="0%"></stop>
            <stop stop-color="#007CAA" offset="100%"></stop>
        </linearGradient>
        <linearGradient x1="25.3820512%" y1="8.95928779%" x2="74.6180432%" y2="73.4322887%" id="linearGradient-10">
            <stop stop-color="#014059" offset="0%"></stop>
            <stop stop-color="#012231" offset="100%"></stop>
        </linearGradient>
        <linearGradient x1="14.6443823%" y1="14.6447303%" x2="85.3556177%" y2="85.3559658%" id="linearGradient-11">
            <stop stop-color="#FFB037" offset="0%"></stop>
            <stop stop-color="#FF9037" offset="100%"></stop>
        </linearGradient>
    </defs>
    <g id="Auctions" stroke="none" stroke-width="1" fill="none" fill-rule="evenodd">
        <g id="OSB-M-3.2" transform="translate(-20.000000, -76.000000)">
            <g id="029-valencia" transform="translate(20.000000, 76.000000)">
                <mask id="mask-2" fill="white">
                    <use xlink:href="#path-1"></use>
                </mask>
                <use id="Mask" fill="#D8D8D8" xlink:href="#path-1"></use>
                <g mask="url(#mask-2)" fill-rule="nonzero">
                    <g transform="translate(-22.500000, -15.000000)">
                        <path d="M96,48 C96,74.5100098 74.5100098,96 48,96 C21.4899902,96 0,74.5100098 0,48 C0,21.4899902 21.4899902,0 48,0 C74.5100098,0 96,21.4899902 96,48 Z" id="Path" fill="url(#linearGradient-3)"></path>
                        <path d="M33.7631836,37.0880127 L34.8742676,44.2097168 C35.767456,46.6098633 36.9360352,48.7547607 38.1958008,50.5968018 L39.2116699,48.7360839 L41.5173339,54.6357422 C42.7404786,55.8665771 43.9013672,56.7821045 44.8388672,57.3402099 L46.5,37.0880127 L33.7631836,37.0880127 Z" id="Path" fill="url(#linearGradient-4)"></path>
                        <path d="M46.5,37.0880127 L48.1607666,57.3405761 C49.0982666,56.7824708 50.2591552,55.8669433 51.4822998,54.6361084 L53.7879638,48.7364502 L54.803833,50.5975342 C56.0635987,48.755127 57.232544,46.6105958 58.1257324,44.2104492 L59.2368164,37.0880127 L46.5,37.0880127 Z" id="Path" fill="url(#linearGradient-5)"></path>
                        <path d="M38.1958008,37.0880127 L38.1958008,50.597168 C39.2753906,52.1762695 40.4208984,53.5327148 41.5173339,54.6357422 L41.5173339,37.0880127 L38.1958008,37.0880127 Z" id="Path" fill="url(#linearGradient-6)"></path>
                        <path d="M51.4822998,37.0880127 L51.4822998,54.6361084 C52.5787354,53.533081 53.7242432,52.1762695 54.803833,50.5975342 L54.803833,37.0880127 L51.4822998,37.0880127 Z" id="Path" fill="url(#linearGradient-7)"></path>
                        <path d="M46.5,37.0880127 L44.8388672,37.0880127 L44.8388672,57.3402099 C45.5397949,57.7573242 46.1165771,57.9759521 46.5,57.9759521 C46.8834229,57.9759521 47.4598388,57.7573242 48.1607666,57.3402099 L48.1607666,37.0880127 L46.5,37.0880127 Z" id="Path" fill="url(#linearGradient-8)"></path>
                        <path d="M46.5,34.8658448 L33.1673584,34.8658448 C33.1673584,36.4046631 33.3032227,37.8881836 33.5478516,39.3101807 L59.4517822,39.3101807 C59.6964112,37.8881836 59.8326416,36.4046631 59.8326416,34.8658448 L46.5,34.8658448 Z" id="Path" fill="url(#linearGradient-9)"></path>
                        <path d="M53.1573487,22.2282714 L52.0004883,22.2282714 L52.0004883,24.4500732 L49.8790283,24.4500732 L49.8790283,21.1629638 L47.5653076,21.1629638 L47.5653076,24.4500732 L45.4346924,24.4500732 L45.4346924,21.1629638 L43.1209717,21.1629638 L43.1209717,24.4500732 L40.9995117,24.4500732 L40.9995117,22.2282714 L39.8422852,22.2282714 C35.5286865,22.2282714 32.0192871,25.7376709 32.0192871,30.0512695 L32.0192871,34.8658447 C32.0192871,38.184082 32.6257324,41.4851074 33.8217773,44.677002 C34.8270263,47.3591308 36.2226562,49.9112549 37.9694824,52.2612305 C40.8812256,56.1789551 44.5437011,59.0870362 46.5,59.0870362 C48.4562989,59.0870362 52.1187744,56.1789551 55.0305176,52.2612305 C56.7773437,49.9112549 58.1729737,47.3591308 59.1782227,44.677002 C60.3742676,41.4851074 60.9807129,38.1844482 60.9807129,34.8658447 L60.9807129,30.0512695 C60.9807129,25.7376709 57.4713135,22.2282714 53.1573487,22.2282714 L53.1573487,22.2282714 Z M58.6669922,34.8658447 C58.6669922,41.9523926 55.7102051,47.4448242 53.2298584,50.8048096 C51.9327393,52.5618896 50.4268799,54.1699219 48.989502,55.3322754 C47.5308838,56.512207 46.6896973,56.8070068 46.5,56.8187256 C46.3103027,56.8070068 45.4691162,56.512207 44.010498,55.3322754 C42.5731201,54.1699219 41.0672607,52.5618896 39.7701416,50.8048096 C37.2897949,47.4448242 34.333374,41.9523926 34.333374,34.8658447 L34.333374,30.421875 L39.8338623,30.421875 C42.2779541,30.421875 44.277832,32.4217529 44.277832,34.8658447 L48.722168,34.8658447 C48.722168,32.4217529 50.7220459,30.421875 53.1665039,30.421875 L58.6669922,30.421875 L58.6669922,34.8658447 Z" id="Shape" fill="url(#linearGradient-10)"></path>
                        <path d="M50.2034912,45.2358398 C50.2034912,47.2811279 48.5452881,48.939331 46.5,48.939331 C44.4547119,48.939331 42.7965088,47.2811279 42.7965088,45.2358398 C42.7965088,43.1905518 44.4547119,41.5323487 46.5,41.5323487 C48.5452881,41.5323487 50.2034912,43.1905518 50.2034912,45.2358398 Z" id="Path" fill="url(#linearGradient-11)"></path>
                    </g>
                </g>
            </g>
        </g>
    </g>
</svg>