<?xml version="1.0" encoding="utf-8"?>
<!-- Generator: Adobe Illustrator 23.0.4, SVG Export Plug-In . SVG Version: 6.00 Build 0)  -->
<svg version="1.1" id="Layer_1" xmlns="http://www.w3.org/2000/svg" xmlns:xlink="http://www.w3.org/1999/xlink" x="0px" y="0px"
	 viewBox="0 0 71.3 86" style="enable-background:new 0 0 71.3 86;" xml:space="preserve">
<style type="text/css">
	.st0{fill:#ED9524;}
</style>
<title>fl-logo</title>
<g>
	<g id="Logo">
		<polyline class="st0" points="25.2,44 28.1,42 24.6,42 23.5,38.6 22.4,42 18.8,42 21.7,44 20.6,47.4 23.5,45.3 26.3,47.4 25.2,44 
					"/>
		<polyline class="st0" points="37.4,44 40.3,42 36.7,42 35.6,38.6 34.5,42 31,42 33.9,44 32.8,47.4 35.6,45.3 38.5,47.4 37.4,44 		
			"/>
		<polyline class="st0" points="49.6,44 52.4,42 48.9,42 47.8,38.6 46.7,42 43.2,42 46,44 44.9,47.4 47.8,45.3 50.7,47.4 49.6,44 		
			"/>
	</g>
</g>
</svg>
