<?xml version="1.0" standalone="no"?>
<!DOCTYPE svg PUBLIC "-//W3C//DTD SVG 1.1//EN" "http://www.w3.org/Graphics/SVG/1.1/DTD/svg11.dtd" >
<svg xmlns="http://www.w3.org/2000/svg" xmlns:xlink="http://www.w3.org/1999/xlink" version="1.1">
<metadata>
Created by FontForge 20170731 at Thu Nov 21 02:46:39 2013
 By Aleksey,,,
Copyright (c) 2005-2013 Canada Type. All rights reserved.
</metadata>
<defs>
<font id="TrumpGothicPro-Bold" horiz-adv-x="339" >
  <font-face 
    font-family="Trump Gothic Pro"
    font-weight="700"
    font-stretch="normal"
    units-per-em="1000"
    panose-1="2 0 5 8 2 0 0 2 0 4"
    ascent="780"
    descent="-220"
    x-height="567"
    cap-height="766"
    bbox="-108 -228 1032 989"
    underline-thickness="50"
    underline-position="-200"
    unicode-range="U+0020-FB04"
  />
<missing-glyph horiz-adv-x="430" 
d="M380 0h-330v766h330v-766zM110 132l92 265l-92 244v-509zM299 52l-80 278l-87 -278h167zM219 468l76 246h-155zM320 130v510l-76 -244z" />
    <glyph glyph-name="copyright" unicode="&#x28;C&#x29;" horiz-adv-x="697" 
d="M347 -8q-325 0 -325 388q0 391 326 391q166 0 246.5 -101t80.5 -289q0 -187 -80.5 -288t-247.5 -101zM350 77q122 0 180 74.5t58 228.5q0 156 -59 231.5t-182 75.5t-180.5 -75.5t-57.5 -227.5q0 -157 60 -232t181 -75zM476 332v-35q0 -160 -125 -160q-127 0 -127 160v172
q0 160 127 160q125 0 125 -160v-31h-90v20q0 43 -7.5 59.5t-28.5 16.5t-28.5 -16.5t-7.5 -59.5v-149q0 -43 7.5 -59.5t28.5 -16.5t28.5 16.5t7.5 59.5v23h90z" />
    <glyph glyph-name="registered" unicode="&#x28;R&#x29;" horiz-adv-x="413" 
d="M206 352q-92 0 -139.5 55t-47.5 155q0 103 44.5 156t142.5 53q188 0 188 -208q0 -100 -48 -155.5t-140 -55.5zM207 397q139 0 139 165q0 163 -140 163q-139 0 -139 -161q0 -167 140 -167zM294 443h-60l-25 82h-14v-80h-59v238h105q23 0 38 -14.5t15 -44.5v-34
q0 -22 -8.5 -36.5t-21.5 -18.5zM234 600v7q0 30 -20 30h-19v-65h19q20 0 20 28z" />
    <glyph glyph-name="uni2117" unicode="&#x28;P&#x29;" horiz-adv-x="697" 
d="M347 -8q-325 0 -325 388q0 391 326 391q166 0 246.5 -101t80.5 -289q0 -187 -80.5 -288t-247.5 -101zM350 77q122 0 180 74.5t58 228.5q0 156 -59 231.5t-182 75.5t-180.5 -75.5t-57.5 -227.5q0 -157 60 -232t181 -75zM329 150h-90v467h156q43 0 70.5 -27t27.5 -83v-94
q0 -56 -25.5 -83t-68.5 -27h-70v-153zM402 441v36q0 29 -9 41t-29 12h-35v-141h35q38 0 38 52z" />
    <glyph glyph-name="trademark" unicode="&#x28;TM&#x29;" horiz-adv-x="692" 
d="M655 414h-77v229l-75 -229h-44l-69 227v-227h-76v352h103l67 -217l67 217h104v-352zM187 414h-77v276h-93v76h263v-76h-93v-276z" />
    <glyph glyph-name="ff" unicode="ff" horiz-adv-x="439" 
d="M368 0h-100v474h-106v-474h-100v474h-55v93h55v70q0 77 28.5 108.5t84.5 31.5q35 0 53 -7v-83q-14 2 -20 2q-28 0 -37 -18.5t-9 -59.5v-44h106v70q0 77 28.5 108.5t84.5 31.5q35 0 53 -7v-83q-14 2 -20 2q-28 0 -37 -18.5t-9 -59.5v-44h65v-93h-65v-474z" />
    <glyph glyph-name="fi" unicode="fi" horiz-adv-x="402" 
d="M162 0h-100v474h-55v93h55v70q0 77 28.5 108.5t84.5 31.5q35 0 53 -7v-83q-14 2 -20 2q-28 0 -37 -18.5t-9 -59.5v-44h65v-93h-65v-474zM368 0h-100v567h100v-567zM318 625q-26 0 -44.5 18.5t-18.5 44.5t18.5 44.5t44.5 18.5t44.5 -18.5t18.5 -44.5t-18.5 -44.5
t-44.5 -18.5z" />
    <glyph glyph-name="fl" unicode="fl" horiz-adv-x="403" 
d="M162 0h-100v474h-55v93h55v70q0 77 28.5 108.5t84.5 31.5q35 0 53 -7v-83q-14 2 -20 2q-28 0 -37 -18.5t-9 -59.5v-44h65v-93h-65v-474zM368 0h-100v766h100v-766z" />
    <glyph glyph-name="ffi" unicode="ffi" horiz-adv-x="608" 
d="M574 0h-100v567h100v-567zM524 625q-26 0 -44.5 18.5t-18.5 44.5t18.5 44.5t44.5 18.5t44.5 -18.5t18.5 -44.5t-18.5 -44.5t-44.5 -18.5zM368 0h-100v474h-106v-474h-100v474h-55v93h55v70q0 77 28.5 108.5t84.5 31.5q35 0 53 -7v-83q-14 2 -20 2q-28 0 -37 -18.5
t-9 -59.5v-44h106v70q0 77 28.5 108.5t84.5 31.5q35 0 53 -7v-83q-14 2 -20 2q-28 0 -37 -18.5t-9 -59.5v-44h65v-93h-65v-474z" />
    <glyph glyph-name="ffl" unicode="ffl" horiz-adv-x="609" 
d="M574 0h-100v766h100v-766zM368 0h-100v474h-106v-474h-100v474h-55v93h55v70q0 77 28.5 108.5t84.5 31.5q35 0 53 -7v-83q-14 2 -20 2q-28 0 -37 -18.5t-9 -59.5v-44h106v70q0 77 28.5 108.5t84.5 31.5q35 0 53 -7v-83q-14 2 -20 2q-28 0 -37 -18.5t-9 -59.5v-44h65v-93
h-65v-474z" />
    <glyph glyph-name="f_j" unicode="fj" horiz-adv-x="402" 
d="M162 0h-100v474h-55v93h55v70q0 77 28.5 108.5t84.5 31.5q35 0 53 -7v-83q-14 2 -20 2q-28 0 -37 -18.5t-9 -59.5v-44h65v-93h-65v-474zM202 -203v80q7 -1 16 -1q30 0 40 18t10 59v614h100v-625q0 -81 -28 -115.5t-94 -34.5q-22 0 -44 5zM318 625q-26 0 -44.5 18.5
t-18.5 44.5t18.5 44.5t44.5 18.5t44.5 -18.5t18.5 -44.5t-18.5 -44.5t-44.5 -18.5z" />
    <glyph glyph-name="f_t" unicode="ft" horiz-adv-x="446" 
d="M434 82v-85q-22 -5 -40 -5q-69 0 -97.5 34t-28.5 116v332h-106v-474h-100v474h-55v93h55v70q0 77 28.5 108.5t84.5 31.5q35 0 53 -7v-83q-14 2 -20 2q-28 0 -37 -18.5t-9 -59.5v-44h106v140h100v-140h65v-93h-65v-316q0 -41 9 -59.5t37 -18.5q6 0 20 2z" />
    <glyph glyph-name=".notdef" horiz-adv-x="430" 
d="M380 0h-330v766h330v-766zM110 132l92 265l-92 244v-509zM299 52l-80 278l-87 -278h167zM219 468l76 246h-155zM320 130v510l-76 -244z" />
    <glyph glyph-name=".null" horiz-adv-x="0" 
 />
    <glyph glyph-name="nonmarkingreturn" horiz-adv-x="333" 
 />
    <glyph glyph-name="space" unicode=" " horiz-adv-x="126" 
 />
    <glyph glyph-name="exclam" unicode="!" horiz-adv-x="184" 
d="M127 191h-70l-19 575h109zM92 -8q-26 0 -44.5 18.5t-18.5 44.5t18.5 44.5t44.5 18.5t44.5 -18.5t18.5 -44.5t-18.5 -44.5t-44.5 -18.5z" />
    <glyph glyph-name="quotedbl" unicode="&#x22;" horiz-adv-x="271" 
d="M232 556h-70l-15 210h100zM109 556h-70l-15 210h100z" />
    <glyph glyph-name="numbersign" unicode="#" horiz-adv-x="560" 
d="M336 30h-97l49 192h-94l-49 -192h-97l49 192h-81l24 96h81l29 114h-94l24 96h95l49 192h97l-49 -192h94l49 192h97l-49 -192h81l-24 -96h-82l-29 -114h95l-24 -96h-95zM312 318l29 114h-94l-29 -114h94z" />
    <glyph glyph-name="dollar" unicode="$" horiz-adv-x="373" 
d="M204 -64h-33v52q-66 4 -104.5 44t-38.5 115v109h102v-96q0 -63 41 -74v234q-75 63 -99 92q-44 55 -44 111v96q0 75 39.5 115t103.5 44v52h33v-52q140 -10 140 -159v-120h-102v107q0 59 -38 73v-250q7 -6 31 -25t33.5 -27.5t27.5 -26.5t26 -31.5t15 -33.5t7 -41v-97
q0 -75 -37.5 -114.5t-102.5 -44.5v-52zM171 458v222q-41 -13 -41 -74v-64q0 -43 41 -84zM242 160v63q0 27 -38 67v-203q38 13 38 73z" />
    <glyph glyph-name="percent" unicode="%" horiz-adv-x="738" 
d="M313 0h-91l206 766h91zM271 612v-180q0 -85 -28.5 -122.5t-96.5 -37.5q-69 0 -98 38t-29 122v180q0 84 29 122t98 38q68 0 96.5 -37.5t28.5 -122.5zM181 443v158q0 43 -7.5 59.5t-28.5 16.5t-28.5 -16.5t-7.5 -59.5v-158q0 -43 7.5 -59.5t28.5 -16.5t28.5 16.5t7.5 59.5z
M719 331v-180q0 -85 -28.5 -122.5t-96.5 -37.5q-69 0 -98 38t-29 122v180q0 84 29 122t98 38q68 0 96.5 -37.5t28.5 -122.5zM629 162v158q0 43 -7.5 59.5t-28.5 16.5t-28.5 -16.5t-7.5 -59.5v-158q0 -43 7.5 -59.5t28.5 -16.5t28.5 16.5t7.5 59.5z" />
    <glyph glyph-name="ampersand" unicode="&#x26;" horiz-adv-x="399" 
d="M387 353h-41v-196q0 -170 -157 -170q-159 0 -159 175v102q0 55 17.5 88t66.5 48q-49 13 -66.5 42.5t-17.5 83.5v86q0 167 163 167q153 0 153 -159v-20h-102v7q0 39 -16 57.5t-40 18.5t-40 -19t-16 -58v-93q0 -37 27.5 -51.5t58.5 -14.5h26v60h102v-60h41v-94zM244 160
v193h-26q-31 0 -58.5 -14.5t-27.5 -51.5v-127q0 -39 16 -57.5t40 -18.5t40 18.5t16 57.5z" />
    <glyph glyph-name="quotesingle" unicode="'" horiz-adv-x="148" 
d="M109 556h-70l-15 210h100z" />
    <glyph glyph-name="parenleft" unicode="(" horiz-adv-x="205" 
d="M200 -172h-101q-79 229 -79 469t79 469h101q-79 -202 -79 -469t79 -469z" />
    <glyph glyph-name="parenright" unicode=")" horiz-adv-x="205" 
d="M106 -172h-101q79 202 79 469t-79 469h101q79 -229 79 -469t-79 -469z" />
    <glyph glyph-name="asterisk" unicode="*" horiz-adv-x="305" 
d="M258 533l-69 -39l-36 95l-36 -96l-68 40l69 82l-97 -16v76l94 -16l-68 81l68 40l38 -101l36 100l69 -39l-68 -82l94 15v-74l-95 16z" />
    <glyph glyph-name="plus" unicode="+" horiz-adv-x="422" 
d="M259 172h-96v144h-143v94h143v144h96v-144h143v-94h-143v-144z" />
    <glyph glyph-name="comma" unicode="," horiz-adv-x="199" 
d="M40 -135h-70l87 253h113z" />
    <glyph glyph-name="hyphen" unicode="-" horiz-adv-x="253" 
d="M221 244h-189v96h189v-96z" />
    <glyph glyph-name="period" unicode="." horiz-adv-x="172" 
d="M86 -8q-26 0 -44.5 18.5t-18.5 44.5t18.5 44.5t44.5 18.5t44.5 -18.5t18.5 -44.5t-18.5 -44.5t-44.5 -18.5z" />
    <glyph glyph-name="slash" unicode="/" horiz-adv-x="317" 
d="M109 0h-97l196 766h97z" />
    <glyph glyph-name="zero" unicode="0" horiz-adv-x="380" 
d="M32 147v472q0 81 44.5 120.5t119.5 39.5q152 0 152 -160v-472q0 -81 -44 -120.5t-113 -39.5q-70 0 -114.5 40t-44.5 120zM246 160v446q0 39 -16 57.5t-40 18.5t-40 -18.5t-16 -57.5v-446q0 -39 16 -57.5t40 -18.5t40 18.5t16 57.5z" />
    <glyph glyph-name="one" unicode="1" horiz-adv-x="271" 
d="M223 0h-100v655l-115 -37v99l127 49h88v-766z" />
    <glyph glyph-name="two" unicode="2" horiz-adv-x="360" 
d="M321 0h-294v73q0 48 33 116.5t73 126t73 122t33 104.5v66q0 39 -16 56.5t-40 17.5t-40 -17.5t-16 -56.5v-94h-102v105q0 80 44 120t117 40q71 0 113 -38t42 -116v-94q0 -46 -32.5 -111.5t-71.5 -120t-72.5 -112.5t-35.5 -90h192v-97z" />
    <glyph glyph-name="three" unicode="3" horiz-adv-x="374" 
d="M242 161v118q0 68 -60 68q-11 0 -43 -2v102q16 -2 49 -2q23 0 38.5 18.5t15.5 57.5v84q0 39 -15.5 58t-38.5 19q-24 0 -41 -18t-17 -57v-89h-102v102q0 79 43.5 119t117.5 40q72 0 113.5 -38t41.5 -118v-96q0 -50 -16.5 -79t-57.5 -50q74 -32 74 -133v-116
q0 -81 -42 -121.5t-114 -40.5q-73 0 -116.5 40.5t-43.5 119.5v98h102v-84q0 -39 16 -58t41 -19q24 0 39.5 18.5t15.5 58.5z" />
    <glyph glyph-name="four" unicode="4" horiz-adv-x="374" 
d="M303 0h-100v183h-192v97l131 486h161v-486h60v-97h-60v-183zM203 280v382l-90 -382h90z" />
    <glyph glyph-name="five" unicode="5" horiz-adv-x="373" 
d="M247 162v153q0 86 -53 86q-45 0 -56 -51h-106v416h291v-97h-189v-228q36 56 102 56q113 0 113 -130v-208q0 -85 -36.5 -128.5t-120.5 -43.5q-83 0 -121.5 43t-38.5 129v45h103v-42q0 -40 16 -59t40 -19q23 0 39.5 19.5t16.5 58.5z" />
    <glyph glyph-name="six" unicode="6" horiz-adv-x="378" 
d="M349 357v-198q0 -85 -36.5 -128.5t-120.5 -43.5q-83 0 -121.5 43t-38.5 129v454q0 166 159 166q80 0 118.5 -41t38.5 -125v-51h-102v44q0 39 -16 57.5t-40 18.5t-40 -18.5t-16 -57.5v-175q36 56 102 56q113 0 113 -130zM247 162v143q0 86 -53 86q-59 0 -59 -86v-143
q0 -40 16 -59t40 -19q23 0 39.5 19.5t16.5 58.5z" />
    <glyph glyph-name="seven" unicode="7" horiz-adv-x="329" 
d="M125 0h-108l195 669h-194v97h309v-53z" />
    <glyph glyph-name="eight" unicode="8" horiz-adv-x="376" 
d="M346 290v-143q0 -80 -43 -120t-114 -40q-72 0 -115.5 40.5t-43.5 119.5v153q0 81 66 126q-66 45 -66 126v78q0 67 43.5 108t118.5 41q70 0 112 -37.5t42 -111.5v-78q0 -83 -66 -126q66 -45 66 -136zM244 546v60q0 39 -16 57.5t-40 18.5t-40 -18.5t-16 -57.5v-60
q0 -39 16 -56.5t40 -17.5t40 17.5t16 56.5zM244 160v141q0 39 -16 56.5t-40 17.5t-40 -17.5t-16 -56.5v-141q0 -39 16 -57.5t40 -18.5t40 18.5t16 57.5z" />
    <glyph glyph-name="nine" unicode="9" horiz-adv-x="378" 
d="M244 160v175q-36 -56 -102 -56q-113 0 -113 130v198q0 85 36.5 128.5t120.5 43.5q83 0 121.5 -43t38.5 -129v-454q0 -166 -159 -166q-80 0 -118.5 41t-38.5 125v51h102v-44q0 -39 16 -57.5t40 -18.5t40 18.5t16 57.5zM243 461v143q0 40 -16 59t-40 19q-23 0 -39.5 -19.5
t-16.5 -58.5v-143q0 -86 53 -86q59 0 59 86z" />
    <glyph glyph-name="colon" unicode=":" horiz-adv-x="190" 
d="M95 -8q-26 0 -44.5 18.5t-18.5 44.5t18.5 44.5t44.5 18.5t44.5 -18.5t18.5 -44.5t-18.5 -44.5t-44.5 -18.5zM95 332q-26 0 -44.5 18.5t-18.5 44.5t18.5 44.5t44.5 18.5t44.5 -18.5t18.5 -44.5t-18.5 -44.5t-44.5 -18.5z" />
    <glyph glyph-name="semicolon" unicode=";" horiz-adv-x="209" 
d="M108 332q-26 0 -44.5 18.5t-18.5 44.5t18.5 44.5t44.5 18.5t44.5 -18.5t18.5 -44.5t-18.5 -44.5t-44.5 -18.5zM45 -135h-70l87 253h113z" />
    <glyph glyph-name="less" unicode="&#x3c;" horiz-adv-x="422" 
d="M383 82l-70 -57l-286 338l289 341l67 -60l-245 -281z" />
    <glyph glyph-name="equal" unicode="=" horiz-adv-x="422" 
d="M402 400h-382v94h382v-94zM402 230h-382v94h382v-94z" />
    <glyph glyph-name="greater" unicode="&#x3e;" horiz-adv-x="422" 
d="M109 25l-70 57l245 281l-245 281l67 60l289 -341z" />
    <glyph glyph-name="question" unicode="?" horiz-adv-x="352" 
d="M208 191h-82l-10 244q6 -2 19 -2q19 0 38 4t38.5 20t19.5 42v108q0 39 -16 57.5t-40 18.5t-40 -18.5t-16 -57.5v-89h-102v92q0 82 41.5 125.5t121.5 43.5q153 0 153 -164v-118q0 -68 -25 -105.5t-90 -49.5zM169 -8q-26 0 -44.5 18.5t-18.5 44.5t18.5 44.5t44.5 18.5
t44.5 -18.5t18.5 -44.5t-18.5 -44.5t-44.5 -18.5z" />
    <glyph glyph-name="at" unicode="@" horiz-adv-x="705" 
d="M481 -87l14 -92q-43 -26 -78.5 -37.5t-85.5 -11.5q-150 0 -232.5 101t-82.5 285q0 96 23 185.5t67.5 164.5t118.5 120t167 45q75 0 132 -29t90.5 -78.5t49.5 -109.5t16 -128q0 -85 -22.5 -163t-72.5 -132.5t-116 -54.5q-41 0 -69.5 20t-32.5 57q-18 -28 -50.5 -45.5
t-66.5 -17.5q-68 0 -68 63q0 36 57 296q25 113 94 113q26 0 51.5 -15t39.5 -34l8 40h90q-14 -65 -26 -122t-19.5 -90t-13.5 -61t-9 -41.5t-5 -24t-2.5 -15t-0.5 -9.5q0 -43 33 -43q48 0 75.5 85.5t27.5 190.5q0 252 -191 252q-72 0 -127.5 -35t-87.5 -95t-48 -134t-16 -158
q0 -157 54 -222t163 -65q79 0 152 45zM326 290l-26 -128q-6 -28 -6 -45q0 -31 24 -31q38 0 54 76q33 158 33 172q0 32 -27 32q-21 0 -32.5 -17t-19.5 -59z" />
    <glyph glyph-name="A" unicode="A" horiz-adv-x="363" 
d="M360 0h-102l-20 170h-113l-20 -170h-102l103 766h150zM226 267l-45 382l-45 -382h90z" />
    <glyph glyph-name="B" unicode="B" horiz-adv-x="386" 
d="M222 0h-182v766h172q61 0 100 -40.5t39 -119.5v-97q0 -88 -73 -116q83 -31 83 -123v-110q0 -79 -39 -119.5t-100 -40.5zM249 516v77q0 41 -13.5 58.5t-42.5 17.5h-51v-229h51q29 0 42.5 17.5t13.5 58.5zM259 173v94q0 76 -66 76h-51v-246h61q29 0 42.5 17.5t13.5 58.5z
" />
    <glyph glyph-name="C" unicode="C" horiz-adv-x="377" 
d="M351 256v-109q0 -81 -44 -120.5t-113 -39.5q-70 0 -114.5 40t-44.5 120v472q0 81 45 120.5t117 39.5q67 0 110.5 -36.5t43.5 -116.5v-127h-102v107q0 39 -16 57.5t-40 18.5t-40 -18.5t-16 -57.5v-446q0 -39 16 -57.5t40 -18.5t40 18.5t16 57.5v96h102z" />
    <glyph glyph-name="D" unicode="D" horiz-adv-x="386" 
d="M212 0h-172v766h172q62 0 100.5 -39t38.5 -121v-446q0 -82 -38.5 -121t-100.5 -39zM249 173v420q0 41 -13.5 58.5t-42.5 17.5h-51v-572h51q29 0 42.5 17.5t13.5 58.5z" />
    <glyph glyph-name="E" unicode="E" horiz-adv-x="341" 
d="M314 0h-274v766h274v-97h-172v-234h165v-97h-165v-241h172v-97z" />
    <glyph glyph-name="F" unicode="F" horiz-adv-x="336" 
d="M142 0h-102v766h274v-97h-172v-234h165v-97h-165v-338z" />
    <glyph glyph-name="G" unicode="G" horiz-adv-x="390" 
d="M259 160v135h-68v97h170v-245q0 -82 -45 -121t-117 -39q-73 0 -118.5 39.5t-45.5 120.5v472q0 81 44.5 120.5t119.5 39.5t118.5 -39.5t43.5 -120.5v-119h-102v106q0 76 -61 76t-61 -76v-446q0 -76 61 -76t61 76z" />
    <glyph glyph-name="H" unicode="H" horiz-adv-x="396" 
d="M356 0h-102v338h-112v-338h-102v766h102v-331h112v331h102v-766z" />
    <glyph glyph-name="I" unicode="I" horiz-adv-x="182" 
d="M142 0h-102v766h102v-766z" />
    <glyph glyph-name="J" unicode="J" horiz-adv-x="182" 
d="M-16 -192h-3v97h3q24 0 40 18.5t16 57.5v785h102v-798q0 -81 -44.5 -120.5t-113.5 -39.5z" />
    <glyph glyph-name="K" unicode="K" horiz-adv-x="377" 
d="M386 0h-102l-141 383l122 383h102l-116 -380zM142 0h-102v766h102v-766z" />
    <glyph glyph-name="L" unicode="L" horiz-adv-x="271" 
d="M264 0h-224v766h102v-669h122v-97z" />
    <glyph glyph-name="M" unicode="M" horiz-adv-x="580" 
d="M540 0h-102l2 573l-104 -573h-92l-104 572l2 -572h-102v766h165l85 -534l85 534h165v-766z" />
    <glyph glyph-name="N" unicode="N" horiz-adv-x="448" 
d="M408 0h-133l-135 511l2 -511h-102v766h128l140 -520l-2 520h102v-766z" />
    <glyph glyph-name="O" unicode="O" horiz-adv-x="386" 
d="M35 147v472q0 81 44.5 120.5t119.5 39.5q152 0 152 -160v-472q0 -81 -44 -120.5t-113 -39.5q-70 0 -114.5 40t-44.5 120zM249 160v446q0 39 -16 57.5t-40 18.5t-40 -18.5t-16 -57.5v-446q0 -39 16 -57.5t40 -18.5t40 18.5t16 57.5z" />
    <glyph glyph-name="P" unicode="P" horiz-adv-x="371" 
d="M142 0h-102v766h169q63 0 102.5 -39.5t39.5 -120.5v-131q0 -82 -37 -121t-99 -39h-73v-315zM249 488v105q0 41 -13.5 58.5t-42.5 17.5h-51v-257h51q29 0 42.5 17.5t13.5 58.5z" />
    <glyph glyph-name="Q" unicode="Q" horiz-adv-x="386" 
d="M327 -107l-81 -35l-58 129q-65 0 -109 39.5t-44 120.5v472q0 81 45 120.5t118 39.5q71 0 112 -38.5t41 -121.5v-472q0 -53 -18 -85.5t-60 -53.5zM249 160v446q0 39 -16 57.5t-40 18.5t-40 -18.5t-16 -57.5v-446q0 -39 16 -57.5t40 -18.5t40 18.5t16 57.5z" />
    <glyph glyph-name="R" unicode="R" horiz-adv-x="376" 
d="M371 0h-102l-88 315h-39v-315h-102v766h170q62 0 101.5 -39t39.5 -121v-123q0 -60 -16.5 -94t-57.5 -52zM249 488v105q0 41 -13.5 58.5t-42.5 17.5h-51v-257h51q29 0 42.5 17.5t13.5 58.5z" />
    <glyph glyph-name="S" unicode="S" horiz-adv-x="371" 
d="M343 244v-97q0 -80 -42.5 -120t-115.5 -40t-115.5 40.5t-42.5 119.5v109h102v-96q0 -39 16 -57.5t40 -18.5t40 18.5t16 57.5v63q0 23 -22 49t-53.5 52t-63 54.5t-53.5 66.5t-22 78v96q0 80 44.5 120t113.5 40q158 0 158 -160v-120h-102v107q0 39 -16 57.5t-40 18.5
t-40 -18.5t-16 -57.5v-64q0 -32 22 -61t53.5 -53.5t63 -49.5t53.5 -60t22 -74z" />
    <glyph glyph-name="T" unicode="T" horiz-adv-x="308" 
d="M205 0h-102v669h-95v97h292v-97h-95v-669z" />
    <glyph glyph-name="U" unicode="U" horiz-adv-x="392" 
d="M252 160v606h102v-619q0 -81 -44 -120.5t-113 -39.5q-70 0 -114.5 40t-44.5 120v619h102v-606q0 -39 16 -57.5t40 -18.5t40 18.5t16 57.5z" />
    <glyph glyph-name="V" unicode="V" horiz-adv-x="352" 
d="M344 766l-93 -766h-150l-94 766h102l67 -637l66 637h102z" />
    <glyph glyph-name="W" unicode="W" horiz-adv-x="611" 
d="M602 766l-84 -766h-145l-68 618l-67 -618h-145l-84 766h102l57 -592l66 592h143l66 -592l57 592h102z" />
    <glyph glyph-name="X" unicode="X" horiz-adv-x="376" 
d="M377 0h-102l-84 290l-94 -290h-102l137 394l-131 372h103l87 -264l81 264h103l-118 -373z" />
    <glyph glyph-name="Y" unicode="Y" horiz-adv-x="357" 
d="M229 0h-102v266l-127 500h103l75 -347l77 347h103l-129 -499v-267z" />
    <glyph glyph-name="Z" unicode="Z" horiz-adv-x="307" 
d="M291 0h-276v97l160 572h-151v97h267v-53l-171 -616h171v-97z" />
    <glyph glyph-name="bracketleft" unicode="[" horiz-adv-x="245" 
d="M231 -170h-186v936h186v-82h-88v-769h88v-85z" />
    <glyph glyph-name="backslash" unicode="\" horiz-adv-x="317" 
d="M305 0h-97l-196 766h97z" />
    <glyph glyph-name="bracketright" unicode="]" horiz-adv-x="245" 
d="M200 -170h-186v85h88v769h-88v82h186v-936z" />
    <glyph glyph-name="asciicircum" unicode="^" horiz-adv-x="422" 
d="M398 429h-108l-80 217l-80 -217h-107l135 337h106z" />
    <glyph glyph-name="underscore" unicode="_" horiz-adv-x="347" 
d="M315 -43h-283v86h283v-86z" />
    <glyph glyph-name="grave" unicode="`" horiz-adv-x="151" 
d="M168 637h-73l-95 131h111z" />
    <glyph glyph-name="a" unicode="a" horiz-adv-x="331" 
d="M298 0h-86l-9 47q-9 -16 -17 -25.5t-28 -19.5t-47 -10q-20 0 -33.5 6t-26 23.5t-19 53.5t-6.5 92v16q0 82 21 116t66 34q51 0 85 -46v117q0 43 -7.5 59.5t-28.5 16.5t-28.5 -16.5t-7.5 -59.5v-18h-100v35q0 154 138 154q74 0 104 -41t30 -116v-418zM198 152v22
q0 64 -36 64q-21 0 -28.5 -16.5t-7.5 -59.5v-4q0 -38 7.5 -54t28.5 -16q36 0 36 64z" />
    <glyph glyph-name="b" unicode="b" horiz-adv-x="337" 
d="M120 0h-86v766h100v-239q31 48 86 48q50 0 68 -35.5t18 -120.5v-271q0 -84 -17.5 -120t-67.5 -36q-60 0 -92 54zM206 163v241q0 43 -7.5 59.5t-28.5 16.5t-28.5 -16.5t-7.5 -59.5v-241q0 -43 7.5 -59.5t28.5 -16.5t28.5 16.5t7.5 59.5z" />
    <glyph glyph-name="c" unicode="c" horiz-adv-x="325" 
d="M302 222v-70q0 -83 -33 -121.5t-102 -38.5q-70 0 -103.5 39t-33.5 121v263q0 82 33.5 121t103.5 39q69 0 102 -38.5t33 -121.5v-56h-100v45q0 43 -7.5 59.5t-28.5 16.5t-28.5 -16.5t-7.5 -59.5v-240q0 -43 7.5 -59.5t28.5 -16.5t28.5 16.5t7.5 59.5v58h100z" />
    <glyph glyph-name="d" unicode="d" horiz-adv-x="337" 
d="M303 0h-86l-9 46q-32 -54 -92 -54q-50 0 -67.5 36t-17.5 120v271q0 85 17.5 120.5t68.5 35.5q55 0 86 -48v239h100v-766zM203 163v241q0 43 -7.5 59.5t-28.5 16.5t-28.5 -16.5t-7.5 -59.5v-241q0 -43 7.5 -59.5t28.5 -16.5t28.5 16.5t7.5 59.5z" />
    <glyph glyph-name="e" unicode="e" horiz-adv-x="327" 
d="M302 187v-35q0 -83 -33 -121.5t-102 -38.5q-70 0 -103.5 39t-33.5 121v263q0 82 33.5 121t103.5 39q69 0 102 -38.5t33 -121.5v-174h-172v-77q0 -43 7.5 -59.5t28.5 -16.5t28.5 16.5t7.5 59.5v23h100zM202 335v69q0 43 -7.5 59.5t-28.5 16.5t-28.5 -16.5t-7.5 -59.5v-69
h72z" />
    <glyph glyph-name="f" unicode="f" horiz-adv-x="233" 
d="M162 0h-100v474h-55v93h55v70q0 77 28.5 108.5t84.5 31.5q35 0 53 -7v-83q-14 2 -20 2q-28 0 -37 -18.5t-9 -59.5v-44h65v-93h-65v-474z" />
    <glyph glyph-name="g" unicode="g" horiz-adv-x="334" 
d="M302 -4v-48q0 -150 -142 -150q-73 0 -106.5 38.5t-33.5 121.5v50q0 74 31 117q-1 2 -4 7t-4.5 8t-3 9t-1.5 13q0 30 39 64q-47 40 -47 125v64q0 83 33.5 121.5t105.5 38.5q45 0 71 -17h92v-57l-47 2q17 -26 17 -78v-67q0 -83 -33.5 -120t-106.5 -37q-19 0 -27 2
q-12 -11 -12 -18q0 -18 52 -18q69 -1 98 -42.5t29 -128.5zM202 372v32q0 43 -7.5 59.5t-28.5 16.5t-28.5 -16.5t-7.5 -59.5v-32q0 -43 7.5 -59.5t28.5 -16.5t28.5 16.5t7.5 59.5zM202 -39v25q0 52 -7 69t-34 17q-23 0 -32 -13.5t-9 -52.5v-37q0 -43 10 -59.5t33 -16.5
q21 0 30 14.5t9 53.5z" />
    <glyph glyph-name="h" unicode="h" 
d="M306 0h-100v404q0 43 -7.5 59.5t-28.5 16.5t-28.5 -16.5t-7.5 -59.5v-404h-100v766h100v-239q31 48 86 48q50 0 68 -35.5t18 -120.5v-419z" />
    <glyph glyph-name="i" unicode="i" horiz-adv-x="168" 
d="M134 0h-100v567h100v-567zM84 625q-26 0 -44.5 18.5t-18.5 44.5t18.5 44.5t44.5 18.5t44.5 -18.5t18.5 -44.5t-18.5 -44.5t-44.5 -18.5z" />
    <glyph glyph-name="j" unicode="j" horiz-adv-x="168" 
d="M-32 -203v80q7 -1 16 -1q30 0 40 18t10 59v614h100v-625q0 -81 -28 -115.5t-94 -34.5q-22 0 -44 5zM84 625q-26 0 -44.5 18.5t-18.5 44.5t18.5 44.5t44.5 18.5t44.5 -18.5t18.5 -44.5t-18.5 -44.5t-44.5 -18.5z" />
    <glyph glyph-name="k" unicode="k" 
d="M338 0h-101l-102 290l102 277h102l-98 -274zM134 0h-100v766h100v-766z" />
    <glyph glyph-name="l" unicode="l" horiz-adv-x="170" 
d="M135 0h-100v766h100v-766z" />
    <glyph glyph-name="m" unicode="m" horiz-adv-x="511" 
d="M478 0h-100v404q0 43 -7.5 59.5t-28.5 16.5t-28.5 -16.5t-7.5 -59.5v-404h-100v404q0 43 -7.5 59.5t-28.5 16.5t-28.5 -16.5t-7.5 -59.5v-404h-100v567h86l9 -46q32 54 92 54q63 0 78 -66q32 66 95 66q49 0 66.5 -36t17.5 -120v-419z" />
    <glyph glyph-name="n" unicode="n" 
d="M306 0h-100v404q0 43 -7.5 59.5t-28.5 16.5t-28.5 -16.5t-7.5 -59.5v-404h-100v567h86l9 -46q32 54 92 54q50 0 67.5 -36t17.5 -120v-419z" />
    <glyph glyph-name="o" unicode="o" horiz-adv-x="332" 
d="M302 415v-263q0 -83 -33 -121.5t-102 -38.5q-70 0 -103.5 39t-33.5 121v263q0 82 33.5 121t103.5 39q69 0 102 -38.5t33 -121.5zM202 164v240q0 43 -7.5 59.5t-28.5 16.5t-28.5 -16.5t-7.5 -59.5v-240q0 -43 7.5 -59.5t28.5 -16.5t28.5 16.5t7.5 59.5z" />
    <glyph glyph-name="p" unicode="p" horiz-adv-x="337" 
d="M134 -199h-100v766h86l9 -46q32 54 92 54q50 0 67.5 -36t17.5 -120v-271q0 -85 -18 -120.5t-68 -35.5q-55 0 -86 48v-239zM206 163v241q0 43 -7.5 59.5t-28.5 16.5t-28.5 -16.5t-7.5 -59.5v-241q0 -43 7.5 -59.5t28.5 -16.5t28.5 16.5t7.5 59.5z" />
    <glyph glyph-name="q" unicode="q" horiz-adv-x="337" 
d="M303 -199h-100v239q-31 -48 -86 -48q-51 0 -68.5 35.5t-17.5 120.5v271q0 84 17.5 120t67.5 36q60 0 92 -54l9 46h86v-766zM203 163v241q0 43 -7.5 59.5t-28.5 16.5t-28.5 -16.5t-7.5 -59.5v-241q0 -43 7.5 -59.5t28.5 -16.5t28.5 16.5t7.5 59.5z" />
    <glyph glyph-name="r" unicode="r" horiz-adv-x="264" 
d="M134 0h-100v567h87l8 -46q8 18 30.5 35.5t54.5 17.5t48 -12l-9 -103q-33 14 -60 14q-59 0 -59 -90v-383z" />
    <glyph glyph-name="s" unicode="s" horiz-adv-x="323" 
d="M120 187v-24q0 -39 9.5 -57.5t32.5 -18.5q40 0 40 50q0 28 -13.5 51t-33.5 37.5t-44 33.5t-44 38.5t-33.5 53.5t-13.5 78q0 146 144 146q72 0 105 -38t33 -122v-37h-100v26q0 42 -8.5 59t-31.5 17q-41 0 -41 -51q0 -32 13.5 -56t33.5 -37.5t43.5 -31.5t43.5 -36
t33.5 -51.5t13.5 -78.5q0 -146 -142 -146q-72 0 -106 39t-34 119v37h100z" />
    <glyph glyph-name="t" unicode="t" horiz-adv-x="231" 
d="M219 82v-85q-22 -5 -40 -5q-69 0 -97.5 34t-28.5 116v332h-45v93h45v140h100v-140h65v-93h-65v-316q0 -41 9 -59.5t37 -18.5q6 0 20 2z" />
    <glyph glyph-name="u" unicode="u" 
d="M305 0h-86l-9 46q-32 -54 -92 -54q-50 0 -67.5 36t-17.5 120v419h100v-404q0 -43 7.5 -59.5t28.5 -16.5t28.5 16.5t7.5 59.5v404h100v-567z" />
    <glyph glyph-name="v" unicode="v" horiz-adv-x="315" 
d="M231 0h-146l-77 567h104l45 -462l46 462h104z" />
    <glyph glyph-name="w" unicode="w" horiz-adv-x="514" 
d="M429 0h-131l-41 407l-41 -407h-131l-77 567h104l45 -432l46 432h108l46 -432l45 432h104z" />
    <glyph glyph-name="x" unicode="x" horiz-adv-x="314" 
d="M313 0h-99l-61 189l-53 -189h-98l94 290l-93 277h99l55 -172l53 172h101l-97 -278z" />
    <glyph glyph-name="y" unicode="y" horiz-adv-x="316" 
d="M194 -200h-104l30 162l-119 605h104l57 -402l44 402h104z" />
    <glyph glyph-name="z" unicode="z" horiz-adv-x="279" 
d="M254 0h-242v88l141 386h-122v93h235v-71l-144 -401h132v-95z" />
    <glyph glyph-name="braceleft" unicode="{" horiz-adv-x="282" 
d="M267 -85v-85h-84q-96 0 -96 107v196q0 60 -17.5 91.5t-66.5 36.5v71q48 6 66 40t18 90v196q0 108 96 108h84v-82h-47q-12 0 -19.5 -6t-10.5 -19.5t-4 -26t-1 -35.5v-167q0 -58 -21.5 -89.5t-49.5 -42.5q27 -7 49 -40.5t22 -90.5v-165q0 -51 5.5 -69t29.5 -18h47z" />
    <glyph glyph-name="bar" unicode="|" horiz-adv-x="190" 
d="M146 -220h-102v1000h102v-1000z" />
    <glyph glyph-name="braceright" unicode="}" horiz-adv-x="282" 
d="M195 133v-196q0 -107 -96 -107h-84v85h47q24 0 29.5 18t5.5 69v165q0 57 22 90.5t49 40.5q-28 11 -49.5 42.5t-21.5 89.5v167q0 23 -1 35.5t-4 26t-10.5 19.5t-19.5 6h-47v82h84q96 0 96 -108v-196q0 -56 18 -90t66 -40v-71q-49 -5 -66.5 -36.5t-17.5 -91.5z" />
    <glyph glyph-name="asciitilde" unicode="~" horiz-adv-x="422" 
d="M346 620l67 -45q-52 -98 -125 -98q-23 0 -74.5 21.5t-79.5 21.5q-40 0 -60 -39l-60 50q47 90 122 90q32 0 81.5 -20t72.5 -20q36 0 56 39z" />
    <glyph glyph-name="nbspace" unicode="&#xa0;" horiz-adv-x="126" 
 />
    <glyph glyph-name="exclamdown" unicode="&#xa1;" horiz-adv-x="175" 
d="M142 -174h-109l20 575h70zM151 537q0 -26 -18.5 -44.5t-44.5 -18.5t-44.5 18.5t-18.5 44.5t18.5 44.5t44.5 18.5t44.5 -18.5t18.5 -44.5z" />
    <glyph glyph-name="cent" unicode="&#xa2;" horiz-adv-x="323" 
d="M215 0h-100v106q-87 23 -87 154v263q0 129 87 154v90h100v-90q85 -23 85 -154v-56h-100v45q0 43 -7.5 59.5t-28.5 16.5t-28.5 -16.5t-7.5 -59.5v-240q0 -43 7.5 -59.5t28.5 -16.5t28.5 16.5t7.5 59.5v58h100v-70q0 -131 -85 -154v-106z" />
    <glyph glyph-name="sterling" unicode="&#xa3;" horiz-adv-x="420" 
d="M394 0h-369v102h55v112h-55v96h55v64h-55v96h55v142q0 167 162 167q154 0 154 -167v-44h-102v38q0 39 -16 57.5t-40 18.5t-40 -18.5t-16 -57.5v-136h185v-96h-185v-64h185v-96h-185v-112h212v-102z" />
    <glyph glyph-name="currency" unicode="&#xa4;" horiz-adv-x="453" 
d="M416 171l-66 -49l-42 59q-40 -10 -82 -10q-46 0 -80 9l-41 -58l-66 49l34 49q-43 44 -43 141v48q0 97 43 141l-34 49l66 49l41 -58q34 9 80 9q42 0 82 -10l42 59l66 -49l-37 -52q43 -46 43 -138v-48q0 -92 -43 -138zM322 374v22q0 58 -24 82t-72 24t-72 -24t-24 -82v-22
q0 -58 24 -82t72 -24t72 24t24 82z" />
    <glyph glyph-name="yen" unicode="&#xa5;" horiz-adv-x="398" 
d="M370 104h-120v-104h-102v104h-120v96h120v64h-120v96h106l-113 406h103l75 -335l77 335h103l-115 -406h106v-96h-120v-64h120v-96z" />
    <glyph glyph-name="brokenbar" unicode="&#xa6;" horiz-adv-x="192" 
d="M147 372h-102v408h102v-408zM147 -220h-102v407h102v-407z" />
    <glyph glyph-name="section" unicode="&#xa7;" horiz-adv-x="397" 
d="M121 187v-24q0 -39 9.5 -57.5t32.5 -18.5q40 0 40 50q0 28 -13.5 51t-33.5 37.5t-44 33.5t-44 38.5t-33.5 53.5t-13.5 78q0 110 83 137q-10 32 -10 65q0 142 145 142q71 0 104 -38t33 -122v-30h-100v19q0 42 -8.5 59t-31.5 17q-41 0 -41 -48q0 -35 18.5 -60t45 -42.5
t53.5 -37.5t45.5 -57t18.5 -90q0 -110 -83 -138q10 -32 10 -68q0 -145 -142 -145q-72 0 -106 39t-34 119v37h100zM163 480q-41 0 -41 -50q0 -22 5.5 -39.5t18.5 -32t23 -23t30.5 -22.5t29.5 -21q47 0 47 50q0 25 -11.5 46t-24 32t-39 30.5t-38.5 29.5z" />
    <glyph glyph-name="dieresis" unicode="&#xa8;" horiz-adv-x="328" 
d="M79 627q-24 0 -42 17.5t-18 42.5q0 24 18 41.5t42 17.5q25 0 42 -17t17 -42t-17 -42.5t-42 -17.5zM249 627q-24 0 -41.5 17.5t-17.5 42.5t17.5 42t41.5 17q25 0 42.5 -17t17.5 -42t-17.5 -42.5t-42.5 -17.5z" />
    <glyph glyph-name="ordfeminine" unicode="&#xaa;" horiz-adv-x="294" 
d="M270 363h-76l-9 43q-29 -50 -74 -50q-36 0 -63.5 32t-27.5 104q0 117 81 117q49 0 80 -43v47q0 38 -8.5 53.5t-27.5 15.5q-28 0 -32 -36h-91q4 120 125 120q69 0 96 -35t27 -109v-259zM262 197h-230v86h230v-86zM142 436q16 0 27.5 11.5t11.5 36.5q0 45 -38 45t-38 -45
q0 -23 10.5 -35.5t26.5 -12.5z" />
    <glyph glyph-name="guillemotleft" unicode="&#xab;" horiz-adv-x="386" 
d="M194 90h-102l-78 177l78 179h102l-79 -179zM356 90h-102l-78 177l78 179h102l-79 -179z" />
    <glyph glyph-name="logicalnot" unicode="&#xac;" horiz-adv-x="422" 
d="M401 172h-96v144h-286v94h382v-238z" />
    <glyph glyph-name="uni00AD" unicode="&#xad;" horiz-adv-x="253" 
d="M221 244h-189v96h189v-96z" />
    <glyph glyph-name="macron" unicode="&#xaf;" horiz-adv-x="300" 
d="M281 637h-262v81h262v-81z" />
    <glyph glyph-name="degree" unicode="&#xb0;" horiz-adv-x="252" 
d="M164 632q0 16 -11 27t-27 11t-27 -11t-11 -27t11 -27t27 -11t27 11t11 27zM126 525q-45 0 -76 31t-31 76t31 76t76 31t76 -31t31 -76t-31 -76t-76 -31z" />
    <glyph glyph-name="plusminus" unicode="&#xb1;" horiz-adv-x="422" 
d="M259 184h-96v144h-143v94h143v144h96v-144h143v-94h-143v-144zM402 41h-382v94h382v-94z" />
    <glyph glyph-name="twosuperior" unicode="&#xb2;" horiz-adv-x="273" 
d="M237 384h-206v53q0 29 20.5 56t45.5 44.5t45.5 42t20.5 48.5v40q0 35 -26 35t-26 -35v-43h-80v49q0 44 25 71.5t81 27.5q57 0 82.5 -28t25.5 -71v-51q0 -32 -17.5 -59.5t-39 -43t-39 -33t-17.5 -31.5h105v-72z" />
    <glyph glyph-name="threesuperior" unicode="&#xb3;" horiz-adv-x="268" 
d="M241 500v-34q0 -40 -27 -64.5t-80 -24.5q-54 0 -80.5 24.5t-26.5 64.5v24h81v-9q0 -35 26 -35q25 0 25 35v30q0 31 -38 31q-8 0 -20 -1v69q11 -1 19 -1q20 0 29.5 6t9.5 24v29q0 35 -25 35q-26 0 -26 -35v-11h-81v26q0 40 26.5 64.5t80.5 24.5q53 0 80 -24.5t27 -64.5
v-37q0 -52 -39 -68q39 -13 39 -78z" />
    <glyph glyph-name="acute" unicode="&#xb4;" horiz-adv-x="151" 
d="M73 637h-73l57 131h111z" />
    <glyph glyph-name="mu" unicode="&#xb5;" horiz-adv-x="360" 
d="M143 -199h-100v766h100v-404q0 -43 7.5 -59.5t28.5 -16.5t28.5 16.5t7.5 59.5v404h100v-567h-86l-9 46q-27 -46 -60 -46q-8 0 -17 3v-202z" />
    <glyph glyph-name="paragraph" unicode="&#xb6;" horiz-adv-x="488" 
d="M440 -87h-82v754h-69v-755h-102v334h-32q-77 0 -106.5 31.5t-29.5 128.5v200q0 97 29.5 128.5t106.5 31.5h285v-853z" />
    <glyph glyph-name="periodcentered" unicode="&#xb7;" horiz-adv-x="184" 
d="M92 221q-26 0 -44.5 18.5t-18.5 44.5t18.5 44.5t44.5 18.5t44.5 -18.5t18.5 -44.5t-18.5 -44.5t-44.5 -18.5z" />
    <glyph glyph-name="cedilla" unicode="&#xb8;" horiz-adv-x="228" 
d="M25 -176l15 56q13 -9 34 -9q18 0 28.5 9.5t10.5 22.5q0 30 -41 30q-6 0 -10 -1l17 68h71l-13 -46q31 0 48.5 -19.5t17.5 -45.5q0 -32 -26 -55.5t-76 -23.5q-44 0 -76 14z" />
    <glyph glyph-name="onesuperior" unicode="&#xb9;" horiz-adv-x="193" 
d="M159 384h-82v298l-62 -29v77l73 37h71v-383z" />
    <glyph glyph-name="ordmasculine" unicode="&#xba;" horiz-adv-x="291" 
d="M271 606v-90q0 -85 -28.5 -122.5t-96.5 -37.5q-69 0 -98 38t-29 122v90q0 84 29 122t98 38q68 0 96.5 -37.5t28.5 -122.5zM262 197h-230v86h230v-86zM181 527v68q0 43 -7.5 59.5t-28.5 16.5t-28.5 -16.5t-7.5 -59.5v-68q0 -43 7.5 -59.5t28.5 -16.5t28.5 16.5t7.5 59.5z
" />
    <glyph glyph-name="guillemotright" unicode="&#xbb;" horiz-adv-x="386" 
d="M132 90h-102l79 177l-79 179h102l78 -179zM294 90h-102l79 177l-79 179h102l78 -179z" />
    <glyph glyph-name="onequarter" unicode="&#xbc;" horiz-adv-x="543" 
d="M159 384h-82v298l-62 -29v77l73 37h71v-383zM494 0h-77v72h-117v69l77 242h117v-242h33v-69h-33v-72zM417 141v172l-43 -172h43zM193 0h-81l206 766h81z" />
    <glyph glyph-name="onehalf" unicode="&#xbd;" horiz-adv-x="564" 
d="M159 384h-82v298l-62 -29v77l73 37h71v-383zM536 0h-206v53q0 29 20.5 56t45.5 44.5t45.5 42t20.5 48.5v40q0 35 -26 35t-26 -35v-43h-80v49q0 44 25 71.5t81 27.5q57 0 82.5 -28t25.5 -71v-51q0 -32 -17.5 -59.5t-39 -43t-39 -33t-17.5 -31.5h105v-72zM193 0h-81
l206 766h81z" />
    <glyph glyph-name="threequarters" unicode="&#xbe;" horiz-adv-x="596" 
d="M235 500v-34q0 -40 -27 -64.5t-80 -24.5q-54 0 -80.5 24.5t-26.5 64.5v24h81v-9q0 -35 26 -35q25 0 25 35v30q0 31 -38 31q-8 0 -20 -1v69q11 -1 19 -1q20 0 29.5 6t9.5 24v29q0 35 -25 35q-26 0 -26 -35v-11h-81v26q0 40 26.5 64.5t80.5 24.5q53 0 80 -24.5t27 -64.5
v-37q0 -52 -39 -68q39 -13 39 -78zM547 0h-77v72h-117v69l77 242h117v-242h33v-69h-33v-72zM470 141v172l-43 -172h43zM247 0h-81l206 766h81z" />
    <glyph glyph-name="questiondown" unicode="&#xbf;" horiz-adv-x="349" 
d="M334 73v-92q0 -82 -41.5 -125.5t-121.5 -43.5q-153 0 -153 164v118q0 68 25 105.5t90 49.5l10 151h82l10 -244q-6 2 -19 2q-19 0 -38 -4t-38.5 -20t-19.5 -42v-108q0 -39 16 -57.5t40 -18.5t40 18.5t16 57.5v89h102zM245 536q0 -26 -18.5 -44.5t-44.5 -18.5t-44.5 18.5
t-18.5 44.5t18.5 44.5t44.5 18.5t44.5 -18.5t18.5 -44.5z" />
    <glyph glyph-name="Agrave" unicode="&#xc0;" horiz-adv-x="363" 
d="M360 0h-102l-20 170h-113l-20 -170h-102l103 766h150zM226 267l-45 382l-45 -382h90zM225 836h-73l-95 131h111z" />
    <glyph glyph-name="Aacute" unicode="&#xc1;" horiz-adv-x="363" 
d="M360 0h-102l-20 170h-113l-20 -170h-102l103 766h150zM226 267l-45 382l-45 -382h90zM204 836h-73l57 131h111z" />
    <glyph glyph-name="Acircumflex" unicode="&#xc2;" horiz-adv-x="363" 
d="M360 0h-102l-20 170h-113l-20 -170h-102l103 766h150zM226 267l-45 382l-45 -382h90zM303 836h-78l-45 77l-40 -77h-81l75 141h90z" />
    <glyph glyph-name="Atilde" unicode="&#xc3;" horiz-adv-x="363" 
d="M360 0h-102l-20 170h-113l-20 -170h-102l103 766h150zM226 267l-45 382l-45 -382h90zM239 931h65q-2 -42 -20 -68.5t-52 -26.5q-16 0 -42.5 9.5t-40.5 9.5q-24 0 -26 -20h-65q2 42 20 68.5t52 26.5q16 0 42.5 -9.5t40.5 -9.5q24 0 26 20z" />
    <glyph glyph-name="Adieresis" unicode="&#xc4;" horiz-adv-x="363" 
d="M360 0h-102l-20 170h-113l-20 -170h-102l103 766h150zM226 267l-45 382l-45 -382h90zM96 826q-24 0 -42 17.5t-18 42.5q0 24 18 41.5t42 17.5q25 0 42 -17t17 -42t-17 -42.5t-42 -17.5zM266 826q-24 0 -41.5 17.5t-17.5 42.5t17.5 42t41.5 17q25 0 42.5 -17t17.5 -42
q0 -26 -17 -43t-43 -17z" />
    <glyph glyph-name="Aring" unicode="&#xc5;" horiz-adv-x="363" 
d="M360 0h-102l-20 170h-113l-20 -170h-102l103 766h150zM226 267l-45 382l-45 -382h90zM212 902q0 14 -9 22.5t-22 8.5t-22 -8.5t-9 -22.5t9 -22.5t22 -8.5t22 8.5t9 22.5zM181 815q-37 0 -62 25t-25 62t25 62t62 25t62 -25t25 -62t-25 -62t-62 -25z" />
    <glyph glyph-name="AE" unicode="&#xc6;" horiz-adv-x="550" 
d="M523 0h-274v170h-113l-43 -170h-101l198 766h333v-97h-172v-234h165v-97h-165v-241h172v-97zM249 272v350l-89 -350h89z" />
    <glyph glyph-name="Ccedilla" unicode="&#xc7;" horiz-adv-x="377" 
d="M116 -176l15 56q13 -9 34 -9q18 0 28.5 9.5t10.5 22.5q0 30 -41 30q-6 0 -10 -1l14 57q-59 7 -95.5 46.5t-36.5 111.5v472q0 81 45 120.5t117 39.5q67 0 110.5 -36.5t43.5 -116.5v-127h-102v107q0 39 -16 57.5t-40 18.5t-40 -18.5t-16 -57.5v-446q0 -39 16 -57.5
t40 -18.5t40 18.5t16 57.5v96h102v-109q0 -67 -31 -106t-82 -49l-10 -38q31 0 48.5 -19.5t17.5 -45.5q0 -32 -26 -55.5t-76 -23.5q-44 0 -76 14z" />
    <glyph glyph-name="Egrave" unicode="&#xc8;" horiz-adv-x="341" 
d="M314 0h-274v766h274v-97h-172v-234h165v-97h-165v-241h172v-97zM237 836h-73l-95 131h111z" />
    <glyph glyph-name="Eacute" unicode="&#xc9;" horiz-adv-x="341" 
d="M314 0h-274v766h274v-97h-172v-234h165v-97h-165v-241h172v-97zM195 836h-73l57 131h111z" />
    <glyph glyph-name="Ecircumflex" unicode="&#xca;" horiz-adv-x="341" 
d="M314 0h-274v766h274v-97h-172v-234h165v-97h-165v-241h172v-97zM296 836h-78l-45 77l-40 -77h-81l75 141h90z" />
    <glyph glyph-name="Edieresis" unicode="&#xcb;" horiz-adv-x="341" 
d="M314 0h-274v766h274v-97h-172v-234h165v-97h-165v-241h172v-97zM91 826q-24 0 -42 17.5t-18 42.5q0 24 18 41.5t42 17.5q25 0 42 -17t17 -42t-17 -42.5t-42 -17.5zM261 826q-24 0 -41.5 17.5t-17.5 42.5t17.5 42t41.5 17q25 0 42.5 -17t17.5 -42q0 -26 -17.5 -43
t-42.5 -17z" />
    <glyph glyph-name="Igrave" unicode="&#xcc;" horiz-adv-x="182" 
d="M142 0h-102v766h102v-766zM138 836h-73l-95 131h111z" />
    <glyph glyph-name="Iacute" unicode="&#xcd;" horiz-adv-x="182" 
d="M142 0h-102v766h102v-766zM115 836h-73l57 131h111z" />
    <glyph glyph-name="Icircumflex" unicode="&#xce;" horiz-adv-x="182" 
d="M142 0h-102v766h102v-766zM213 836h-78l-45 77l-40 -77h-81l75 141h90z" />
    <glyph glyph-name="Idieresis" unicode="&#xcf;" horiz-adv-x="182" 
d="M142 0h-102v766h102v-766zM6 826q-24 0 -42 17.5t-18 42.5q0 24 18 41.5t42 17.5q25 0 42 -17t17 -42t-17 -42.5t-42 -17.5zM176 826q-24 0 -41.5 17.5t-17.5 42.5t17.5 42t41.5 17q25 0 42.5 -17t17.5 -42q0 -26 -17 -43t-43 -17z" />
    <glyph glyph-name="Eth" unicode="&#xd0;" horiz-adv-x="388" 
d="M214 0h-172v339h-43v95h43v332h172q62 0 100.5 -39t38.5 -121v-446q0 -82 -38.5 -121t-100.5 -39zM251 173v420q0 41 -13.5 58.5t-42.5 17.5h-51v-235h54v-95h-54v-242h51q29 0 42.5 17.5t13.5 58.5z" />
    <glyph glyph-name="Ntilde" unicode="&#xd1;" horiz-adv-x="448" 
d="M408 0h-133l-135 511l2 -511h-102v766h128l140 -520l-2 520h102v-766zM295 931h65q-2 -42 -20 -68.5t-52 -26.5q-16 0 -42.5 9.5t-40.5 9.5q-24 0 -26 -20h-65q2 42 20 68.5t52 26.5q16 0 42.5 -9.5t40.5 -9.5q24 0 26 20z" />
    <glyph glyph-name="Ograve" unicode="&#xd2;" horiz-adv-x="386" 
d="M35 147v472q0 81 44.5 120.5t119.5 39.5q152 0 152 -160v-472q0 -81 -44 -120.5t-113 -39.5q-70 0 -114.5 40t-44.5 120zM249 160v446q0 39 -16 57.5t-40 18.5t-40 -18.5t-16 -57.5v-446q0 -39 16 -57.5t40 -18.5t40 18.5t16 57.5zM242 836h-73l-95 131h111z" />
    <glyph glyph-name="Oacute" unicode="&#xd3;" horiz-adv-x="386" 
d="M35 147v472q0 81 44.5 120.5t119.5 39.5q152 0 152 -160v-472q0 -81 -44 -120.5t-113 -39.5q-70 0 -114.5 40t-44.5 120zM249 160v446q0 39 -16 57.5t-40 18.5t-40 -18.5t-16 -57.5v-446q0 -39 16 -57.5t40 -18.5t40 18.5t16 57.5zM222 836h-73l57 131h111z" />
    <glyph glyph-name="Ocircumflex" unicode="&#xd4;" horiz-adv-x="386" 
d="M35 147v472q0 81 44.5 120.5t119.5 39.5q152 0 152 -160v-472q0 -81 -44 -120.5t-113 -39.5q-70 0 -114.5 40t-44.5 120zM249 160v446q0 39 -16 57.5t-40 18.5t-40 -18.5t-16 -57.5v-446q0 -39 16 -57.5t40 -18.5t40 18.5t16 57.5zM315 836h-78l-45 77l-40 -77h-81
l75 141h90z" />
    <glyph glyph-name="Otilde" unicode="&#xd5;" horiz-adv-x="386" 
d="M35 147v472q0 81 44.5 120.5t119.5 39.5q152 0 152 -160v-472q0 -81 -44 -120.5t-113 -39.5q-70 0 -114.5 40t-44.5 120zM249 160v446q0 39 -16 57.5t-40 18.5t-40 -18.5t-16 -57.5v-446q0 -39 16 -57.5t40 -18.5t40 18.5t16 57.5zM251 931h65q-2 -42 -20 -68.5
t-52 -26.5q-16 0 -42.5 9.5t-40.5 9.5q-24 0 -26 -20h-65q2 42 20 68.5t52 26.5q16 0 42.5 -9.5t40.5 -9.5q24 0 26 20z" />
    <glyph glyph-name="Odieresis" unicode="&#xd6;" horiz-adv-x="386" 
d="M35 147v472q0 81 44.5 120.5t119.5 39.5q152 0 152 -160v-472q0 -81 -44 -120.5t-113 -39.5q-70 0 -114.5 40t-44.5 120zM249 160v446q0 39 -16 57.5t-40 18.5t-40 -18.5t-16 -57.5v-446q0 -39 16 -57.5t40 -18.5t40 18.5t16 57.5zM108 826q-24 0 -42 17.5t-18 42.5
q0 24 18 41.5t42 17.5q25 0 42 -17t17 -42t-17 -42.5t-42 -17.5zM278 826q-24 0 -41.5 17.5t-17.5 42.5t17.5 42t41.5 17q25 0 42.5 -17t17.5 -42q0 -26 -17 -43t-43 -17z" />
    <glyph glyph-name="multiply" unicode="&#xd7;" horiz-adv-x="422" 
d="M313 195l-101 101l-102 -102l-68 68l102 102l-101 101l66 66l101 -101l102 102l68 -68l-102 -102l101 -101z" />
    <glyph glyph-name="Oslash" unicode="&#xd8;" horiz-adv-x="386" 
d="M145 -53h-37l8 55q-81 37 -81 145v472q0 81 44.5 120.5t119.5 39.5q20 0 38 -3l7 42h37l-8 -52q78 -33 78 -147v-472q0 -81 -44 -120.5t-113 -39.5q-25 0 -42 4zM138 102l83 571q-12 9 -28 9q-24 0 -40 -18.5t-16 -57.5v-446zM249 160v483l-82 -553q12 -6 26 -6
q24 0 40 18.5t16 57.5z" />
    <glyph glyph-name="Ugrave" unicode="&#xd9;" horiz-adv-x="392" 
d="M252 160v606h102v-619q0 -81 -44 -120.5t-113 -39.5q-70 0 -114.5 40t-44.5 120v619h102v-606q0 -39 16 -57.5t40 -18.5t40 18.5t16 57.5zM242 836h-73l-95 131h111z" />
    <glyph glyph-name="Uacute" unicode="&#xda;" horiz-adv-x="392" 
d="M252 160v606h102v-619q0 -81 -44 -120.5t-113 -39.5q-70 0 -114.5 40t-44.5 120v619h102v-606q0 -39 16 -57.5t40 -18.5t40 18.5t16 57.5zM226 836h-73l57 131h111z" />
    <glyph glyph-name="Ucircumflex" unicode="&#xdb;" horiz-adv-x="392" 
d="M252 160v606h102v-619q0 -81 -44 -120.5t-113 -39.5q-70 0 -114.5 40t-44.5 120v619h102v-606q0 -39 16 -57.5t40 -18.5t40 18.5t16 57.5zM308 836h-78l-45 77l-40 -77h-81l75 141h90z" />
    <glyph glyph-name="Udieresis" unicode="&#xdc;" horiz-adv-x="392" 
d="M252 160v606h102v-619q0 -81 -44 -120.5t-113 -39.5q-70 0 -114.5 40t-44.5 120v619h102v-606q0 -39 16 -57.5t40 -18.5t40 18.5t16 57.5zM111 826q-24 0 -42 17.5t-18 42.5q0 24 18 41.5t42 17.5q25 0 42 -17t17 -42t-17 -42.5t-42 -17.5zM281 826q-24 0 -41.5 17.5
t-17.5 42.5t17.5 42t41.5 17q25 0 42.5 -17t17.5 -42q0 -26 -17.5 -43t-42.5 -17z" />
    <glyph glyph-name="Yacute" unicode="&#xdd;" horiz-adv-x="357" 
d="M229 0h-102v266l-127 500h103l75 -347l77 347h103l-129 -499v-267zM207 836h-73l57 131h111z" />
    <glyph glyph-name="Thorn" unicode="&#xde;" horiz-adv-x="368" 
d="M142 0h-102v766h102v-163h63q146 0 146 -170v-98q0 -170 -136 -170h-73v-165zM249 338v92q0 41 -13.5 58.5t-42.5 17.5h-51v-244h51q29 0 42.5 17.5t13.5 58.5z" />
    <glyph glyph-name="germandbls" unicode="&#xdf;" horiz-adv-x="352" 
d="M160 -3v93q8 -1 17 -1q33 0 41 17t8 60v132q0 117 -56 127v82q33 8 44.5 32.5t11.5 67.5v9q0 61 -46 61t-46 -61v-616h-100v619q0 153 146 153t146 -153v-19q0 -111 -76 -132q76 -16 76 -121v-195q0 -72 -30 -116t-95 -44q-19 0 -41 5z" />
    <glyph glyph-name="agrave" unicode="&#xe0;" horiz-adv-x="331" 
d="M298 0h-86l-9 47q-9 -16 -17 -25.5t-28 -19.5t-47 -10q-20 0 -33.5 6t-26 23.5t-19 53.5t-6.5 92v16q0 82 21 116t66 34q51 0 85 -46v117q0 43 -7.5 59.5t-28.5 16.5t-28.5 -16.5t-7.5 -59.5v-18h-100v35q0 154 138 154q74 0 104 -41t30 -116v-418zM198 152v22
q0 64 -36 64q-21 0 -28.5 -16.5t-7.5 -59.5v-4q0 -38 7.5 -54t28.5 -16q36 0 36 64zM224 637h-73l-95 131h111z" />
    <glyph glyph-name="aacute" unicode="&#xe1;" horiz-adv-x="331" 
d="M298 0h-86l-9 47q-9 -16 -17 -25.5t-28 -19.5t-47 -10q-20 0 -33.5 6t-26 23.5t-19 53.5t-6.5 92v16q0 82 21 116t66 34q51 0 85 -46v117q0 43 -7.5 59.5t-28.5 16.5t-28.5 -16.5t-7.5 -59.5v-18h-100v35q0 154 138 154q74 0 104 -41t30 -116v-418zM198 152v22
q0 64 -36 64q-21 0 -28.5 -16.5t-7.5 -59.5v-4q0 -38 7.5 -54t28.5 -16q36 0 36 64zM185 637h-73l57 131h111z" />
    <glyph glyph-name="acircumflex" unicode="&#xe2;" horiz-adv-x="331" 
d="M298 0h-86l-9 47q-9 -16 -17 -25.5t-28 -19.5t-47 -10q-20 0 -33.5 6t-26 23.5t-19 53.5t-6.5 92v16q0 82 21 116t66 34q51 0 85 -46v117q0 43 -7.5 59.5t-28.5 16.5t-28.5 -16.5t-7.5 -59.5v-18h-100v35q0 154 138 154q74 0 104 -41t30 -116v-418zM198 152v22
q0 64 -36 64q-21 0 -28.5 -16.5t-7.5 -59.5v-4q0 -38 7.5 -54t28.5 -16q36 0 36 64zM283 637h-78l-45 77l-40 -77h-81l75 141h90z" />
    <glyph glyph-name="atilde" unicode="&#xe3;" horiz-adv-x="331" 
d="M298 0h-86l-9 47q-9 -16 -17 -25.5t-28 -19.5t-47 -10q-20 0 -33.5 6t-26 23.5t-19 53.5t-6.5 92v16q0 82 21 116t66 34q51 0 85 -46v117q0 43 -7.5 59.5t-28.5 16.5t-28.5 -16.5t-7.5 -59.5v-18h-100v35q0 154 138 154q74 0 104 -41t30 -116v-418zM198 152v22
q0 64 -36 64q-21 0 -28.5 -16.5t-7.5 -59.5v-4q0 -38 7.5 -54t28.5 -16q36 0 36 64zM220 732h65q-2 -42 -20 -68.5t-52 -26.5q-16 0 -42.5 9.5t-40.5 9.5q-24 0 -26 -20h-65q2 42 20 68.5t52 26.5q16 0 42.5 -9.5t40.5 -9.5q24 0 26 20z" />
    <glyph glyph-name="adieresis" unicode="&#xe4;" horiz-adv-x="330" 
d="M298 0h-86l-9 47q-9 -16 -17 -25.5t-28 -19.5t-47 -10q-20 0 -33.5 6t-26 23.5t-19 53.5t-6.5 92v16q0 82 21 116t66 34q51 0 85 -46v117q0 43 -7.5 59.5t-28.5 16.5t-28.5 -16.5t-7.5 -59.5v-18h-100v35q0 154 138 154q74 0 104 -41t30 -116v-418zM198 152v22
q0 64 -36 64q-21 0 -28.5 -16.5t-7.5 -59.5v-4q0 -38 7.5 -54t28.5 -16q36 0 36 64zM77 627q-24 0 -42 17.5t-18 42.5q0 24 18 41.5t42 17.5q25 0 42 -17t17 -42t-17 -42.5t-42 -17.5zM247 627q-24 0 -41.5 17.5t-17.5 42.5t17.5 42t41.5 17q25 0 42.5 -17t17.5 -42
t-17.5 -42.5t-42.5 -17.5z" />
    <glyph glyph-name="aring" unicode="&#xe5;" horiz-adv-x="331" 
d="M298 0h-86l-9 47q-9 -16 -17 -25.5t-28 -19.5t-47 -10q-20 0 -33.5 6t-26 23.5t-19 53.5t-6.5 92v16q0 82 21 116t66 34q51 0 85 -46v117q0 43 -7.5 59.5t-28.5 16.5t-28.5 -16.5t-7.5 -59.5v-18h-100v35q0 154 138 154q74 0 104 -41t30 -116v-418zM198 152v22
q0 64 -36 64q-21 0 -28.5 -16.5t-7.5 -59.5v-4q0 -38 7.5 -54t28.5 -16q36 0 36 64zM194 703q0 13 -9 22t-22 9t-22 -9t-9 -22t9 -22t22 -9t22 9t9 22zM163 616q-37 0 -62 25t-25 62t25 62t62 25t62 -25t25 -62t-25 -62t-62 -25z" />
    <glyph glyph-name="ae" unicode="&#xe6;" horiz-adv-x="495" 
d="M470 187v-35q0 -83 -33 -121.5t-102 -38.5q-94 0 -123 70q-21 -38 -43 -54t-58 -16q-20 0 -33.5 6t-26 23.5t-19 53.5t-6.5 92v16q0 82 21 116t66 34q51 0 85 -46v129q0 35 -8 49.5t-28 14.5q-21 0 -28.5 -16.5t-7.5 -59.5v-18h-100v35q0 154 138 154q52 0 85 -23
q32 23 86 23q69 0 102 -38.5t33 -121.5v-174h-172v-77q0 -43 7.5 -59.5t28.5 -16.5t28.5 16.5t7.5 59.5v23h100zM370 335v69q0 43 -7.5 59.5t-28.5 16.5t-28.5 -16.5t-7.5 -59.5v-69h72zM198 152v22q0 64 -36 64q-21 0 -28.5 -16.5t-7.5 -59.5v-4q0 -38 7.5 -54t28.5 -16
q36 0 36 64z" />
    <glyph glyph-name="ccedilla" unicode="&#xe7;" horiz-adv-x="320" 
d="M81 -176l15 56q14 -9 34 -9q18 0 28.5 9.5t10.5 22.5q0 30 -41 30q-6 0 -10 -1l15 62q-108 15 -108 158v263q0 82 33.5 121t103.5 39q69 0 102 -38.5t33 -121.5v-56h-100v45q0 43 -7.5 59.5t-28.5 16.5t-28.5 -16.5t-7.5 -59.5v-240q0 -43 7.5 -59.5t28.5 -16.5
t28.5 16.5t7.5 59.5v58h100v-70q0 -136 -92 -155l-12 -43q31 0 48.5 -19.5t17.5 -45.5q0 -32 -26 -55.5t-76 -23.5q-44 0 -76 14z" />
    <glyph glyph-name="egrave" unicode="&#xe8;" horiz-adv-x="327" 
d="M302 187v-35q0 -83 -33 -121.5t-102 -38.5q-70 0 -103.5 39t-33.5 121v263q0 82 33.5 121t103.5 39q69 0 102 -38.5t33 -121.5v-174h-172v-77q0 -43 7.5 -59.5t28.5 -16.5t28.5 16.5t7.5 59.5v23h100zM202 335v69q0 43 -7.5 59.5t-28.5 16.5t-28.5 -16.5t-7.5 -59.5v-69
h72zM222 637h-73l-95 131h111z" />
    <glyph glyph-name="eacute" unicode="&#xe9;" horiz-adv-x="327" 
d="M302 187v-35q0 -83 -33 -121.5t-102 -38.5q-70 0 -103.5 39t-33.5 121v263q0 82 33.5 121t103.5 39q69 0 102 -38.5t33 -121.5v-174h-172v-77q0 -43 7.5 -59.5t28.5 -16.5t28.5 16.5t7.5 59.5v23h100zM202 335v69q0 43 -7.5 59.5t-28.5 16.5t-28.5 -16.5t-7.5 -59.5v-69
h72zM185 637h-73l57 131h111z" />
    <glyph glyph-name="ecircumflex" unicode="&#xea;" horiz-adv-x="327" 
d="M302 187v-35q0 -83 -33 -121.5t-102 -38.5q-70 0 -103.5 39t-33.5 121v263q0 82 33.5 121t103.5 39q69 0 102 -38.5t33 -121.5v-174h-172v-77q0 -43 7.5 -59.5t28.5 -16.5t28.5 16.5t7.5 59.5v23h100zM202 335v69q0 43 -7.5 59.5t-28.5 16.5t-28.5 -16.5t-7.5 -59.5v-69
h72zM287 637h-78l-45 77l-40 -77h-81l75 141h90z" />
    <glyph glyph-name="edieresis" unicode="&#xeb;" horiz-adv-x="327" 
d="M302 187v-35q0 -83 -33 -121.5t-102 -38.5q-70 0 -103.5 39t-33.5 121v263q0 82 33.5 121t103.5 39q69 0 102 -38.5t33 -121.5v-174h-172v-77q0 -43 7.5 -59.5t28.5 -16.5t28.5 16.5t7.5 59.5v23h100zM202 335v69q0 43 -7.5 59.5t-28.5 16.5t-28.5 -16.5t-7.5 -59.5v-69
h72zM81 627q-24 0 -42 17.5t-18 42.5q0 24 18 41.5t42 17.5q25 0 42 -17t17 -42t-17 -42.5t-42 -17.5zM251 627q-24 0 -41.5 17.5t-17.5 42.5t17.5 42t41.5 17q25 0 42.5 -17t17.5 -42t-17.5 -42.5t-42.5 -17.5z" />
    <glyph glyph-name="igrave" unicode="&#xec;" horiz-adv-x="168" 
d="M134 0h-100v567h100v-567zM135 637h-73l-95 131h111z" />
    <glyph glyph-name="iacute" unicode="&#xed;" horiz-adv-x="168" 
d="M134 0h-100v567h100v-567zM105 637h-73l57 131h111z" />
    <glyph glyph-name="icircumflex" unicode="&#xee;" horiz-adv-x="168" 
d="M134 0h-100v567h100v-567zM206 637h-78l-45 77l-40 -77h-81l75 141h90z" />
    <glyph glyph-name="idieresis" unicode="&#xef;" horiz-adv-x="168" 
d="M134 0h-100v567h100v-567zM-1 627q-24 0 -42 17.5t-18 42.5q0 24 18 41.5t42 17.5q25 0 42 -17t17 -42t-17 -42.5t-42 -17.5zM169 627q-24 0 -41.5 17.5t-17.5 42.5t17.5 42t41.5 17q25 0 42.5 -17t17.5 -42t-17.5 -42.5t-42.5 -17.5z" />
    <glyph glyph-name="eth" unicode="&#xf0;" horiz-adv-x="335" 
d="M31 143v302q0 131 84 131q32 0 57.5 -16.5t32.5 -36.5q-1 85 -38 120l-36 -37l-25 25l31 32q-27 13 -75 25l19 80q80 -11 124 -36l41 42l25 -25l-36 -37q39 -32 53.5 -91t14.5 -160v-318q0 -151 -136 -151t-136 151zM203 143v261q0 77 -37 77q-35 0 -35 -67v-271
q0 -56 36 -56t36 56z" />
    <glyph glyph-name="ntilde" unicode="&#xf1;" 
d="M306 0h-100v404q0 43 -7.5 59.5t-28.5 16.5t-28.5 -16.5t-7.5 -59.5v-404h-100v567h86l9 -46q32 54 92 54q50 0 67.5 -36t17.5 -120v-419zM228 732h65q-2 -42 -20 -68.5t-52 -26.5q-16 0 -42.5 9.5t-40.5 9.5q-24 0 -26 -20h-65q2 42 20 68.5t52 26.5q16 0 42.5 -9.5
t40.5 -9.5q24 0 26 20z" />
    <glyph glyph-name="ograve" unicode="&#xf2;" horiz-adv-x="332" 
d="M302 415v-263q0 -83 -33 -121.5t-102 -38.5q-70 0 -103.5 39t-33.5 121v263q0 82 33.5 121t103.5 39q69 0 102 -38.5t33 -121.5zM202 164v240q0 43 -7.5 59.5t-28.5 16.5t-28.5 -16.5t-7.5 -59.5v-240q0 -43 7.5 -59.5t28.5 -16.5t28.5 16.5t7.5 59.5zM222 637h-73
l-95 131h111z" />
    <glyph glyph-name="oacute" unicode="&#xf3;" horiz-adv-x="332" 
d="M302 415v-263q0 -83 -33 -121.5t-102 -38.5q-70 0 -103.5 39t-33.5 121v263q0 82 33.5 121t103.5 39q69 0 102 -38.5t33 -121.5zM202 164v240q0 43 -7.5 59.5t-28.5 16.5t-28.5 -16.5t-7.5 -59.5v-240q0 -43 7.5 -59.5t28.5 -16.5t28.5 16.5t7.5 59.5zM185 637h-73
l57 131h111z" />
    <glyph glyph-name="ocircumflex" unicode="&#xf4;" horiz-adv-x="332" 
d="M302 415v-263q0 -83 -33 -121.5t-102 -38.5q-70 0 -103.5 39t-33.5 121v263q0 82 33.5 121t103.5 39q69 0 102 -38.5t33 -121.5zM202 164v240q0 43 -7.5 59.5t-28.5 16.5t-28.5 -16.5t-7.5 -59.5v-240q0 -43 7.5 -59.5t28.5 -16.5t28.5 16.5t7.5 59.5zM288 637h-78
l-45 77l-40 -77h-81l75 141h90z" />
    <glyph glyph-name="otilde" unicode="&#xf5;" horiz-adv-x="332" 
d="M302 415v-263q0 -83 -33 -121.5t-102 -38.5q-70 0 -103.5 39t-33.5 121v263q0 82 33.5 121t103.5 39q69 0 102 -38.5t33 -121.5zM202 164v240q0 43 -7.5 59.5t-28.5 16.5t-28.5 -16.5t-7.5 -59.5v-240q0 -43 7.5 -59.5t28.5 -16.5t28.5 16.5t7.5 59.5zM224 732h65
q-2 -42 -20 -68.5t-52 -26.5q-16 0 -42.5 9.5t-40.5 9.5q-24 0 -26 -20h-65q2 42 20 68.5t52 26.5q16 0 42.5 -9.5t40.5 -9.5q24 0 26 20z" />
    <glyph glyph-name="odieresis" unicode="&#xf6;" horiz-adv-x="332" 
d="M302 415v-263q0 -83 -33 -121.5t-102 -38.5q-70 0 -103.5 39t-33.5 121v263q0 82 33.5 121t103.5 39q69 0 102 -38.5t33 -121.5zM202 164v240q0 43 -7.5 59.5t-28.5 16.5t-28.5 -16.5t-7.5 -59.5v-240q0 -43 7.5 -59.5t28.5 -16.5t28.5 16.5t7.5 59.5zM81 627
q-24 0 -42 17.5t-18 42.5q0 24 18 41.5t42 17.5q25 0 42 -17t17 -42t-17 -42.5t-42 -17.5zM251 627q-24 0 -41.5 17.5t-17.5 42.5t17.5 42t41.5 17q25 0 42.5 -17t17.5 -42t-17.5 -42.5t-42.5 -17.5z" />
    <glyph glyph-name="divide" unicode="&#xf7;" horiz-adv-x="422" 
d="M211 130q-26 0 -44.5 18.5t-18.5 44.5t18.5 44.5t44.5 18.5t44.5 -18.5t18.5 -44.5t-18.5 -44.5t-44.5 -18.5zM211 470q-26 0 -44.5 18.5t-18.5 44.5t18.5 44.5t44.5 18.5t44.5 -18.5t18.5 -44.5t-18.5 -44.5t-44.5 -18.5zM402 316h-382v94h382v-94z" />
    <glyph glyph-name="oslash" unicode="&#xf8;" horiz-adv-x="332" 
d="M131 -53h-31l8 53q-78 28 -78 152v263q0 82 33.5 121t103.5 39q11 0 29 -2l7 43h31l-8 -50q76 -28 76 -151v-263q0 -83 -33 -121.5t-102 -38.5q-11 0 -29 2zM130 101l51 376q-6 3 -15 3q-21 0 -28.5 -16.5t-7.5 -59.5v-303zM202 164v284l-49 -358q3 -2 13 -2
q21 0 28.5 16.5t7.5 59.5z" />
    <glyph glyph-name="ugrave" unicode="&#xf9;" 
d="M305 0h-86l-9 46q-32 -54 -92 -54q-50 0 -67.5 36t-17.5 120v419h100v-404q0 -43 7.5 -59.5t28.5 -16.5t28.5 16.5t7.5 59.5v404h100v-567zM217 637h-73l-95 131h111z" />
    <glyph glyph-name="uacute" unicode="&#xfa;" 
d="M305 0h-86l-9 46q-32 -54 -92 -54q-50 0 -67.5 36t-17.5 120v419h100v-404q0 -43 7.5 -59.5t28.5 -16.5t28.5 16.5t7.5 59.5v404h100v-567zM188 637h-73l57 131h111z" />
    <glyph glyph-name="ucircumflex" unicode="&#xfb;" 
d="M305 0h-86l-9 46q-32 -54 -92 -54q-50 0 -67.5 36t-17.5 120v419h100v-404q0 -43 7.5 -59.5t28.5 -16.5t28.5 16.5t7.5 59.5v404h100v-567zM291 637h-78l-45 77l-40 -77h-81l75 141h90z" />
    <glyph glyph-name="udieresis" unicode="&#xfc;" 
d="M305 0h-86l-9 46q-32 -54 -92 -54q-50 0 -67.5 36t-17.5 120v419h100v-404q0 -43 7.5 -59.5t28.5 -16.5t28.5 16.5t7.5 59.5v404h100v-567zM85 627q-24 0 -42 17.5t-18 42.5q0 24 18 41.5t42 17.5q25 0 42 -17t17 -42t-17 -42.5t-42 -17.5zM255 627q-24 0 -41.5 17.5
t-17.5 42.5t17.5 42t41.5 17q25 0 42.5 -17t17.5 -42t-17.5 -42.5t-42.5 -17.5z" />
    <glyph glyph-name="yacute" unicode="&#xfd;" horiz-adv-x="316" 
d="M194 -200h-104l30 162l-119 605h104l57 -402l44 402h104zM177 637h-73l57 131h111z" />
    <glyph glyph-name="thorn" unicode="&#xfe;" horiz-adv-x="337" 
d="M134 -199h-100v965h100v-238q9 14 16.5 22t26.5 16.5t44 8.5q50 0 67.5 -36t17.5 -120v-271q0 -85 -18 -120.5t-68 -35.5q-55 0 -86 48v-239zM206 163v241q0 43 -7.5 59.5t-28.5 16.5t-28.5 -16.5t-7.5 -59.5v-241q0 -43 7.5 -59.5t28.5 -16.5t28.5 16.5t7.5 59.5z" />
    <glyph glyph-name="ydieresis" unicode="&#xff;" horiz-adv-x="316" 
d="M194 -200h-104l30 162l-119 605h104l57 -402l44 402h104zM71 627q-24 0 -42 17.5t-18 42.5q0 24 18 41.5t42 17.5q25 0 42 -17t17 -42t-17 -42.5t-42 -17.5zM241 627q-24 0 -41.5 17.5t-17.5 42.5t17.5 42t41.5 17q25 0 42.5 -17t17.5 -42t-17.5 -42.5t-42.5 -17.5z" />
    <glyph glyph-name="Amacron" unicode="&#x100;" horiz-adv-x="363" 
d="M360 0h-102l-20 170h-113l-20 -170h-102l103 766h150zM226 267l-45 382l-45 -382h90zM312 836h-262v81h262v-81z" />
    <glyph glyph-name="amacron" unicode="&#x101;" horiz-adv-x="331" 
d="M298 0h-86l-9 47q-9 -16 -17 -25.5t-28 -19.5t-47 -10q-20 0 -33.5 6t-26 23.5t-19 53.5t-6.5 92v16q0 82 21 116t66 34q51 0 85 -46v117q0 43 -7.5 59.5t-28.5 16.5t-28.5 -16.5t-7.5 -59.5v-18h-100v35q0 154 138 154q74 0 104 -41t30 -116v-418zM198 152v22
q0 64 -36 64q-21 0 -28.5 -16.5t-7.5 -59.5v-4q0 -38 7.5 -54t28.5 -16q36 0 36 64zM294 637h-262v81h262v-81z" />
    <glyph glyph-name="Abreve" unicode="&#x102;" horiz-adv-x="363" 
d="M360 0h-102l-20 170h-113l-20 -170h-102l103 766h150zM226 267l-45 382l-45 -382h90zM242 949h56q-3 -124 -117 -124q-115 0 -117 124h56q2 -53 61 -53q57 0 61 53z" />
    <glyph glyph-name="abreve" unicode="&#x103;" horiz-adv-x="331" 
d="M298 0h-86l-9 47q-9 -16 -17 -25.5t-28 -19.5t-47 -10q-20 0 -33.5 6t-26 23.5t-19 53.5t-6.5 92v16q0 82 21 116t66 34q51 0 85 -46v117q0 43 -7.5 59.5t-28.5 16.5t-28.5 -16.5t-7.5 -59.5v-18h-100v35q0 154 138 154q74 0 104 -41t30 -116v-418zM198 152v22
q0 64 -36 64q-21 0 -28.5 -16.5t-7.5 -59.5v-4q0 -38 7.5 -54t28.5 -16q36 0 36 64zM225 750h56q-3 -124 -117 -124q-115 0 -117 124h56q2 -53 61 -53q57 0 61 53z" />
    <glyph glyph-name="Aogonek" unicode="&#x104;" horiz-adv-x="363" 
d="M372 -156l-35 -52q-56 3 -91 35t-35 75q0 52 48 87l-22 181h-112l-20 -170h-102l103 766h150l104 -766q-60 -37 -60 -86q0 -24 18.5 -43t53.5 -27zM226 267l-45 382l-45 -382h90z" />
    <glyph glyph-name="aogonek" unicode="&#x105;" horiz-adv-x="331" 
d="M312 -156l-35 -52q-56 3 -91 35t-35 75q0 61 62 97l-10 48q-9 -16 -17 -25.5t-28 -19.5t-47 -10q-20 0 -33.5 6t-26 23.5t-19 53.5t-6.5 92v16q0 82 21 116t66 34q51 0 85 -46v117q0 43 -7.5 59.5t-28.5 16.5t-28.5 -16.5t-7.5 -59.5v-18h-100v35q0 154 138 154
q74 0 104 -41t30 -116v-418q-58 -38 -58 -86q0 -24 18.5 -43t53.5 -27zM198 152v22q0 64 -36 64q-21 0 -28.5 -16.5t-7.5 -59.5v-4q0 -38 7.5 -54t28.5 -16q36 0 36 64z" />
    <glyph glyph-name="Cacute" unicode="&#x106;" horiz-adv-x="377" 
d="M351 256v-109q0 -81 -44 -120.5t-113 -39.5q-70 0 -114.5 40t-44.5 120v472q0 81 45 120.5t117 39.5q67 0 110.5 -36.5t43.5 -116.5v-127h-102v107q0 39 -16 57.5t-40 18.5t-40 -18.5t-16 -57.5v-446q0 -39 16 -57.5t40 -18.5t40 18.5t16 57.5v96h102zM211 836h-73
l57 131h111z" />
    <glyph glyph-name="cacute" unicode="&#x107;" horiz-adv-x="325" 
d="M302 222v-70q0 -83 -33 -121.5t-102 -38.5q-70 0 -103.5 39t-33.5 121v263q0 82 33.5 121t103.5 39q69 0 102 -38.5t33 -121.5v-56h-100v45q0 43 -7.5 59.5t-28.5 16.5t-28.5 -16.5t-7.5 -59.5v-240q0 -43 7.5 -59.5t28.5 -16.5t28.5 16.5t7.5 59.5v58h100zM182 637h-73
l57 131h111z" />
    <glyph glyph-name="Ccircumflex" unicode="&#x108;" horiz-adv-x="377" 
d="M351 256v-109q0 -81 -44 -120.5t-113 -39.5q-70 0 -114.5 40t-44.5 120v472q0 81 45 120.5t117 39.5q67 0 110.5 -36.5t43.5 -116.5v-127h-102v107q0 39 -16 57.5t-40 18.5t-40 -18.5t-16 -57.5v-446q0 -39 16 -57.5t40 -18.5t40 18.5t16 57.5v96h102zM315 836h-78
l-45 77l-40 -77h-81l75 141h90z" />
    <glyph glyph-name="ccircumflex" unicode="&#x109;" horiz-adv-x="325" 
d="M302 222v-70q0 -83 -33 -121.5t-102 -38.5q-70 0 -103.5 39t-33.5 121v263q0 82 33.5 121t103.5 39q69 0 102 -38.5t33 -121.5v-56h-100v45q0 43 -7.5 59.5t-28.5 16.5t-28.5 -16.5t-7.5 -59.5v-240q0 -43 7.5 -59.5t28.5 -16.5t28.5 16.5t7.5 59.5v58h100zM287 637h-78
l-45 77l-40 -77h-81l75 141h90z" />
    <glyph glyph-name="Cdotaccent" unicode="&#x10a;" horiz-adv-x="377" 
d="M351 256v-109q0 -81 -44 -120.5t-113 -39.5q-70 0 -114.5 40t-44.5 120v472q0 81 45 120.5t117 39.5q67 0 110.5 -36.5t43.5 -116.5v-127h-102v107q0 39 -16 57.5t-40 18.5t-40 -18.5t-16 -57.5v-446q0 -39 16 -57.5t40 -18.5t40 18.5t16 57.5v96h102zM193 831
q-24 0 -42 17.5t-18 42.5q0 24 18 41.5t42 17.5q25 0 42 -17t17 -42t-17 -42.5t-42 -17.5z" />
    <glyph glyph-name="cdotaccent" unicode="&#x10b;" horiz-adv-x="325" 
d="M302 222v-70q0 -83 -33 -121.5t-102 -38.5q-70 0 -103.5 39t-33.5 121v263q0 82 33.5 121t103.5 39q69 0 102 -38.5t33 -121.5v-56h-100v45q0 43 -7.5 59.5t-28.5 16.5t-28.5 -16.5t-7.5 -59.5v-240q0 -43 7.5 -59.5t28.5 -16.5t28.5 16.5t7.5 59.5v58h100zM166 632
q-24 0 -42 17.5t-18 42.5q0 24 18 41.5t42 17.5q25 0 42 -17t17 -42t-17 -42.5t-42 -17.5z" />
    <glyph glyph-name="Ccaron" unicode="&#x10c;" horiz-adv-x="377" 
d="M351 256v-109q0 -81 -44 -120.5t-113 -39.5q-70 0 -114.5 40t-44.5 120v472q0 81 45 120.5t117 39.5q67 0 110.5 -36.5t43.5 -116.5v-127h-102v107q0 39 -16 57.5t-40 18.5t-40 -18.5t-16 -57.5v-446q0 -39 16 -57.5t40 -18.5t40 18.5t16 57.5v96h102zM239 836h-90
l-79 141h78l45 -77l40 77h81z" />
    <glyph glyph-name="ccaron" unicode="&#x10d;" horiz-adv-x="325" 
d="M302 222v-70q0 -83 -33 -121.5t-102 -38.5q-70 0 -103.5 39t-33.5 121v263q0 82 33.5 121t103.5 39q69 0 102 -38.5t33 -121.5v-56h-100v45q0 43 -7.5 59.5t-28.5 16.5t-28.5 -16.5t-7.5 -59.5v-240q0 -43 7.5 -59.5t28.5 -16.5t28.5 16.5t7.5 59.5v58h100zM212 637h-90
l-79 141h78l45 -77l40 77h81z" />
    <glyph glyph-name="Dcaron" unicode="&#x10e;" horiz-adv-x="386" 
d="M212 0h-172v766h172q62 0 100.5 -39t38.5 -121v-446q0 -82 -38.5 -121t-100.5 -39zM249 173v420q0 41 -13.5 58.5t-42.5 17.5h-51v-572h51q29 0 42.5 17.5t13.5 58.5zM231 836h-90l-79 141h78l45 -77l40 77h81z" />
    <glyph glyph-name="dcaron" unicode="&#x10f;" horiz-adv-x="398" 
d="M397 538h-74l35 228h113zM303 0h-86l-9 46q-32 -54 -92 -54q-50 0 -67.5 36t-17.5 120v271q0 85 17.5 120.5t68.5 35.5q55 0 86 -48v239h100v-766zM203 163v241q0 43 -7.5 59.5t-28.5 16.5t-28.5 -16.5t-7.5 -59.5v-241q0 -43 7.5 -59.5t28.5 -16.5t28.5 16.5t7.5 59.5z
" />
    <glyph glyph-name="Dcroat" unicode="&#x110;" horiz-adv-x="388" 
d="M214 0h-172v339h-43v95h43v332h172q62 0 100.5 -39t38.5 -121v-446q0 -82 -38.5 -121t-100.5 -39zM251 173v420q0 41 -13.5 58.5t-42.5 17.5h-51v-235h54v-95h-54v-242h51q29 0 42.5 17.5t13.5 58.5z" />
    <glyph glyph-name="dcroat" unicode="&#x111;" horiz-adv-x="337" 
d="M303 0h-86l-9 46q-32 -54 -92 -54q-50 0 -67.5 36t-17.5 120v271q0 85 17.5 120.5t68.5 35.5q55 0 86 -48v115h-115v71h115v53h100v-53h34v-71h-34v-642zM203 163v241q0 43 -7.5 59.5t-28.5 16.5t-28.5 -16.5t-7.5 -59.5v-241q0 -43 7.5 -59.5t28.5 -16.5t28.5 16.5
t7.5 59.5z" />
    <glyph glyph-name="Emacron" unicode="&#x112;" horiz-adv-x="341" 
d="M314 0h-274v766h274v-97h-172v-234h165v-97h-165v-241h172v-97zM305 836h-262v81h262v-81z" />
    <glyph glyph-name="emacron" unicode="&#x113;" horiz-adv-x="327" 
d="M302 187v-35q0 -83 -33 -121.5t-102 -38.5q-70 0 -103.5 39t-33.5 121v263q0 82 33.5 121t103.5 39q69 0 102 -38.5t33 -121.5v-174h-172v-77q0 -43 7.5 -59.5t28.5 -16.5t28.5 16.5t7.5 59.5v23h100zM202 335v69q0 43 -7.5 59.5t-28.5 16.5t-28.5 -16.5t-7.5 -59.5v-69
h72zM296 637h-262v81h262v-81z" />
    <glyph glyph-name="Ebreve" unicode="&#x114;" horiz-adv-x="341" 
d="M314 0h-274v766h274v-97h-172v-234h165v-97h-165v-241h172v-97zM240 949h56q-3 -124 -117 -124q-115 0 -117 124h56q2 -53 61 -53q57 0 61 53z" />
    <glyph glyph-name="ebreve" unicode="&#x115;" horiz-adv-x="327" 
d="M302 187v-35q0 -83 -33 -121.5t-102 -38.5q-70 0 -103.5 39t-33.5 121v263q0 82 33.5 121t103.5 39q69 0 102 -38.5t33 -121.5v-174h-172v-77q0 -43 7.5 -59.5t28.5 -16.5t28.5 16.5t7.5 59.5v23h100zM202 335v69q0 43 -7.5 59.5t-28.5 16.5t-28.5 -16.5t-7.5 -59.5v-69
h72zM226 750h56q-3 -124 -117 -124q-115 0 -117 124h56q2 -53 61 -53q57 0 61 53z" />
    <glyph glyph-name="Edotaccent" unicode="&#x116;" horiz-adv-x="341" 
d="M314 0h-274v766h274v-97h-172v-234h165v-97h-165v-241h172v-97zM182 831q-24 0 -42 17.5t-18 42.5q0 24 18 41.5t42 17.5q25 0 42 -17t17 -42t-17 -42.5t-42 -17.5z" />
    <glyph glyph-name="edotaccent" unicode="&#x117;" horiz-adv-x="327" 
d="M302 187v-35q0 -83 -33 -121.5t-102 -38.5q-70 0 -103.5 39t-33.5 121v263q0 82 33.5 121t103.5 39q69 0 102 -38.5t33 -121.5v-174h-172v-77q0 -43 7.5 -59.5t28.5 -16.5t28.5 16.5t7.5 59.5v23h100zM202 335v69q0 43 -7.5 59.5t-28.5 16.5t-28.5 -16.5t-7.5 -59.5v-69
h72zM166 632q-24 0 -42 17.5t-18 42.5q0 24 18 41.5t42 17.5q25 0 42 -17t17 -42t-17 -42.5t-42 -17.5z" />
    <glyph glyph-name="Eogonek" unicode="&#x118;" horiz-adv-x="341" 
d="M295 -156l-35 -52q-56 3 -91 35t-35 75q0 62 65 98h-159v766h274v-97h-172v-234h165v-97h-165v-241h172v-97h-33q-58 -38 -58 -86q0 -24 18.5 -43t53.5 -27z" />
    <glyph glyph-name="eogonek" unicode="&#x119;" horiz-adv-x="327" 
d="M259 -146l-35 -52q-56 3 -91 35t-35 75q0 47 41 82q-109 13 -109 158v263q0 82 33.5 121t103.5 39q69 0 102 -38.5t33 -121.5v-174h-172v-77q0 -43 7.5 -59.5t28.5 -16.5t28.5 16.5t7.5 59.5v23h100v-35q0 -106 -57 -142q-58 -38 -58 -86q0 -24 18.5 -43t53.5 -27z
M202 335v69q0 43 -7.5 59.5t-28.5 16.5t-28.5 -16.5t-7.5 -59.5v-69h72z" />
    <glyph glyph-name="Ecaron" unicode="&#x11a;" horiz-adv-x="341" 
d="M314 0h-274v766h274v-97h-172v-234h165v-97h-165v-241h172v-97zM226 836h-90l-79 141h78l45 -77l40 77h81z" />
    <glyph glyph-name="ecaron" unicode="&#x11b;" horiz-adv-x="327" 
d="M302 187v-35q0 -83 -33 -121.5t-102 -38.5q-70 0 -103.5 39t-33.5 121v263q0 82 33.5 121t103.5 39q69 0 102 -38.5t33 -121.5v-174h-172v-77q0 -43 7.5 -59.5t28.5 -16.5t28.5 16.5t7.5 59.5v23h100zM202 335v69q0 43 -7.5 59.5t-28.5 16.5t-28.5 -16.5t-7.5 -59.5v-69
h72zM212 637h-90l-79 141h78l45 -77l40 77h81z" />
    <glyph glyph-name="Gcircumflex" unicode="&#x11c;" horiz-adv-x="390" 
d="M259 160v135h-68v97h170v-245q0 -82 -45 -121t-117 -39q-73 0 -118.5 39.5t-45.5 120.5v472q0 81 44.5 120.5t119.5 39.5t118.5 -39.5t43.5 -120.5v-119h-102v106q0 76 -61 76t-61 -76v-446q0 -76 61 -76t61 76zM320 836h-78l-45 77l-40 -77h-81l75 141h90z" />
    <glyph glyph-name="gcircumflex" unicode="&#x11d;" horiz-adv-x="334" 
d="M302 -4v-48q0 -150 -142 -150q-73 0 -106.5 38.5t-33.5 121.5v50q0 74 31 117q-1 2 -4 7t-4.5 8t-3 9t-1.5 13q0 30 39 64q-47 40 -47 125v64q0 83 33.5 121.5t105.5 38.5q45 0 71 -17h92v-57l-47 2q17 -26 17 -78v-67q0 -83 -33.5 -120t-106.5 -37q-19 0 -27 2
q-12 -11 -12 -18q0 -18 52 -18q69 -1 98 -42.5t29 -128.5zM202 372v32q0 43 -7.5 59.5t-28.5 16.5t-28.5 -16.5t-7.5 -59.5v-32q0 -43 7.5 -59.5t28.5 -16.5t28.5 16.5t7.5 59.5zM202 -39v25q0 52 -7 69t-34 17q-23 0 -32 -13.5t-9 -52.5v-37q0 -43 10 -59.5t33 -16.5
q21 0 30 14.5t9 53.5zM290 637h-78l-45 77l-40 -77h-81l75 141h90z" />
    <glyph glyph-name="Gbreve" unicode="&#x11e;" horiz-adv-x="390" 
d="M259 160v135h-68v97h170v-245q0 -82 -45 -121t-117 -39q-73 0 -118.5 39.5t-45.5 120.5v472q0 81 44.5 120.5t119.5 39.5t118.5 -39.5t43.5 -120.5v-119h-102v106q0 76 -61 76t-61 -76v-446q0 -76 61 -76t61 76zM259 949h56q-3 -124 -117 -124q-115 0 -117 124h56
q2 -53 61 -53q57 0 61 53z" />
    <glyph glyph-name="gbreve" unicode="&#x11f;" horiz-adv-x="334" 
d="M302 -4v-48q0 -150 -142 -150q-73 0 -106.5 38.5t-33.5 121.5v50q0 74 31 117q-1 2 -4 7t-4.5 8t-3 9t-1.5 13q0 30 39 64q-47 40 -47 125v64q0 83 33.5 121.5t105.5 38.5q45 0 71 -17h92v-57l-47 2q17 -26 17 -78v-67q0 -83 -33.5 -120t-106.5 -37q-19 0 -27 2
q-12 -11 -12 -18q0 -18 52 -18q69 -1 98 -42.5t29 -128.5zM202 372v32q0 43 -7.5 59.5t-28.5 16.5t-28.5 -16.5t-7.5 -59.5v-32q0 -43 7.5 -59.5t28.5 -16.5t28.5 16.5t7.5 59.5zM202 -39v25q0 52 -7 69t-34 17q-23 0 -32 -13.5t-9 -52.5v-37q0 -43 10 -59.5t33 -16.5
q21 0 30 14.5t9 53.5zM230 750h56q-3 -124 -117 -124q-115 0 -117 124h56q2 -53 61 -53q57 0 61 53z" />
    <glyph glyph-name="Gdotaccent" unicode="&#x120;" horiz-adv-x="390" 
d="M259 160v135h-68v97h170v-245q0 -82 -45 -121t-117 -39q-73 0 -118.5 39.5t-45.5 120.5v472q0 81 44.5 120.5t119.5 39.5t118.5 -39.5t43.5 -120.5v-119h-102v106q0 76 -61 76t-61 -76v-446q0 -76 61 -76t61 76zM198 831q-24 0 -42 17.5t-18 42.5q0 24 18 41.5t42 17.5
q25 0 42 -17t17 -42t-17 -42.5t-42 -17.5z" />
    <glyph glyph-name="gdotaccent" unicode="&#x121;" horiz-adv-x="334" 
d="M302 -4v-48q0 -150 -142 -150q-73 0 -106.5 38.5t-33.5 121.5v50q0 74 31 117q-1 2 -4 7t-4.5 8t-3 9t-1.5 13q0 30 39 64q-47 40 -47 125v64q0 83 33.5 121.5t105.5 38.5q45 0 71 -17h92v-57l-47 2q17 -26 17 -78v-67q0 -83 -33.5 -120t-106.5 -37q-19 0 -27 2
q-12 -11 -12 -18q0 -18 52 -18q69 -1 98 -42.5t29 -128.5zM202 372v32q0 43 -7.5 59.5t-28.5 16.5t-28.5 -16.5t-7.5 -59.5v-32q0 -43 7.5 -59.5t28.5 -16.5t28.5 16.5t7.5 59.5zM202 -39v25q0 52 -7 69t-34 17q-23 0 -32 -13.5t-9 -52.5v-37q0 -43 10 -59.5t33 -16.5
q21 0 30 14.5t9 53.5zM169 632q-24 0 -42 17.5t-18 42.5q0 24 18 41.5t42 17.5q25 0 42 -17t17 -42t-17 -42.5t-42 -17.5z" />
    <glyph glyph-name="Gcommaaccent" unicode="&#x122;" horiz-adv-x="390" 
d="M259 160v135h-68v97h170v-245q0 -82 -45 -121t-117 -39q-73 0 -118.5 39.5t-45.5 120.5v472q0 81 44.5 120.5t119.5 39.5t118.5 -39.5t43.5 -120.5v-119h-102v106q0 76 -61 76t-61 -76v-446q0 -76 61 -76t61 76zM193 -206h-76l53 156h106z" />
    <glyph glyph-name="gcommaaccent" unicode="&#x123;" horiz-adv-x="334" 
d="M302 -4v-48q0 -150 -142 -150q-73 0 -106.5 38.5t-33.5 121.5v50q0 74 31 117q-1 2 -4 7t-4.5 8t-3 9t-1.5 13q0 30 39 64q-47 40 -47 125v64q0 83 33.5 121.5t105.5 38.5q45 0 71 -17h92v-57l-47 2q17 -26 17 -78v-67q0 -83 -33.5 -120t-106.5 -37q-19 0 -27 2
q-12 -11 -12 -18q0 -18 52 -18q69 -1 98 -42.5t29 -128.5zM202 372v32q0 43 -7.5 59.5t-28.5 16.5t-28.5 -16.5t-7.5 -59.5v-32q0 -43 7.5 -59.5t28.5 -16.5t28.5 16.5t7.5 59.5zM202 -39v25q0 52 -7 69t-34 17q-23 0 -32 -13.5t-9 -52.5v-37q0 -43 10 -59.5t33 -16.5
q21 0 30 14.5t9 53.5zM192 793h76l-53 -156h-106z" />
    <glyph glyph-name="Hcircumflex" unicode="&#x124;" horiz-adv-x="396" 
d="M356 0h-102v338h-112v-338h-102v766h102v-331h112v331h102v-766zM320 836h-78l-45 77l-40 -77h-81l75 141h90z" />
    <glyph glyph-name="hcircumflex" unicode="&#x125;" 
d="M306 0h-100v404q0 43 -7.5 59.5t-28.5 16.5t-28.5 -16.5t-7.5 -59.5v-404h-100v766h100v-239q31 48 86 48q50 0 68 -35.5t18 -120.5v-419zM207 818h-78l-45 77l-40 -77h-81l75 141h90z" />
    <glyph glyph-name="Hbar" unicode="&#x126;" horiz-adv-x="398" 
d="M357 0h-102v338h-112v-338h-102v576h-40v81h40v109h102v-109h112v109h102v-109h40v-81h-40v-576zM255 435v141h-112v-141h112z" />
    <glyph glyph-name="hbar" unicode="&#x127;" 
d="M306 0h-100v404q0 43 -7.5 59.5t-28.5 16.5t-28.5 -16.5t-7.5 -59.5v-404h-100v642h-34v71h34v53h100v-53h115v-71h-115v-115q31 48 86 48q50 0 68 -35.5t18 -120.5v-419z" />
    <glyph glyph-name="Itilde" unicode="&#x128;" horiz-adv-x="182" 
d="M142 0h-102v766h102v-766zM149 931h65q-2 -42 -20 -68.5t-52 -26.5q-16 0 -42.5 9.5t-40.5 9.5q-24 0 -26 -20h-65q2 42 20 68.5t52 26.5q16 0 42.5 -9.5t40.5 -9.5q24 0 26 20z" />
    <glyph glyph-name="itilde" unicode="&#x129;" horiz-adv-x="168" 
d="M134 0h-100v567h100v-567zM142 732h65q-2 -42 -20 -68.5t-52 -26.5q-16 0 -42.5 9.5t-40.5 9.5q-24 0 -26 -20h-65q2 42 20 68.5t52 26.5q16 0 42.5 -9.5t40.5 -9.5q24 0 26 20z" />
    <glyph glyph-name="Imacron" unicode="&#x12a;" horiz-adv-x="182" 
d="M142 0h-102v766h102v-766zM222 836h-262v81h262v-81z" />
    <glyph glyph-name="imacron" unicode="&#x12b;" horiz-adv-x="168" 
d="M134 0h-100v567h100v-567zM215 637h-262v81h262v-81z" />
    <glyph glyph-name="Ibreve" unicode="&#x12c;" horiz-adv-x="182" 
d="M142 0h-102v766h102v-766zM152 949h56q-3 -124 -117 -124q-115 0 -117 124h56q2 -53 61 -53q57 0 61 53z" />
    <glyph glyph-name="ibreve" unicode="&#x12d;" horiz-adv-x="168" 
d="M134 0h-100v567h100v-567zM145 750h56q-3 -124 -117 -124q-115 0 -117 124h56q2 -53 61 -53q57 0 61 53z" />
    <glyph glyph-name="Iogonek" unicode="&#x12e;" horiz-adv-x="182" 
d="M156 -156l-35 -52q-56 3 -91 35t-35 75q0 50 45 85v779h102v-766q-58 -38 -58 -86q0 -24 18.5 -43t53.5 -27z" />
    <glyph glyph-name="iogonek" unicode="&#x12f;" horiz-adv-x="168" 
d="M147 -156l-35 -52q-56 3 -91 35t-35 75q0 52 48 87v578h100v-567q-59 -38 -59 -86q0 -24 18.5 -43t53.5 -27zM84 625q-26 0 -44.5 18.5t-18.5 44.5t18.5 44.5t44.5 18.5t44.5 -18.5t18.5 -44.5t-18.5 -44.5t-44.5 -18.5z" />
    <glyph glyph-name="Idotaccent" unicode="&#x130;" horiz-adv-x="182" 
d="M142 0h-102v766h102v-766zM91 831q-24 0 -42 17.5t-18 42.5q0 24 18 41.5t42 17.5q25 0 42 -17t17 -42t-17 -42.5t-42 -17.5z" />
    <glyph glyph-name="dotlessi" unicode="&#x131;" horiz-adv-x="168" 
d="M134 0h-100v567h100v-567z" />
    <glyph glyph-name="IJ" unicode="&#x132;" horiz-adv-x="364" 
d="M142 0h-102v766h102v-766zM166 -192h-3v97h3q24 0 40 18.5t16 57.5v785h102v-798q0 -81 -44.5 -120.5t-113.5 -39.5z" />
    <glyph glyph-name="ij" unicode="&#x133;" horiz-adv-x="336" 
d="M134 0h-100v567h100v-567zM84 625q-26 0 -44.5 18.5t-18.5 44.5t18.5 44.5t44.5 18.5t44.5 -18.5t18.5 -44.5t-18.5 -44.5t-44.5 -18.5zM136 -203v80q7 -1 16 -1q30 0 40 18t10 59v614h100v-625q0 -81 -28 -115.5t-94 -34.5q-22 0 -44 5zM252 625q-26 0 -44.5 18.5
t-18.5 44.5t18.5 44.5t44.5 18.5t44.5 -18.5t18.5 -44.5t-18.5 -44.5t-44.5 -18.5z" />
    <glyph glyph-name="Jcircumflex" unicode="&#x134;" horiz-adv-x="182" 
d="M-16 -192h-3v97h3q24 0 40 18.5t16 57.5v785h102v-798q0 -81 -44.5 -120.5t-113.5 -39.5zM213 836h-78l-45 77l-40 -77h-81l75 141h90z" />
    <glyph glyph-name="jcircumflex" unicode="&#x135;" horiz-adv-x="168" 
d="M-32 -203v80q7 -1 16 -1q30 0 40 18t10 59v614h100v-625q0 -81 -28 -115.5t-94 -34.5q-22 0 -44 5zM206 637h-78l-45 77l-40 -77h-81l75 141h90z" />
    <glyph glyph-name="Kcommaaccent" unicode="&#x136;" horiz-adv-x="377" 
d="M386 0h-102l-141 383l122 383h102l-116 -380zM142 0h-102v766h102v-766zM193 -206h-76l53 156h106z" />
    <glyph glyph-name="kcommaaccent" unicode="&#x137;" 
d="M338 0h-101l-102 290l102 277h102l-98 -274zM134 0h-100v766h100v-766zM172 -206h-76l53 156h106z" />
    <glyph glyph-name="kgreenlandic" unicode="&#x138;" 
d="M338 0h-101l-102 290l102 277h102l-98 -274zM134 0h-100v567h100v-567z" />
    <glyph glyph-name="Lacute" unicode="&#x139;" horiz-adv-x="271" 
d="M264 0h-224v766h102v-669h122v-97zM122 836h-73l57 131h111z" />
    <glyph glyph-name="lacute" unicode="&#x13a;" horiz-adv-x="170" 
d="M135 0h-100v766h100v-766zM113 837h-73l57 131h111z" />
    <glyph glyph-name="Lcommaaccent" unicode="&#x13b;" horiz-adv-x="271" 
d="M264 0h-224v766h102v-669h122v-97zM140 -206h-76l53 156h106z" />
    <glyph glyph-name="lcommaaccent" unicode="&#x13c;" horiz-adv-x="170" 
d="M135 0h-100v766h100v-766zM82 -206h-76l53 156h106z" />
    <glyph glyph-name="Lcaron" unicode="&#x13d;" horiz-adv-x="329" 
d="M262 538h-74l35 228h113zM264 0h-224v766h102v-669h122v-97z" />
    <glyph glyph-name="lcaron" unicode="&#x13e;" horiz-adv-x="230" 
d="M229 538h-74l35 228h113zM135 0h-100v766h100v-766z" />
    <glyph glyph-name="Ldot" unicode="&#x13f;" horiz-adv-x="317" 
d="M264 0h-224v766h102v-669h122v-97zM246 301q-26 0 -44.5 18.5t-18.5 44.5t18.5 44.5t44.5 18.5t44.5 -18.5t18.5 -44.5t-18.5 -44.5t-44.5 -18.5z" />
    <glyph glyph-name="ldot" unicode="&#x140;" horiz-adv-x="276" 
d="M135 0h-100v766h100v-766zM223 261q-26 0 -44.5 18.5t-18.5 44.5t18.5 44.5t44.5 18.5t44.5 -18.5t18.5 -44.5t-18.5 -44.5t-44.5 -18.5z" />
    <glyph glyph-name="Lslash" unicode="&#x141;" horiz-adv-x="309" 
d="M302 0h-224v250l-40 -23l-45 80l85 47v412h102v-355l58 33l43 -80l-101 -57v-210h122v-97z" />
    <glyph glyph-name="lslash" unicode="&#x142;" horiz-adv-x="248" 
d="M174 0h-100v256l-32 -18l-45 80l77 42v406h100v-351l34 19l43 -80l-77 -43v-311z" />
    <glyph glyph-name="Nacute" unicode="&#x143;" horiz-adv-x="448" 
d="M408 0h-133l-135 511l2 -511h-102v766h128l140 -520l-2 520h102v-766zM263 836h-73l57 131h111z" />
    <glyph glyph-name="nacute" unicode="&#x144;" 
d="M306 0h-100v404q0 43 -7.5 59.5t-28.5 16.5t-28.5 -16.5t-7.5 -59.5v-404h-100v567h86l9 -46q32 54 92 54q50 0 67.5 -36t17.5 -120v-419zM185 637h-73l57 131h111z" />
    <glyph glyph-name="Ncommaaccent" unicode="&#x145;" horiz-adv-x="448" 
d="M408 0h-133l-135 511l2 -511h-102v766h128l140 -520l-2 520h102v-766zM220 -206h-76l53 156h106z" />
    <glyph glyph-name="ncommaaccent" unicode="&#x146;" 
d="M306 0h-100v404q0 43 -7.5 59.5t-28.5 16.5t-28.5 -16.5t-7.5 -59.5v-404h-100v567h86l9 -46q32 54 92 54q50 0 67.5 -36t17.5 -120v-419zM165 -206h-76l53 156h106z" />
    <glyph glyph-name="Ncaron" unicode="&#x147;" horiz-adv-x="448" 
d="M408 0h-133l-135 511l2 -511h-102v766h128l140 -520l-2 520h102v-766zM280 836h-90l-79 141h78l45 -77l40 77h81z" />
    <glyph glyph-name="ncaron" unicode="&#x148;" 
d="M306 0h-100v404q0 43 -7.5 59.5t-28.5 16.5t-28.5 -16.5t-7.5 -59.5v-404h-100v567h86l9 -46q32 54 92 54q50 0 67.5 -36t17.5 -120v-419zM215 637h-90l-79 141h78l45 -77l40 77h81z" />
    <glyph glyph-name="Eng" unicode="&#x14a;" horiz-adv-x="448" 
d="M250 -199h-3v97h3q24 0 40 18.5t16 57.5v35l-166 502l2 -511h-102v766h128l140 -471l-2 471h102v-805q0 -81 -44.5 -120.5t-113.5 -39.5z" />
    <glyph glyph-name="eng" unicode="&#x14b;" 
d="M140 -203v70q7 -1 16 -1q30 0 40 18t10 59v461q0 43 -7.5 59.5t-28.5 16.5t-28.5 -16.5t-7.5 -59.5v-404h-100v567h86l9 -46q32 54 92 54q50 0 67.5 -36t17.5 -120v-477q0 -81 -28 -115.5t-94 -34.5q-22 0 -44 5z" />
    <glyph glyph-name="Omacron" unicode="&#x14c;" horiz-adv-x="386" 
d="M35 147v472q0 81 44.5 120.5t119.5 39.5q152 0 152 -160v-472q0 -81 -44 -120.5t-113 -39.5q-70 0 -114.5 40t-44.5 120zM249 160v446q0 39 -16 57.5t-40 18.5t-40 -18.5t-16 -57.5v-446q0 -39 16 -57.5t40 -18.5t40 18.5t16 57.5zM324 836h-262v81h262v-81z" />
    <glyph glyph-name="omacron" unicode="&#x14d;" horiz-adv-x="332" 
d="M302 415v-263q0 -83 -33 -121.5t-102 -38.5q-70 0 -103.5 39t-33.5 121v263q0 82 33.5 121t103.5 39q69 0 102 -38.5t33 -121.5zM202 164v240q0 43 -7.5 59.5t-28.5 16.5t-28.5 -16.5t-7.5 -59.5v-240q0 -43 7.5 -59.5t28.5 -16.5t28.5 16.5t7.5 59.5zM297 637h-262v81
h262v-81z" />
    <glyph glyph-name="Obreve" unicode="&#x14e;" horiz-adv-x="386" 
d="M35 147v472q0 81 44.5 120.5t119.5 39.5q152 0 152 -160v-472q0 -81 -44 -120.5t-113 -39.5q-70 0 -114.5 40t-44.5 120zM249 160v446q0 39 -16 57.5t-40 18.5t-40 -18.5t-16 -57.5v-446q0 -39 16 -57.5t40 -18.5t40 18.5t16 57.5zM254 949h56q-3 -124 -117 -124
q-115 0 -117 124h56q2 -53 61 -53q57 0 61 53z" />
    <glyph glyph-name="obreve" unicode="&#x14f;" horiz-adv-x="332" 
d="M302 415v-263q0 -83 -33 -121.5t-102 -38.5q-70 0 -103.5 39t-33.5 121v263q0 82 33.5 121t103.5 39q69 0 102 -38.5t33 -121.5zM202 164v240q0 43 -7.5 59.5t-28.5 16.5t-28.5 -16.5t-7.5 -59.5v-240q0 -43 7.5 -59.5t28.5 -16.5t28.5 16.5t7.5 59.5zM227 750h56
q-3 -124 -117 -124q-115 0 -117 124h56q2 -53 61 -53q57 0 61 53z" />
    <glyph glyph-name="Ohungarumlaut" unicode="&#x150;" horiz-adv-x="386" 
d="M35 147v472q0 81 44.5 120.5t119.5 39.5q152 0 152 -160v-472q0 -81 -44 -120.5t-113 -39.5q-70 0 -114.5 40t-44.5 120zM249 160v446q0 39 -16 57.5t-40 18.5t-40 -18.5t-16 -57.5v-446q0 -39 16 -57.5t40 -18.5t40 18.5t16 57.5zM155 836h-83l44 135h101zM292 836h-83
l44 135h101z" />
    <glyph glyph-name="ohungarumlaut" unicode="&#x151;" horiz-adv-x="332" 
d="M302 415v-263q0 -83 -33 -121.5t-102 -38.5q-70 0 -103.5 39t-33.5 121v263q0 82 33.5 121t103.5 39q69 0 102 -38.5t33 -121.5zM202 164v240q0 43 -7.5 59.5t-28.5 16.5t-28.5 -16.5t-7.5 -59.5v-240q0 -43 7.5 -59.5t28.5 -16.5t28.5 16.5t7.5 59.5zM126 637h-83
l44 135h101zM263 637h-83l44 135h101z" />
    <glyph glyph-name="OE" unicode="&#x152;" horiz-adv-x="550" 
d="M523 0h-258q-30 -13 -71 -13q-70 0 -114.5 40t-44.5 120v472q0 81 44.5 120.5t119.5 39.5q39 0 73 -13h251v-97h-172v-234h165v-97h-165v-241h172v-97zM249 152v454q0 39 -16 57.5t-40 18.5t-40 -18.5t-16 -57.5v-446q0 -39 16 -57.5t40 -18.5q22 0 38 16.5t18 51.5z" />
    <glyph glyph-name="oe" unicode="&#x153;" horiz-adv-x="499" 
d="M474 187v-35q0 -83 -32.5 -121.5t-101.5 -38.5q-59 0 -88 33q-28 -33 -86 -33q-70 0 -103 39.5t-33 120.5v263q0 81 33 120.5t103 39.5q58 0 86 -33q29 33 88 33q69 0 101.5 -38.5t32.5 -121.5v-174h-172v-89q0 -35 8 -49.5t28 -14.5q21 0 28.5 16.5t7.5 59.5v23h100z
M202 152v264q0 35 -8 49.5t-28 14.5q-21 0 -28.5 -16.5t-7.5 -59.5v-240q0 -43 7.5 -59.5t28.5 -16.5q19 0 27 14.5t9 49.5zM374 335v69q0 43 -7.5 59.5t-28.5 16.5q-20 0 -28 -15t-8 -50v-80h72z" />
    <glyph glyph-name="Racute" unicode="&#x154;" horiz-adv-x="376" 
d="M371 0h-102l-88 315h-39v-315h-102v766h170q62 0 101.5 -39t39.5 -121v-123q0 -60 -16.5 -94t-57.5 -52zM249 488v105q0 41 -13.5 58.5t-42.5 17.5h-51v-257h51q29 0 42.5 17.5t13.5 58.5zM204 836h-73l57 131h111z" />
    <glyph glyph-name="racute" unicode="&#x155;" horiz-adv-x="264" 
d="M134 0h-100v567h87l8 -46q8 18 30.5 35.5t54.5 17.5t48 -12l-9 -103q-33 14 -60 14q-59 0 -59 -90v-383zM155 637h-73l57 131h111z" />
    <glyph glyph-name="Rcommaaccent" unicode="&#x156;" horiz-adv-x="376" 
d="M371 0h-102l-88 315h-39v-315h-102v766h170q62 0 101.5 -39t39.5 -121v-123q0 -60 -16.5 -94t-57.5 -52zM249 488v105q0 41 -13.5 58.5t-42.5 17.5h-51v-257h51q29 0 42.5 17.5t13.5 58.5zM193 -206h-76l53 156h106z" />
    <glyph glyph-name="rcommaaccent" unicode="&#x157;" horiz-adv-x="264" 
d="M134 0h-100v567h87l8 -46q8 18 30.5 35.5t54.5 17.5t48 -12l-9 -103q-33 14 -60 14q-59 0 -59 -90v-383zM96 -206h-76l53 156h106z" />
    <glyph glyph-name="Rcaron" unicode="&#x158;" horiz-adv-x="376" 
d="M371 0h-102l-88 315h-39v-315h-102v766h170q62 0 101.5 -39t39.5 -121v-123q0 -60 -16.5 -94t-57.5 -52zM249 488v105q0 41 -13.5 58.5t-42.5 17.5h-51v-257h51q29 0 42.5 17.5t13.5 58.5zM231 836h-90l-79 141h78l45 -77l40 77h81z" />
    <glyph glyph-name="rcaron" unicode="&#x159;" horiz-adv-x="264" 
d="M134 0h-100v567h87l8 -46q8 18 30.5 35.5t54.5 17.5t48 -12l-9 -103q-33 14 -60 14q-59 0 -59 -90v-383zM187 637h-90l-79 141h78l45 -77l40 77h81z" />
    <glyph glyph-name="Sacute" unicode="&#x15a;" horiz-adv-x="371" 
d="M343 244v-97q0 -80 -42.5 -120t-115.5 -40t-115.5 40.5t-42.5 119.5v109h102v-96q0 -39 16 -57.5t40 -18.5t40 18.5t16 57.5v63q0 23 -22 49t-53.5 52t-63 54.5t-53.5 66.5t-22 78v96q0 80 44.5 120t113.5 40q158 0 158 -160v-120h-102v107q0 39 -16 57.5t-40 18.5
t-40 -18.5t-16 -57.5v-64q0 -32 22 -61t53.5 -53.5t63 -49.5t53.5 -60t22 -74zM204 836h-73l57 131h111z" />
    <glyph glyph-name="sacute" unicode="&#x15b;" horiz-adv-x="323" 
d="M120 187v-24q0 -39 9.5 -57.5t32.5 -18.5q40 0 40 50q0 28 -13.5 51t-33.5 37.5t-44 33.5t-44 38.5t-33.5 53.5t-13.5 78q0 146 144 146q72 0 105 -38t33 -122v-37h-100v26q0 42 -8.5 59t-31.5 17q-41 0 -41 -51q0 -32 13.5 -56t33.5 -37.5t43.5 -31.5t43.5 -36
t33.5 -51.5t13.5 -78.5q0 -146 -142 -146q-72 0 -106 39t-34 119v37h100zM175 637h-73l57 131h111z" />
    <glyph glyph-name="Scircumflex" unicode="&#x15c;" horiz-adv-x="371" 
d="M343 244v-97q0 -80 -42.5 -120t-115.5 -40t-115.5 40.5t-42.5 119.5v109h102v-96q0 -39 16 -57.5t40 -18.5t40 18.5t16 57.5v63q0 23 -22 49t-53.5 52t-63 54.5t-53.5 66.5t-22 78v96q0 80 44.5 120t113.5 40q158 0 158 -160v-120h-102v107q0 39 -16 57.5t-40 18.5
t-40 -18.5t-16 -57.5v-64q0 -32 22 -61t53.5 -53.5t63 -49.5t53.5 -60t22 -74zM307 836h-78l-45 77l-40 -77h-81l75 141h90z" />
    <glyph glyph-name="scircumflex" unicode="&#x15d;" horiz-adv-x="323" 
d="M120 187v-24q0 -39 9.5 -57.5t32.5 -18.5q40 0 40 50q0 28 -13.5 51t-33.5 37.5t-44 33.5t-44 38.5t-33.5 53.5t-13.5 78q0 146 144 146q72 0 105 -38t33 -122v-37h-100v26q0 42 -8.5 59t-31.5 17q-41 0 -41 -51q0 -32 13.5 -56t33.5 -37.5t43.5 -31.5t43.5 -36
t33.5 -51.5t13.5 -78.5q0 -146 -142 -146q-72 0 -106 39t-34 119v37h100zM283 637h-78l-45 77l-40 -77h-81l75 141h90z" />
    <glyph glyph-name="Scedilla" unicode="&#x15e;" horiz-adv-x="371" 
d="M108 -176l15 56q13 -9 34 -9q18 0 28.5 9.5t10.5 22.5q0 30 -41 30q-6 0 -10 -1l14 57q-62 7 -97 46.5t-35 111.5v109h102v-96q0 -39 16 -57.5t40 -18.5t40 18.5t16 57.5v63q0 23 -22 49t-53.5 52t-63 54.5t-53.5 66.5t-22 78v96q0 80 44.5 120t113.5 40q158 0 158 -160
v-120h-102v107q0 39 -16 57.5t-40 18.5t-40 -18.5t-16 -57.5v-64q0 -32 22 -61t53.5 -53.5t63 -49.5t53.5 -60t22 -74v-97q0 -132 -113 -155l-10 -38q31 0 48.5 -19.5t17.5 -45.5q0 -32 -26 -55.5t-76 -23.5q-44 0 -76 14z" />
    <glyph glyph-name="scedilla" unicode="&#x15f;" horiz-adv-x="322" 
d="M78 -176l15 56q13 -9 34 -9q18 0 28.5 9.5t10.5 22.5q0 30 -41 30q-6 0 -10 -1l15 62q-111 13 -111 156v37h100v-24q0 -39 9.5 -57.5t32.5 -18.5q40 0 40 50q0 28 -13.5 51t-33.5 37.5t-44 33.5t-44 38.5t-33.5 53.5t-13.5 78q0 146 144 146q72 0 105 -38t33 -122v-37
h-100v26q0 42 -8.5 59t-31.5 17q-41 0 -41 -51q0 -32 13.5 -56t33.5 -37.5t43.5 -31.5t43.5 -36t33.5 -51.5t13.5 -78.5q0 -122 -99 -142l-12 -42q31 0 48.5 -19.5t17.5 -45.5q0 -32 -26 -55.5t-76 -23.5q-44 0 -76 14z" />
    <glyph glyph-name="Scaron" unicode="&#x160;" horiz-adv-x="371" 
d="M343 244v-97q0 -80 -42.5 -120t-115.5 -40t-115.5 40.5t-42.5 119.5v109h102v-96q0 -39 16 -57.5t40 -18.5t40 18.5t16 57.5v63q0 23 -22 49t-53.5 52t-63 54.5t-53.5 66.5t-22 78v96q0 80 44.5 120t113.5 40q158 0 158 -160v-120h-102v107q0 39 -16 57.5t-40 18.5
t-40 -18.5t-16 -57.5v-64q0 -32 22 -61t53.5 -53.5t63 -49.5t53.5 -60t22 -74zM232 836h-90l-79 141h78l45 -77l40 77h81z" />
    <glyph glyph-name="scaron" unicode="&#x161;" horiz-adv-x="323" 
d="M120 187v-24q0 -39 9.5 -57.5t32.5 -18.5q40 0 40 50q0 28 -13.5 51t-33.5 37.5t-44 33.5t-44 38.5t-33.5 53.5t-13.5 78q0 146 144 146q72 0 105 -38t33 -122v-37h-100v26q0 42 -8.5 59t-31.5 17q-41 0 -41 -51q0 -32 13.5 -56t33.5 -37.5t43.5 -31.5t43.5 -36
t33.5 -51.5t13.5 -78.5q0 -146 -142 -146q-72 0 -106 39t-34 119v37h100zM208 637h-90l-79 141h78l45 -77l40 77h81z" />
    <glyph glyph-name="Tcommaaccent" unicode="&#x162;" horiz-adv-x="308" 
d="M205 0h-102v669h-95v97h292v-97h-95v-669zM150 -206h-76l53 156h106z" />
    <glyph glyph-name="tcommaaccent" unicode="&#x163;" horiz-adv-x="231" 
d="M219 82v-85q-22 -5 -40 -5q-69 0 -97.5 34t-28.5 116v332h-45v93h45v140h100v-140h65v-93h-65v-316q0 -41 9 -59.5t37 -18.5q6 0 20 2zM130 -206h-76l53 156h106z" />
    <glyph glyph-name="Tcaron" unicode="&#x164;" horiz-adv-x="308" 
d="M205 0h-102v669h-95v97h292v-97h-95v-669zM201 836h-90l-79 141h78l45 -77l40 77h81z" />
    <glyph glyph-name="tcaron" unicode="&#x165;" horiz-adv-x="231" 
d="M270 621h-74l35 178h113zM219 82v-85q-22 -5 -40 -5q-69 0 -97.5 34t-28.5 116v332h-45v93h45v140h100v-140h65v-93h-65v-316q0 -41 9 -59.5t37 -18.5q6 0 20 2z" />
    <glyph glyph-name="Tbar" unicode="&#x166;" horiz-adv-x="322" 
d="M212 0h-102v349h-70v81h70v239h-95v97h292v-97h-95v-239h70v-81h-70v-349z" />
    <glyph glyph-name="tbar" unicode="&#x167;" horiz-adv-x="232" 
d="M220 82v-85q-22 -5 -40 -5q-69 0 -97.5 34t-28.5 116v134h-42v81h42v117h-45v93h45v140h100v-140h65v-93h-65v-117h60v-81h-60v-118q0 -41 9 -59.5t37 -18.5q6 0 20 2z" />
    <glyph glyph-name="Utilde" unicode="&#x168;" horiz-adv-x="392" 
d="M252 160v606h102v-619q0 -81 -44 -120.5t-113 -39.5q-70 0 -114.5 40t-44.5 120v619h102v-606q0 -39 16 -57.5t40 -18.5t40 18.5t16 57.5zM254 931h65q-2 -42 -20 -68.5t-52 -26.5q-16 0 -42.5 9.5t-40.5 9.5q-24 0 -26 -20h-65q2 42 20 68.5t52 26.5q16 0 42.5 -9.5
t40.5 -9.5q24 0 26 20z" />
    <glyph glyph-name="utilde" unicode="&#x169;" 
d="M305 0h-86l-9 46q-32 -54 -92 -54q-50 0 -67.5 36t-17.5 120v419h100v-404q0 -43 7.5 -59.5t28.5 -16.5t28.5 16.5t7.5 59.5v404h100v-567zM228 732h65q-2 -42 -20 -68.5t-52 -26.5q-16 0 -42.5 9.5t-40.5 9.5q-24 0 -26 -20h-65q2 42 20 68.5t52 26.5q16 0 42.5 -9.5
t40.5 -9.5q24 0 26 20z" />
    <glyph glyph-name="Umacron" unicode="&#x16a;" horiz-adv-x="392" 
d="M252 160v606h102v-619q0 -81 -44 -120.5t-113 -39.5q-70 0 -114.5 40t-44.5 120v619h102v-606q0 -39 16 -57.5t40 -18.5t40 18.5t16 57.5zM327 836h-262v81h262v-81z" />
    <glyph glyph-name="umacron" unicode="&#x16b;" 
d="M305 0h-86l-9 46q-32 -54 -92 -54q-50 0 -67.5 36t-17.5 120v419h100v-404q0 -43 7.5 -59.5t28.5 -16.5t28.5 16.5t7.5 59.5v404h100v-567zM300 637h-262v81h262v-81z" />
    <glyph glyph-name="Ubreve" unicode="&#x16c;" horiz-adv-x="392" 
d="M252 160v606h102v-619q0 -81 -44 -120.5t-113 -39.5q-70 0 -114.5 40t-44.5 120v619h102v-606q0 -39 16 -57.5t40 -18.5t40 18.5t16 57.5zM257 949h56q-3 -124 -117 -124q-115 0 -117 124h56q2 -53 61 -53q57 0 61 53z" />
    <glyph glyph-name="ubreve" unicode="&#x16d;" 
d="M305 0h-86l-9 46q-32 -54 -92 -54q-50 0 -67.5 36t-17.5 120v419h100v-404q0 -43 7.5 -59.5t28.5 -16.5t28.5 16.5t7.5 59.5v404h100v-567zM230 750h56q-3 -124 -117 -124q-115 0 -117 124h56q2 -53 61 -53q57 0 61 53z" />
    <glyph glyph-name="Uring" unicode="&#x16e;" horiz-adv-x="392" 
d="M252 160v606h102v-619q0 -81 -44 -120.5t-113 -39.5q-70 0 -114.5 40t-44.5 120v619h102v-606q0 -39 16 -57.5t40 -18.5t40 18.5t16 57.5zM227 902q0 14 -8.5 22.5t-22.5 8.5t-22.5 -8.5t-8.5 -22.5t8.5 -22.5t22.5 -8.5t22.5 8.5t8.5 22.5zM196 815q-37 0 -62 25t-25 62
t25 62t62 25t62 -25t25 -62t-25 -62t-62 -25z" />
    <glyph glyph-name="uring" unicode="&#x16f;" 
d="M305 0h-86l-9 46q-32 -54 -92 -54q-50 0 -67.5 36t-17.5 120v419h100v-404q0 -43 7.5 -59.5t28.5 -16.5t28.5 16.5t7.5 59.5v404h100v-567zM200 703q0 13 -9 22t-22 9t-22 -9t-9 -22t9 -22t22 -9t22 9t9 22zM169 616q-37 0 -62 25t-25 62t25 62t62 25t62 -25t25 -62
t-25 -62t-62 -25z" />
    <glyph glyph-name="Uhungarumlaut" unicode="&#x170;" horiz-adv-x="392" 
d="M252 160v606h102v-619q0 -81 -44 -120.5t-113 -39.5q-70 0 -114.5 40t-44.5 120v619h102v-606q0 -39 16 -57.5t40 -18.5t40 18.5t16 57.5zM158 836h-83l44 135h101zM295 836h-83l44 135h101z" />
    <glyph glyph-name="uhungarumlaut" unicode="&#x171;" 
d="M305 0h-86l-9 46q-32 -54 -92 -54q-50 0 -67.5 36t-17.5 120v419h100v-404q0 -43 7.5 -59.5t28.5 -16.5t28.5 16.5t7.5 59.5v404h100v-567zM135 637h-83l44 135h101zM272 637h-83l44 135h101z" />
    <glyph glyph-name="Uogonek" unicode="&#x172;" horiz-adv-x="392" 
d="M283 -156l-35 -52q-56 3 -91 35t-35 75q0 52 47 87q-59 7 -95 46.5t-36 111.5v619h102v-606q0 -39 16 -57.5t40 -18.5t40 18.5t16 57.5v606h102v-619q0 -44 -15 -76.5t-29 -44.5t-39 -27q-60 -37 -60 -84q0 -55 72 -71z" />
    <glyph glyph-name="uogonek" unicode="&#x173;" 
d="M318 -156l-35 -52q-56 3 -91 35t-35 75q0 61 62 97l-9 47q-32 -54 -92 -54q-50 0 -67.5 36t-17.5 120v419h100v-404q0 -43 7.5 -59.5t28.5 -16.5t28.5 16.5t7.5 59.5v404h100v-567q-59 -38 -59 -86q0 -24 18.5 -43t53.5 -27z" />
    <glyph glyph-name="Wcircumflex" unicode="&#x174;" horiz-adv-x="611" 
d="M602 766l-84 -766h-145l-68 618l-67 -618h-145l-84 766h102l57 -592l66 592h143l66 -592l57 592h102zM427 836h-78l-45 77l-40 -77h-81l75 141h90z" />
    <glyph glyph-name="wcircumflex" unicode="&#x175;" horiz-adv-x="514" 
d="M429 0h-131l-41 407l-41 -407h-131l-77 567h104l45 -432l46 432h108l46 -432l45 432h104zM378 637h-78l-45 77l-40 -77h-81l75 141h90z" />
    <glyph glyph-name="Ycircumflex" unicode="&#x176;" horiz-adv-x="357" 
d="M229 0h-102v266l-127 500h103l75 -347l77 347h103l-129 -499v-267zM301 836h-78l-45 77l-40 -77h-81l75 141h90z" />
    <glyph glyph-name="ycircumflex" unicode="&#x177;" horiz-adv-x="316" 
d="M194 -200h-104l30 162l-119 605h104l57 -402l44 402h104zM277 637h-78l-45 77l-40 -77h-81l75 141h90z" />
    <glyph glyph-name="Ydieresis" unicode="&#x178;" horiz-adv-x="357" 
d="M229 0h-102v266l-127 500h103l75 -347l77 347h103l-129 -499v-267zM94 826q-24 0 -42 17.5t-18 42.5q0 24 18 41.5t42 17.5q25 0 42 -17t17 -42t-17 -42.5t-42 -17.5zM264 826q-24 0 -41.5 17.5t-17.5 42.5t17.5 42t41.5 17q25 0 42.5 -17t17.5 -42q0 -26 -17 -43
t-43 -17z" />
    <glyph glyph-name="Zacute" unicode="&#x179;" horiz-adv-x="307" 
d="M291 0h-276v97l160 572h-151v97h267v-53l-171 -616h171v-97zM182 836h-73l57 131h111z" />
    <glyph glyph-name="zacute" unicode="&#x17a;" horiz-adv-x="279" 
d="M254 0h-242v88l141 386h-122v93h235v-71l-144 -401h132v-95zM163 637h-73l57 131h111z" />
    <glyph glyph-name="Zdotaccent" unicode="&#x17b;" horiz-adv-x="307" 
d="M291 0h-276v97l160 572h-151v97h267v-53l-171 -616h171v-97zM163 831q-24 0 -42 17.5t-18 42.5q0 24 18 41.5t42 17.5q25 0 42 -17t17 -42t-17 -42.5t-42 -17.5z" />
    <glyph glyph-name="zdotaccent" unicode="&#x17c;" horiz-adv-x="279" 
d="M254 0h-242v88l141 386h-122v93h235v-71l-144 -401h132v-95zM149 632q-24 0 -42 17.5t-18 42.5q0 24 18 41.5t42 17.5q25 0 42 -17t17 -42t-17 -42.5t-42 -17.5z" />
    <glyph glyph-name="Zcaron" unicode="&#x17d;" horiz-adv-x="307" 
d="M291 0h-276v97l160 572h-151v97h267v-53l-171 -616h171v-97zM210 836h-90l-79 141h78l45 -77l40 77h81z" />
    <glyph glyph-name="zcaron" unicode="&#x17e;" horiz-adv-x="279" 
d="M254 0h-242v88l141 386h-122v93h235v-71l-144 -401h132v-95zM196 637h-90l-79 141h78l45 -77l40 77h81z" />
    <glyph glyph-name="florin" unicode="&#x192;" horiz-adv-x="439" 
d="M37 -4l19 90q16 -2 22 -2q27 0 38.5 18.5t20.5 59.5l40 191h-74l19 94h75l37 177q17 82 52.5 116t101.5 34q21 0 43 -5l-19 -90q-14 3 -23 3q-27 0 -38.5 -18.5t-20.5 -60.5l-33 -156h75l-20 -94h-75l-44 -212q-17 -80 -51.5 -115t-101.5 -35q-21 0 -43 5z" />
    <glyph glyph-name="AEacute" unicode="&#x1fc;" horiz-adv-x="550" 
d="M523 0h-274v170h-113l-43 -170h-101l198 766h333v-97h-172v-234h165v-97h-165v-241h172v-97zM249 272v350l-89 -350h89zM369 836h-73l57 131h111z" />
    <glyph glyph-name="aeacute" unicode="&#x1fd;" horiz-adv-x="495" 
d="M470 187v-35q0 -83 -33 -121.5t-102 -38.5q-94 0 -123 70q-21 -38 -43 -54t-58 -16q-20 0 -33.5 6t-26 23.5t-19 53.5t-6.5 92v16q0 82 21 116t66 34q51 0 85 -46v129q0 35 -8 49.5t-28 14.5q-21 0 -28.5 -16.5t-7.5 -59.5v-18h-100v35q0 154 138 154q52 0 85 -23
q32 23 86 23q69 0 102 -38.5t33 -121.5v-174h-172v-77q0 -43 7.5 -59.5t28.5 -16.5t28.5 16.5t7.5 59.5v23h100zM370 335v69q0 43 -7.5 59.5t-28.5 16.5t-28.5 -16.5t-7.5 -59.5v-69h72zM198 152v22q0 64 -36 64q-21 0 -28.5 -16.5t-7.5 -59.5v-4q0 -38 7.5 -54t28.5 -16
q36 0 36 64zM266 637h-73l57 131h111z" />
    <glyph glyph-name="Oslashacute" unicode="&#x1fe;" horiz-adv-x="387" 
d="M145 -53h-37l8 55q-81 37 -81 145v472q0 81 44.5 120.5t119.5 39.5q20 0 38 -3l7 42h37l-8 -52q78 -33 78 -147v-472q0 -81 -44 -120.5t-113 -39.5q-25 0 -42 4zM138 102l83 571q-12 9 -28 9q-24 0 -40 -18.5t-16 -57.5v-446zM249 160v483l-82 -553q12 -6 26 -6
q24 0 40 18.5t16 57.5zM202 836h-73l57 131h111z" />
    <glyph glyph-name="oslashacute" unicode="&#x1ff;" horiz-adv-x="333" 
d="M131 -53h-31l8 53q-78 28 -78 152v263q0 82 33.5 121t103.5 39q11 0 29 -2l7 43h31l-8 -50q76 -28 76 -151v-263q0 -83 -33 -121.5t-102 -38.5q-11 0 -29 2zM130 101l51 376q-6 3 -15 3q-21 0 -28.5 -16.5t-7.5 -59.5v-303zM202 164v284l-49 -358q3 -2 13 -2
q21 0 28.5 16.5t7.5 59.5zM175 637h-73l57 131h111z" />
    <glyph glyph-name="Scommaaccent" unicode="&#x218;" horiz-adv-x="371" 
d="M343 244v-97q0 -80 -42.5 -120t-115.5 -40t-115.5 40.5t-42.5 119.5v109h102v-96q0 -39 16 -57.5t40 -18.5t40 18.5t16 57.5v63q0 23 -22 49t-53.5 52t-63 54.5t-53.5 66.5t-22 78v96q0 80 44.5 120t113.5 40q158 0 158 -160v-120h-102v107q0 39 -16 57.5t-40 18.5
t-40 -18.5t-16 -57.5v-64q0 -32 22 -61t53.5 -53.5t63 -49.5t53.5 -60t22 -74zM188 -206h-76l53 156h106z" />
    <glyph glyph-name="scommaaccent" unicode="&#x219;" horiz-adv-x="323" 
d="M120 187v-24q0 -39 9.5 -57.5t32.5 -18.5q40 0 40 50q0 28 -13.5 51t-33.5 37.5t-44 33.5t-44 38.5t-33.5 53.5t-13.5 78q0 146 144 146q72 0 105 -38t33 -122v-37h-100v26q0 42 -8.5 59t-31.5 17q-41 0 -41 -51q0 -32 13.5 -56t33.5 -37.5t43.5 -31.5t43.5 -36
t33.5 -51.5t13.5 -78.5q0 -146 -142 -146q-72 0 -106 39t-34 119v37h100zM162 -206h-76l53 156h106z" />
    <glyph glyph-name="dotlessj" unicode="&#x237;" horiz-adv-x="168" 
d="M-32 -203v80q7 -1 16 -1q30 0 40 18t10 59v614h100v-625q0 -81 -28 -115.5t-94 -34.5q-22 0 -44 5z" />
    <glyph glyph-name="circumflex" unicode="&#x2c6;" horiz-adv-x="282" 
d="M263 637h-78l-45 77l-40 -77h-81l75 141h90z" />
    <glyph glyph-name="caron" unicode="&#x2c7;" horiz-adv-x="282" 
d="M188 637h-90l-79 141h78l45 -77l40 77h81z" />
    <glyph glyph-name="breve" unicode="&#x2d8;" horiz-adv-x="272" 
d="M197 750h56q-3 -124 -117 -124q-115 0 -117 124h56q2 -53 61 -53q57 0 61 53z" />
    <glyph glyph-name="dotaccent" unicode="&#x2d9;" horiz-adv-x="157" 
d="M79 632q-24 0 -42 17.5t-18 42.5q0 24 18 41.5t42 17.5q25 0 42 -17t17 -42t-17 -42.5t-42 -17.5z" />
    <glyph glyph-name="ring" unicode="&#x2da;" horiz-adv-x="212" 
d="M137 703q0 13 -8.5 22t-22.5 9t-22.5 -9t-8.5 -22t8.5 -22t22.5 -9t22.5 9t8.5 22zM106 616q-37 0 -62 25t-25 62t25 62t62 25t62 -25t25 -62t-25 -62t-62 -25z" />
    <glyph glyph-name="ogonek" unicode="&#x2db;" horiz-adv-x="264" 
d="M259 -156l-35 -52q-56 3 -91 35t-35 75q0 62 65 98h82q-58 -38 -58 -86q0 -24 18.5 -43t53.5 -27z" />
    <glyph glyph-name="tilde" unicode="&#x2dc;" horiz-adv-x="284" 
d="M200 732h65q-2 -42 -20 -68.5t-52 -26.5q-16 0 -42.5 9.5t-40.5 9.5q-24 0 -26 -20h-65q2 42 20 68.5t52 26.5q16 0 42.5 -9.5t40.5 -9.5q24 0 26 20z" />
    <glyph glyph-name="hungarumlaut" unicode="&#x2dd;" horiz-adv-x="265" 
d="M83 637h-83l44 135h101zM220 637h-83l44 135h101z" />
    <glyph glyph-name="tonos" unicode="&#x384;" horiz-adv-x="151" 
d="M73 637h-73l57 131h111z" />
    <glyph glyph-name="dieresistonos" unicode="&#x385;" horiz-adv-x="424" 
d="M79 627q-24 0 -42 17.5t-18 42.5q0 24 18 41.5t42 17.5q25 0 42 -17t17 -42t-17 -42.5t-42 -17.5zM345 627q-24 0 -41.5 17.5t-17.5 42.5t17.5 42t41.5 17q25 0 42.5 -17t17.5 -42t-17.5 -42.5t-42.5 -17.5zM214 614h-73l49 144h101z" />
    <glyph glyph-name="Alphatonos" unicode="&#x386;" horiz-adv-x="450" 
d="M447 0h-102l-20 170h-113l-20 -170h-102l103 766h150zM313 267l-45 382l-45 -382h90zM66 635h-73l57 131h111z" />
    <glyph glyph-name="Epsilontonos" unicode="&#x388;" horiz-adv-x="477" 
d="M450 0h-274v766h274v-97h-172v-234h165v-97h-165v-241h172v-97zM61 635h-73l57 131h111z" />
    <glyph glyph-name="Etatonos" unicode="&#x389;" horiz-adv-x="532" 
d="M492 0h-102v338h-112v-338h-102v766h102v-331h112v331h102v-766zM61 635h-73l57 131h111z" />
    <glyph glyph-name="Iotatonos" unicode="&#x38a;" horiz-adv-x="318" 
d="M278 0h-102v766h102v-766zM61 635h-73l57 131h111z" />
    <glyph glyph-name="Omicrontonos" unicode="&#x38c;" horiz-adv-x="496" 
d="M145 147v472q0 81 44.5 120.5t119.5 39.5q152 0 152 -160v-472q0 -81 -44 -120.5t-113 -39.5q-70 0 -114.5 40t-44.5 120zM359 160v446q0 39 -16 57.5t-40 18.5t-40 -18.5t-16 -57.5v-446q0 -39 16 -57.5t40 -18.5t40 18.5t16 57.5zM61 635h-73l57 131h111z" />
    <glyph glyph-name="Upsilontonos" unicode="&#x38e;" horiz-adv-x="545" 
d="M417 0h-102v266l-127 500h103l75 -347l77 347h103l-129 -499v-267zM78 635h-73l57 131h111z" />
    <glyph glyph-name="Omegatonos" unicode="&#x38f;" horiz-adv-x="498" 
d="M471 0h-151v106q41 10 41 74v426q0 38 -15.5 57t-40.5 19t-40.5 -19t-15.5 -57v-426q0 -64 41 -74v-106h-151v98l91 -6q-45 14 -64 49t-19 99v379q0 87 47.5 123.5t110.5 36.5q158 0 158 -160v-379q0 -64 -19 -99t-64 -49l91 6v-98zM63 635h-73l57 131h111z" />
    <glyph glyph-name="iotadieresistonos" unicode="&#x390;" horiz-adv-x="199" 
d="M198 82v-85q-22 -5 -40 -5q-69 0 -97.5 34t-28.5 116v425h100v-409q0 -41 9 -59.5t37 -18.5q6 0 20 2zM-48 627q-24 0 -42 17.5t-18 42.5q0 24 18 41.5t42 17.5q25 0 42 -17t17 -42t-17 -42.5t-42 -17.5zM218 627q-24 0 -41.5 17.5t-17.5 42.5t17.5 42t41.5 17
q25 0 42.5 -17t17.5 -42t-17 -42.5t-43 -17.5zM87 614h-73l49 144h101z" />
    <glyph glyph-name="Alpha" unicode="&#x391;" horiz-adv-x="363" 
d="M360 0h-102l-20 170h-113l-20 -170h-102l103 766h150zM226 267l-45 382l-45 -382h90z" />
    <glyph glyph-name="Beta" unicode="&#x392;" horiz-adv-x="386" 
d="M222 0h-182v766h172q61 0 100 -40.5t39 -119.5v-97q0 -88 -73 -116q83 -31 83 -123v-110q0 -79 -39 -119.5t-100 -40.5zM249 516v77q0 41 -13.5 58.5t-42.5 17.5h-51v-229h51q29 0 42.5 17.5t13.5 58.5zM259 173v94q0 76 -66 76h-51v-246h61q29 0 42.5 17.5t13.5 58.5z
" />
    <glyph glyph-name="Gamma" unicode="&#x393;" horiz-adv-x="321" 
d="M142 0h-102v766h274v-97h-172v-669z" />
    <glyph glyph-name="uni0394" unicode="&#x394;" horiz-adv-x="363" 
d="M360 0h-357l103 766h150zM246 97l-65 552l-65 -552h130z" />
    <glyph glyph-name="Epsilon" unicode="&#x395;" horiz-adv-x="341" 
d="M314 0h-274v766h274v-97h-172v-234h165v-97h-165v-241h172v-97z" />
    <glyph glyph-name="Zeta" unicode="&#x396;" horiz-adv-x="307" 
d="M291 0h-276v97l160 572h-151v97h267v-53l-171 -616h171v-97z" />
    <glyph glyph-name="Eta" unicode="&#x397;" horiz-adv-x="396" 
d="M356 0h-102v338h-112v-338h-102v766h102v-331h112v331h102v-766z" />
    <glyph glyph-name="Theta" unicode="&#x398;" horiz-adv-x="386" 
d="M35 147v472q0 81 44.5 120.5t119.5 39.5q152 0 152 -160v-472q0 -81 -44 -120.5t-113 -39.5q-70 0 -114.5 40t-44.5 120zM249 160v446q0 39 -16 57.5t-40 18.5t-40 -18.5t-16 -57.5v-446q0 -39 16 -57.5t40 -18.5t40 18.5t16 57.5zM230 338h-73v97h73v-97z" />
    <glyph glyph-name="Iota" unicode="&#x399;" horiz-adv-x="182" 
d="M142 0h-102v766h102v-766z" />
    <glyph glyph-name="Kappa" unicode="&#x39a;" horiz-adv-x="377" 
d="M386 0h-102l-141 383l122 383h102l-116 -380zM142 0h-102v766h102v-766z" />
    <glyph glyph-name="Lambda" unicode="&#x39b;" horiz-adv-x="363" 
d="M360 0h-102l-77 649l-76 -649h-102l103 766h150z" />
    <glyph glyph-name="Mu" unicode="&#x39c;" horiz-adv-x="580" 
d="M540 0h-102l2 573l-104 -573h-92l-104 572l2 -572h-102v766h165l85 -534l85 534h165v-766z" />
    <glyph glyph-name="Nu" unicode="&#x39d;" horiz-adv-x="448" 
d="M408 0h-133l-135 511l2 -511h-102v766h128l140 -520l-2 520h102v-766z" />
    <glyph glyph-name="Xi" unicode="&#x39e;" horiz-adv-x="348" 
d="M327 0h-306v102h306v-102zM327 664h-306v102h306v-102zM302 338h-256v97h256v-97z" />
    <glyph glyph-name="Omicron" unicode="&#x39f;" horiz-adv-x="386" 
d="M35 147v472q0 81 44.5 120.5t119.5 39.5q152 0 152 -160v-472q0 -81 -44 -120.5t-113 -39.5q-70 0 -114.5 40t-44.5 120zM249 160v446q0 39 -16 57.5t-40 18.5t-40 -18.5t-16 -57.5v-446q0 -39 16 -57.5t40 -18.5t40 18.5t16 57.5z" />
    <glyph glyph-name="Pi" unicode="&#x3a0;" horiz-adv-x="396" 
d="M356 0h-102v669h-112v-669h-102v766h316v-766z" />
    <glyph glyph-name="Rho" unicode="&#x3a1;" horiz-adv-x="371" 
d="M142 0h-102v766h169q63 0 102.5 -39.5t39.5 -120.5v-131q0 -82 -37 -121t-99 -39h-73v-315zM249 488v105q0 41 -13.5 58.5t-42.5 17.5h-51v-257h51q29 0 42.5 17.5t13.5 58.5z" />
    <glyph glyph-name="Sigma" unicode="&#x3a3;" horiz-adv-x="313" 
d="M295 0h-276v97l109 296l-109 276v97h276v-97h-171l108 -276l-108 -296h171v-97z" />
    <glyph glyph-name="Tau" unicode="&#x3a4;" horiz-adv-x="308" 
d="M205 0h-102v669h-95v97h292v-97h-95v-669z" />
    <glyph glyph-name="Upsilon" unicode="&#x3a5;" horiz-adv-x="357" 
d="M229 0h-102v266l-127 500h103l75 -347l77 347h103l-129 -499v-267z" />
    <glyph glyph-name="Phi" unicode="&#x3a6;" horiz-adv-x="480" 
d="M291 -1h-102v70q-90 4 -128.5 56.5t-38.5 146.5v221q0 94 38.5 146.5t128.5 56.5v71h102v-71q167 -9 167 -203v-221q0 -194 -167 -203v-70zM189 168v429q-33 -2 -49 -30.5t-16 -66.5v-235q0 -38 16 -66.5t49 -30.5zM356 265v235q0 38 -16 66.5t-49 30.5v-429
q33 2 49 30.5t16 66.5z" />
    <glyph glyph-name="Chi" unicode="&#x3a7;" horiz-adv-x="376" 
d="M377 0h-102l-84 290l-94 -290h-102l137 394l-131 372h103l87 -264l81 264h103l-118 -373z" />
    <glyph glyph-name="Psi" unicode="&#x3a8;" horiz-adv-x="495" 
d="M299 -1h-102v170q-90 4 -128.5 56.5t-38.5 146.5v394h102v-401q0 -38 16 -66.5t49 -30.5v498h102v-498q33 2 49 30.5t16 66.5v401h102v-394q0 -194 -167 -203v-170z" />
    <glyph glyph-name="uni03A9" unicode="&#x3a9;" horiz-adv-x="391" 
d="M361 0h-151v106q41 10 41 74v426q0 38 -15.5 57t-40.5 19t-40.5 -19t-15.5 -57v-426q0 -64 41 -74v-106h-151v98l91 -6q-45 14 -64 49t-19 99v379q0 87 47.5 123.5t110.5 36.5q158 0 158 -160v-379q0 -64 -19 -99t-64 -49l91 6v-98z" />
    <glyph glyph-name="Iotadieresis" unicode="&#x3aa;" horiz-adv-x="182" 
d="M142 0h-102v766h102v-766zM6 826q-24 0 -42 17.5t-18 42.5q0 24 18 41.5t42 17.5q25 0 42 -17t17 -42t-17 -42.5t-42 -17.5zM176 826q-24 0 -41.5 17.5t-17.5 42.5t17.5 42t41.5 17q25 0 42.5 -17t17.5 -42q0 -26 -17 -43t-43 -17z" />
    <glyph glyph-name="Upsilondieresis" unicode="&#x3ab;" horiz-adv-x="357" 
d="M229 0h-102v266l-127 500h103l75 -347l77 347h103l-129 -499v-267zM94 826q-24 0 -42 17.5t-18 42.5q0 24 18 41.5t42 17.5q25 0 42 -17t17 -42t-17 -42.5t-42 -17.5zM264 826q-24 0 -41.5 17.5t-17.5 42.5t17.5 42t41.5 17q25 0 42.5 -17t17.5 -42q0 -26 -17 -43
t-43 -17z" />
    <glyph glyph-name="alphatonos" unicode="&#x3ac;" horiz-adv-x="337" 
d="M303 0h-86l-9 46q-32 -54 -92 -54q-50 0 -67.5 36t-17.5 120v271q0 84 17.5 120t67.5 36q60 0 92 -54l9 46h86v-567zM203 163v241q0 43 -7.5 59.5t-28.5 16.5t-28.5 -16.5t-7.5 -59.5v-241q0 -43 7.5 -59.5t28.5 -16.5t28.5 16.5t7.5 59.5zM177 637h-73l57 131h111z" />
    <glyph glyph-name="epsilontonos" unicode="&#x3ad;" horiz-adv-x="317" 
d="M297 182v-30q0 -82 -33 -121t-101 -39q-138 0 -138 148v17q0 40 3 60.5t19.5 40t49.5 30.5q-47 12 -59.5 41.5t-12.5 89.5v16q0 65 35.5 102.5t104.5 37.5q132 0 132 -160v-6h-100v5q0 36 -8 51t-28 15q-19 0 -27 -14.5t-9 -49.5v-15q0 -37 22 -51.5t44 -14.5q28 0 54 1
v-96q-26 1 -55 1q-22 0 -43.5 -14.5t-21.5 -51.5v-11q0 -43 7.5 -59.5t28.5 -16.5t28.5 16.5t7.5 59.5v18h100zM177 637h-73l57 131h111z" />
    <glyph glyph-name="etatonos" unicode="&#x3ae;" 
d="M306 0h-100v404q0 43 -7.5 59.5t-28.5 16.5t-28.5 -16.5t-7.5 -59.5v-404h-100v567h86l9 -46q32 54 92 54q50 0 67.5 -36t17.5 -120v-419zM185 637h-73l57 131h111z" />
    <glyph glyph-name="iotatonos" unicode="&#x3af;" horiz-adv-x="200" 
d="M199 82v-85q-22 -5 -40 -5q-69 0 -97.5 34t-28.5 116v425h100v-409q0 -41 9 -59.5t37 -18.5q6 0 20 2zM104 637h-73l57 131h111z" />
    <glyph glyph-name="upsilondieresistonos" unicode="&#x3b0;" horiz-adv-x="336" 
d="M204 164v403h100v-415q0 -83 -33 -121.5t-102 -38.5q-70 0 -103.5 39t-33.5 121v415h100v-403q0 -43 7.5 -59.5t28.5 -16.5t28.5 16.5t7.5 59.5zM35 627q-24 0 -42 17.5t-18 42.5q0 24 18 41.5t42 17.5q25 0 42 -17t17 -42t-17 -42.5t-42 -17.5zM301 627
q-24 0 -41.5 17.5t-17.5 42.5t17.5 42t41.5 17q25 0 42.5 -17t17.5 -42t-17.5 -42.5t-42.5 -17.5zM170 614h-73l49 144h101z" />
    <glyph glyph-name="alpha" unicode="&#x3b1;" horiz-adv-x="337" 
d="M303 0h-86l-9 46q-32 -54 -92 -54q-50 0 -67.5 36t-17.5 120v271q0 84 17.5 120t67.5 36q60 0 92 -54l9 46h86v-567zM203 163v241q0 43 -7.5 59.5t-28.5 16.5t-28.5 -16.5t-7.5 -59.5v-241q0 -43 7.5 -59.5t28.5 -16.5t28.5 16.5t7.5 59.5z" />
    <glyph glyph-name="beta" unicode="&#x3b2;" horiz-adv-x="342" 
d="M134 -199h-100v808q0 163 136 163t136 -163v-29q0 -113 -66 -132q76 -16 76 -121v-179q0 -79 -24.5 -117.5t-77.5 -38.5q-22 0 -39 7.5t-24 15.5t-17 22v-236zM216 163v115q0 117 -56 127v82q46 13 46 100v19q0 23 -2 36.5t-10 24t-24 10.5q-22 0 -29 -18t-7 -53v-443
q0 -76 45 -76q21 0 29 16.5t8 59.5z" />
    <glyph glyph-name="gamma" unicode="&#x3b3;" horiz-adv-x="305" 
d="M202 -198h-100l4 194l-103 571h104l45 -402l46 402h104l-104 -571z" />
    <glyph glyph-name="delta" unicode="&#x3b4;" horiz-adv-x="323" 
d="M300 321v-169q0 -83 -33 -121.5t-102 -38.5q-70 0 -103.5 39t-33.5 121v233q0 47 11.5 71.5t41.5 43.5q-44 46 -44 123q0 151 151 151q48 0 99 -15l-22 -94q-51 15 -75 15q-52 0 -52 -56q0 -33 16.5 -58t40.5 -45t48 -43t40.5 -63t16.5 -94zM200 164v146q0 45 -8.5 71.5
t-36.5 47.5q-15 -3 -21 -20t-6 -55v-190q0 -43 7.5 -59.5t28.5 -16.5t28.5 16.5t7.5 59.5z" />
    <glyph glyph-name="epsilon" unicode="&#x3b5;" horiz-adv-x="317" 
d="M297 182v-30q0 -82 -33 -121t-101 -39q-138 0 -138 148v17q0 40 3 60.5t19.5 40t49.5 30.5q-47 12 -59.5 41.5t-12.5 89.5v16q0 65 35.5 102.5t104.5 37.5q132 0 132 -160v-6h-100v5q0 36 -8 51t-28 15q-19 0 -27 -14.5t-9 -49.5v-15q0 -37 22 -51.5t44 -14.5q28 0 54 1
v-96q-26 1 -55 1q-22 0 -43.5 -14.5t-21.5 -51.5v-11q0 -43 7.5 -59.5t28.5 -16.5t28.5 16.5t7.5 59.5v18h100z" />
    <glyph glyph-name="zeta" unicode="&#x3b6;" horiz-adv-x="291" 
d="M220 -142l-74 44q28 47 28 66q0 14 -7.5 21t-27.5 15q-37 15 -53.5 23t-35.5 24t-26 38.5t-7 56.5q0 79 42 155.5t128 172.5h-157v93h263v-97q-87 -102 -131 -174.5t-44 -133.5q0 -19 4 -31t15 -21t19.5 -13t30 -12t33.5 -13q61 -27 61 -80q0 -49 -61 -134z" />
    <glyph glyph-name="eta" unicode="&#x3b7;" 
d="M306 0h-100v404q0 43 -7.5 59.5t-28.5 16.5t-28.5 -16.5t-7.5 -59.5v-404h-100v567h86l9 -46q32 54 92 54q50 0 67.5 -36t17.5 -120v-419z" />
    <glyph glyph-name="theta" unicode="&#x3b8;" horiz-adv-x="338" 
d="M33 152v459q0 82 33.5 121t103.5 39q69 0 102 -38.5t33 -121.5v-459q0 -83 -33 -121.5t-102 -38.5q-70 0 -103.5 39t-33.5 121zM205 427v173q0 43 -7.5 59.5t-28.5 16.5t-28.5 -16.5t-7.5 -59.5v-173h72zM205 164v170h-72v-170q0 -43 7.5 -59.5t28.5 -16.5t28.5 16.5
t7.5 59.5z" />
    <glyph glyph-name="iota" unicode="&#x3b9;" horiz-adv-x="200" 
d="M199 82v-85q-22 -5 -40 -5q-69 0 -97.5 34t-28.5 116v425h100v-409q0 -41 9 -59.5t37 -18.5q6 0 20 2z" />
    <glyph glyph-name="kappa" unicode="&#x3ba;" 
d="M338 0h-101l-102 290l102 277h102l-98 -274zM134 0h-100v567h100v-567z" />
    <glyph glyph-name="lambda" unicode="&#x3bb;" horiz-adv-x="411" 
d="M407 85l3 -85q-27 -8 -49 -8q-39 0 -64.5 23.5t-41.5 82.5l-65 238l-91 -336h-107l155 497l-30 114q-10 37 -20 53.5t-28 16.5q-21 0 -36 -6l-13 91q34 8 68 8q89 0 117 -105l138 -514q6 -24 10 -36t14.5 -25t23.5 -13q8 0 16 4z" />
    <glyph glyph-name="uni03BC" unicode="&#x3bc;" horiz-adv-x="340" 
d="M134 -199h-100v766h100v-404q0 -43 7.5 -59.5t28.5 -16.5t28.5 16.5t7.5 59.5v404h100v-567h-86l-9 46q-27 -46 -60 -46q-8 0 -17 3v-202z" />
    <glyph glyph-name="nu" unicode="&#x3bd;" horiz-adv-x="315" 
d="M231 0h-146l-77 567h104l45 -462l46 462h104z" />
    <glyph glyph-name="xi" unicode="&#x3be;" horiz-adv-x="301" 
d="M244 -142l-74 44q28 47 28 65q0 12 -7 19t-28 16q-12 5 -36 14t-34 14t-26 15.5t-22.5 22.5t-12 31.5t-5.5 46.5v137q0 40 3 60.5t19.5 40t49.5 30.5q-47 12 -59.5 41.5t-12.5 89.5v87q0 65 35.5 102.5t104.5 37.5q132 0 132 -160v-6h-100v5q0 36 -8 51t-28 15t-28 -14.5
t-8 -49.5v-86q0 -37 22 -51.5t44 -14.5q28 0 54 1v-96q-26 1 -55 1q-22 0 -43.5 -14.5t-21.5 -51.5v-122q0 -25 6 -41.5t19 -26.5t25 -15t33.5 -12t33.5 -12q61 -26 61 -79q0 -54 -61 -135z" />
    <glyph glyph-name="omicron" unicode="&#x3bf;" horiz-adv-x="332" 
d="M302 415v-263q0 -83 -33 -121.5t-102 -38.5q-70 0 -103.5 39t-33.5 121v263q0 82 33.5 121t103.5 39q69 0 102 -38.5t33 -121.5zM202 164v240q0 43 -7.5 59.5t-28.5 16.5t-28.5 -16.5t-7.5 -59.5v-240q0 -43 7.5 -59.5t28.5 -16.5t28.5 16.5t7.5 59.5z" />
    <glyph glyph-name="pi" unicode="&#x3c0;" horiz-adv-x="340" 
d="M306 0h-100v474h-72v-474h-100v567h272v-567z" />
    <glyph glyph-name="rho" unicode="&#x3c1;" horiz-adv-x="335" 
d="M133 -199h-100v614q0 82 33.5 121t103.5 39q69 0 102 -38.5t33 -121.5v-267q0 -85 -17.5 -120.5t-68.5 -35.5q-55 0 -86 48v-239zM205 163v241q0 43 -7.5 59.5t-28.5 16.5t-28.5 -16.5t-7.5 -59.5v-241q0 -43 7.5 -59.5t28.5 -16.5t28.5 16.5t7.5 59.5z" />
    <glyph glyph-name="sigma1" unicode="&#x3c2;" horiz-adv-x="322" 
d="M246 -142l-74 44q28 47 28 65q0 12 -7 19t-28 16q-12 5 -36 14t-34 14t-26 15.5t-22.5 22.5t-12 31.5t-5.5 46.5v269q0 82 33.5 121t103.5 39q69 0 102 -38.5t33 -121.5v-56h-100v45q0 43 -7.5 59.5t-28.5 16.5t-28.5 -16.5t-7.5 -59.5v-225q0 -25 6 -41.5t19 -26.5
t25 -15t33.5 -12t33.5 -12q61 -26 61 -79q0 -54 -61 -135z" />
    <glyph glyph-name="sigma" unicode="&#x3c3;" horiz-adv-x="347" 
d="M302 415v-263q0 -83 -33 -121.5t-102 -38.5q-70 0 -103.5 39t-33.5 121v255q0 82 33.5 121t103.5 39h170v-93l-55 4q20 -24 20 -63zM202 164v232q0 43 -7.5 59.5t-28.5 16.5t-28.5 -16.5t-7.5 -59.5v-232q0 -43 7.5 -59.5t28.5 -16.5t28.5 16.5t7.5 59.5z" />
    <glyph glyph-name="tau" unicode="&#x3c4;" horiz-adv-x="297" 
d="M260 82v-85q-22 -5 -40 -5q-69 0 -97.5 34t-28.5 116v332h-91v93h283v-93h-92v-316q0 -41 9 -59.5t37 -18.5q6 0 20 2z" />
    <glyph glyph-name="upsilon" unicode="&#x3c5;" horiz-adv-x="338" 
d="M205 164v403h100v-415q0 -83 -33 -121.5t-102 -38.5q-70 0 -103.5 39t-33.5 121v415h100v-403q0 -43 7.5 -59.5t28.5 -16.5t28.5 16.5t7.5 59.5z" />
    <glyph glyph-name="phi" unicode="&#x3c6;" horiz-adv-x="466" 
d="M283 -198h-98v192q-157 13 -157 176v239q0 95 60 141l64 -61q-24 -31 -24 -93v-223q0 -74 57 -82v484h78q93 0 135 -47t42 -119v-239q0 -163 -157 -176v-192zM340 173v223q0 74 -57 82v-387q57 8 57 82z" />
    <glyph glyph-name="chi" unicode="&#x3c7;" horiz-adv-x="314" 
d="M313 0h-99l-61 189l-53 -189h-98l94 290l-93 277h99l55 -172l53 172h101l-97 -278z" />
    <glyph glyph-name="psi" unicode="&#x3c8;" horiz-adv-x="476" 
d="M287 -198h-98v192q-157 13 -157 176v397h100v-394q0 -74 57 -82v476h98v-476q57 8 57 82v394h100v-397q0 -163 -157 -176v-192z" />
    <glyph glyph-name="omega" unicode="&#x3c9;" horiz-adv-x="499" 
d="M369 164v240q0 43 -8 59.5t-29 16.5v95q70 0 103.5 -39t33.5 -121v-263q0 -160 -124 -160q-71 0 -98 43q-26 -43 -96 -43q-126 0 -126 160v263q0 82 33.5 121t103.5 39v-95q-21 0 -29 -16.5t-8 -59.5v-240q0 -43 7.5 -59.5t28.5 -16.5q20 0 28 14.5t8 49.5v265h100v-265
q0 -35 8 -49.5t28 -14.5q21 0 28.5 16.5t7.5 59.5z" />
    <glyph glyph-name="iotadieresis" unicode="&#x3ca;" horiz-adv-x="200" 
d="M199 82v-85q-22 -5 -40 -5q-69 0 -97.5 34t-28.5 116v425h100v-409q0 -41 9 -59.5t37 -18.5q6 0 20 2zM-2 627q-24 0 -42 17.5t-18 42.5q0 24 18 41.5t42 17.5q25 0 42 -17t17 -42t-17 -42.5t-42 -17.5zM168 627q-24 0 -41.5 17.5t-17.5 42.5t17.5 42t41.5 17
q25 0 42.5 -17t17.5 -42t-17 -42.5t-43 -17.5z" />
    <glyph glyph-name="upsilondieresis" unicode="&#x3cb;" horiz-adv-x="336" 
d="M204 164v403h100v-415q0 -83 -33 -121.5t-102 -38.5q-70 0 -103.5 39t-33.5 121v415h100v-403q0 -43 7.5 -59.5t28.5 -16.5t28.5 16.5t7.5 59.5zM83 627q-24 0 -42 17.5t-18 42.5q0 24 18 41.5t42 17.5q25 0 42 -17t17 -42t-17 -42.5t-42 -17.5zM253 627
q-24 0 -41.5 17.5t-17.5 42.5t17.5 42t41.5 17q25 0 42.5 -17t17.5 -42t-17.5 -42.5t-42.5 -17.5z" />
    <glyph glyph-name="omicrontonos" unicode="&#x3cc;" horiz-adv-x="332" 
d="M302 415v-263q0 -83 -33 -121.5t-102 -38.5q-70 0 -103.5 39t-33.5 121v263q0 82 33.5 121t103.5 39q69 0 102 -38.5t33 -121.5zM202 164v240q0 43 -7.5 59.5t-28.5 16.5t-28.5 -16.5t-7.5 -59.5v-240q0 -43 7.5 -59.5t28.5 -16.5t28.5 16.5t7.5 59.5zM185 637h-73
l57 131h111z" />
    <glyph glyph-name="upsilontonos" unicode="&#x3cd;" horiz-adv-x="338" 
d="M205 164v403h100v-415q0 -83 -33 -121.5t-102 -38.5q-70 0 -103.5 39t-33.5 121v415h100v-403q0 -43 7.5 -59.5t28.5 -16.5t28.5 16.5t7.5 59.5zM188 637h-73l57 131h111z" />
    <glyph glyph-name="omegatonos" unicode="&#x3ce;" horiz-adv-x="499" 
d="M369 164v240q0 43 -8 59.5t-29 16.5v95q70 0 103.5 -39t33.5 -121v-263q0 -160 -124 -160q-71 0 -98 43q-26 -43 -96 -43q-126 0 -126 160v263q0 82 33.5 121t103.5 39v-95q-21 0 -29 -16.5t-8 -59.5v-240q0 -43 7.5 -59.5t28.5 -16.5q20 0 28 14.5t8 49.5v265h100v-265
q0 -35 8 -49.5t28 -14.5q21 0 28.5 16.5t7.5 59.5zM270 637h-73l57 131h111z" />
    <glyph glyph-name="uni0401" unicode="&#x401;" horiz-adv-x="341" 
d="M314 0h-274v766h274v-97h-172v-234h165v-97h-165v-241h172v-97zM91 826q-24 0 -42 17.5t-18 42.5q0 24 18 41.5t42 17.5q25 0 42 -17t17 -42t-17 -42.5t-42 -17.5zM261 826q-24 0 -41.5 17.5t-17.5 42.5t17.5 42t41.5 17q25 0 42.5 -17t17.5 -42q0 -26 -17.5 -43
t-42.5 -17z" />
    <glyph glyph-name="uni0402" unicode="&#x402;" horiz-adv-x="435" 
d="M256 -8h-4v97h4q24 0 40 18.5t16 57.5v119q0 47 -14.5 63t-45.5 16q-26 0 -47 -13v-350h-102v669h-95v97h322v-97h-125v-217q28 12 63 12q71 0 108.5 -38.5t37.5 -133.5v-140q0 -81 -44.5 -120.5t-113.5 -39.5z" />
    <glyph glyph-name="uni0403" unicode="&#x403;" horiz-adv-x="321" 
d="M142 0h-102v766h274v-97h-172v-669zM201 836h-73l57 131h111z" />
    <glyph glyph-name="uni0404" unicode="&#x404;" horiz-adv-x="375" 
d="M351 215v-68q0 -79 -43.5 -119.5t-116.5 -40.5q-72 0 -114 42.5t-42 123.5v460q0 81 42 123.5t113 42.5q75 0 118 -37.5t43 -115.5v-78h-102v59q0 39 -17 57t-41 18q-23 0 -38.5 -19t-15.5 -58v-170h154v-97h-154v-177q0 -40 15.5 -58.5t39.5 -18.5q25 0 41 19t16 58v54
h102z" />
    <glyph glyph-name="uni0405" unicode="&#x405;" horiz-adv-x="371" 
d="M343 244v-97q0 -80 -42.5 -120t-115.5 -40t-115.5 40.5t-42.5 119.5v109h102v-96q0 -39 16 -57.5t40 -18.5t40 18.5t16 57.5v63q0 23 -22 49t-53.5 52t-63 54.5t-53.5 66.5t-22 78v96q0 80 44.5 120t113.5 40q158 0 158 -160v-120h-102v107q0 39 -16 57.5t-40 18.5
t-40 -18.5t-16 -57.5v-64q0 -32 22 -61t53.5 -53.5t63 -49.5t53.5 -60t22 -74z" />
    <glyph glyph-name="uni0406" unicode="&#x406;" horiz-adv-x="182" 
d="M142 0h-102v766h102v-766z" />
    <glyph glyph-name="uni0407" unicode="&#x407;" horiz-adv-x="182" 
d="M142 0h-102v766h102v-766zM6 826q-24 0 -42 17.5t-18 42.5q0 24 18 41.5t42 17.5q25 0 42 -17t17 -42t-17 -42.5t-42 -17.5zM176 826q-24 0 -41.5 17.5t-17.5 42.5t17.5 42t41.5 17q25 0 42.5 -17t17.5 -42q0 -26 -17 -43t-43 -17z" />
    <glyph glyph-name="uni0408" unicode="&#x408;" horiz-adv-x="182" 
d="M-16 -192h-3v97h3q24 0 40 18.5t16 57.5v785h102v-798q0 -81 -44.5 -120.5t-113.5 -39.5z" />
    <glyph glyph-name="uni0409" unicode="&#x409;" horiz-adv-x="601" 
d="M440 0h-169v669h-102v-521q0 -81 -44.5 -120.5t-113.5 -39.5h-4v97h4q24 0 40 18.5t16 57.5v605h306v-315h73q62 0 99 -39t37 -121v-131q0 -81 -39.5 -120.5t-102.5 -39.5zM480 173v105q0 41 -13.5 58.5t-42.5 17.5h-51v-257h51q29 0 42.5 17.5t13.5 58.5z" />
    <glyph glyph-name="uni040A" unicode="&#x40a;" horiz-adv-x="584" 
d="M423 0h-169v354h-112v-354h-102v766h102v-315h112v315h102v-315h73q62 0 99 -39t37 -121v-131q0 -81 -39.5 -120.5t-102.5 -39.5zM463 173v105q0 41 -13.5 58.5t-42.5 17.5h-51v-257h51q29 0 42.5 17.5t13.5 58.5z" />
    <glyph glyph-name="uni040B" unicode="&#x40b;" horiz-adv-x="438" 
d="M414 0h-102v284q0 47 -14.5 63t-45.5 16q-26 0 -47 -13v-350h-102v669h-95v97h322v-97h-125v-217q28 12 63 12q71 0 108.5 -38.5t37.5 -133.5v-292z" />
    <glyph glyph-name="uni040C" unicode="&#x40c;" horiz-adv-x="370" 
d="M366 0h-102q-9 170 -121 383q101 211 102 383h102q0 -173 -96 -380q108 -215 115 -386zM142 0h-102v766h102v-766zM213 836h-73l57 131h111z" />
    <glyph glyph-name="uni040E" unicode="&#x40e;" horiz-adv-x="417" 
d="M126 0h-102l114 284l-148 482h103l101 -341l137 341h103zM271 924h56q-3 -124 -117 -124q-115 0 -117 124h56q2 -53 61 -53q57 0 61 53z" />
    <glyph glyph-name="uni040F" unicode="&#x40f;" horiz-adv-x="396" 
d="M356 0h-109v-106h-96v106h-111v766h102v-669h112v669h102v-766z" />
    <glyph glyph-name="uni0410" unicode="&#x410;" horiz-adv-x="363" 
d="M360 0h-102l-20 170h-113l-20 -170h-102l103 766h150zM226 267l-45 382l-45 -382h90z" />
    <glyph glyph-name="uni0411" unicode="&#x411;" horiz-adv-x="370" 
d="M209 0h-169v766h274v-97h-172v-218h73q62 0 99 -39t37 -121v-131q0 -81 -39.5 -120.5t-102.5 -39.5zM249 173v105q0 41 -13.5 58.5t-42.5 17.5h-51v-257h51q29 0 42.5 17.5t13.5 58.5z" />
    <glyph glyph-name="uni0412" unicode="&#x412;" horiz-adv-x="386" 
d="M222 0h-182v766h172q61 0 100 -40.5t39 -119.5v-97q0 -88 -73 -116q83 -31 83 -123v-110q0 -79 -39 -119.5t-100 -40.5zM249 516v77q0 41 -13.5 58.5t-42.5 17.5h-51v-229h51q29 0 42.5 17.5t13.5 58.5zM259 173v94q0 76 -66 76h-51v-246h61q29 0 42.5 17.5t13.5 58.5z
" />
    <glyph glyph-name="uni0413" unicode="&#x413;" horiz-adv-x="321" 
d="M142 0h-102v766h274v-97h-172v-669z" />
    <glyph glyph-name="uni0414" unicode="&#x414;" horiz-adv-x="453" 
d="M445 -106h-96v106h-245v-106h-96v193q61 25 64 105l20 574h306v-669h47v-203zM296 97v572h-103l-17 -461q-3 -77 -44 -111h164z" />
    <glyph glyph-name="uni0415" unicode="&#x415;" horiz-adv-x="341" 
d="M314 0h-274v766h274v-97h-172v-234h165v-97h-165v-241h172v-97z" />
    <glyph glyph-name="uni0416" unicode="&#x416;" horiz-adv-x="558" 
d="M554 0h-102q-9 170 -121 383q101 211 102 383h102q0 -173 -96 -380q108 -215 115 -386zM330 0h-102v766h102v-766zM106 0h-102q7 171 115 386q-96 207 -96 380h102q1 -172 102 -383q-112 -213 -121 -383z" />
    <glyph glyph-name="uni0417" unicode="&#x417;" horiz-adv-x="369" 
d="M340 261v-112q0 -81 -42 -121.5t-114 -40.5q-73 0 -116.5 40.5t-43.5 119.5v68h102v-54q0 -39 16 -58t41 -19q24 0 39.5 18.5t15.5 58.5v114q0 68 -74 68q-14 0 -56 -2v101q26 -2 71 -2q32 0 45.5 17t13.5 59v89q0 39 -15.5 58t-38.5 19q-24 0 -41 -18t-17 -57v-59h-102
v72q0 79 43.5 119t117.5 40q72 0 113.5 -38t41.5 -118v-100q0 -52 -17.5 -80.5t-64.5 -49.5q46 -17 64 -48t18 -84z" />
    <glyph glyph-name="uni0418" unicode="&#x418;" horiz-adv-x="448" 
d="M408 0h-102l2 511l-135 -511h-133v766h102l-2 -520l140 520h128v-766z" />
    <glyph glyph-name="uni0419" unicode="&#x419;" horiz-adv-x="448" 
d="M408 0h-102l2 511l-135 -511h-133v766h102l-2 -520l140 520h128v-766zM287 931h56q-3 -124 -117 -124q-115 0 -117 124h56q2 -53 61 -53q57 0 61 53z" />
    <glyph glyph-name="uni041A" unicode="&#x41a;" horiz-adv-x="370" 
d="M366 0h-102q-9 170 -121 383q101 211 102 383h102q0 -173 -96 -380q108 -215 115 -386zM142 0h-102v766h102v-766z" />
    <glyph glyph-name="uni041B" unicode="&#x41b;" horiz-adv-x="423" 
d="M383 0h-102v669h-112v-521q0 -81 -44.5 -120.5t-113.5 -39.5h-4v97h4q24 0 40 18.5t16 57.5v605h316v-766z" />
    <glyph glyph-name="uni041C" unicode="&#x41c;" horiz-adv-x="580" 
d="M540 0h-102l2 573l-104 -573h-92l-104 572l2 -572h-102v766h165l85 -534l85 534h165v-766z" />
    <glyph glyph-name="uni041D" unicode="&#x41d;" horiz-adv-x="396" 
d="M356 0h-102v338h-112v-338h-102v766h102v-331h112v331h102v-766z" />
    <glyph glyph-name="uni041E" unicode="&#x41e;" horiz-adv-x="386" 
d="M35 147v472q0 81 44.5 120.5t119.5 39.5q152 0 152 -160v-472q0 -81 -44 -120.5t-113 -39.5q-70 0 -114.5 40t-44.5 120zM249 160v446q0 39 -16 57.5t-40 18.5t-40 -18.5t-16 -57.5v-446q0 -39 16 -57.5t40 -18.5t40 18.5t16 57.5z" />
    <glyph glyph-name="uni041F" unicode="&#x41f;" horiz-adv-x="396" 
d="M356 0h-102v669h-112v-669h-102v766h316v-766z" />
    <glyph glyph-name="uni0420" unicode="&#x420;" horiz-adv-x="371" 
d="M142 0h-102v766h169q63 0 102.5 -39.5t39.5 -120.5v-131q0 -82 -37 -121t-99 -39h-73v-315zM249 488v105q0 41 -13.5 58.5t-42.5 17.5h-51v-257h51q29 0 42.5 17.5t13.5 58.5z" />
    <glyph glyph-name="uni0421" unicode="&#x421;" horiz-adv-x="377" 
d="M351 256v-109q0 -81 -44 -120.5t-113 -39.5q-70 0 -114.5 40t-44.5 120v472q0 81 45 120.5t117 39.5q67 0 110.5 -36.5t43.5 -116.5v-127h-102v107q0 39 -16 57.5t-40 18.5t-40 -18.5t-16 -57.5v-446q0 -39 16 -57.5t40 -18.5t40 18.5t16 57.5v96h102z" />
    <glyph glyph-name="uni0422" unicode="&#x422;" horiz-adv-x="308" 
d="M205 0h-102v669h-95v97h292v-97h-95v-669z" />
    <glyph glyph-name="uni0423" unicode="&#x423;" horiz-adv-x="417" 
d="M126 0h-102l114 284l-148 482h103l101 -341l137 341h103z" />
    <glyph glyph-name="uni0424" unicode="&#x424;" horiz-adv-x="480" 
d="M291 -1h-102v70q-90 4 -128.5 56.5t-38.5 146.5v221q0 94 38.5 146.5t128.5 56.5v71h102v-71q167 -9 167 -203v-221q0 -194 -167 -203v-70zM189 168v429q-33 -2 -49 -30.5t-16 -66.5v-235q0 -38 16 -66.5t49 -30.5zM356 265v235q0 38 -16 66.5t-49 30.5v-429
q33 2 49 30.5t16 66.5z" />
    <glyph glyph-name="uni0425" unicode="&#x425;" horiz-adv-x="376" 
d="M377 0h-102l-84 290l-94 -290h-102l137 394l-131 372h103l87 -264l81 264h103l-118 -373z" />
    <glyph glyph-name="uni0426" unicode="&#x426;" horiz-adv-x="431" 
d="M423 -106h-96v106h-287v766h102v-669h112v669h102v-669h67v-203z" />
    <glyph glyph-name="uni0427" unicode="&#x427;" horiz-adv-x="375" 
d="M335 0h-102v313q-26 -11 -61 -11q-73 0 -110.5 38.5t-37.5 133.5v292h102v-284q0 -47 14.5 -63t45.5 -16q26 0 47 13v350h102v-766z" />
    <glyph glyph-name="uni0428" unicode="&#x428;" horiz-adv-x="590" 
d="M550 766v-766h-510v766h102v-669h102v669h102v-669h102v669h102z" />
    <glyph glyph-name="uni0429" unicode="&#x429;" horiz-adv-x="625" 
d="M617 -106h-96v106h-481v766h102v-669h102v669h102v-669h102v669h102v-669h67v-203z" />
    <glyph glyph-name="uni042A" unicode="&#x42a;" horiz-adv-x="509" 
d="M348 0h-169v669h-172v97h274v-315h73q62 0 99 -39t37 -121v-131q0 -81 -39.5 -120.5t-102.5 -39.5zM388 173v105q0 41 -13.5 58.5t-42.5 17.5h-51v-257h51q29 0 42.5 17.5t13.5 58.5z" />
    <glyph glyph-name="uni042B" unicode="&#x42b;" horiz-adv-x="573" 
d="M249 173v105q0 41 -13.5 58.5t-42.5 17.5h-51v-257h51q29 0 42.5 17.5t13.5 58.5zM209 0h-169v766h102v-315h73q62 0 99 -39t37 -121v-131q0 -81 -39.5 -120.5t-102.5 -39.5zM533 0h-102v766h102v-766z" />
    <glyph glyph-name="uni042C" unicode="&#x42c;" horiz-adv-x="370" 
d="M249 173v105q0 41 -13.5 58.5t-42.5 17.5h-51v-257h51q29 0 42.5 17.5t13.5 58.5zM209 0h-169v766h102v-315h73q62 0 99 -39t37 -121v-131q0 -81 -39.5 -120.5t-102.5 -39.5z" />
    <glyph glyph-name="uni042D" unicode="&#x42d;" horiz-adv-x="375" 
d="M340 613v-460q0 -81 -42 -123.5t-114 -42.5q-73 0 -116.5 40.5t-43.5 119.5v68h102v-54q0 -39 16 -58t41 -19q24 0 39.5 18.5t15.5 58.5v177h-154v97h154v170q0 39 -15.5 58t-38.5 19q-24 0 -41 -18t-17 -57v-59h-102v78q0 78 43 115.5t118 37.5q71 0 113 -42.5
t42 -123.5z" />
    <glyph glyph-name="uni042E" unicode="&#x42e;" horiz-adv-x="588" 
d="M142 0h-102v766h102v-331h95v184q0 81 44.5 120.5t119.5 39.5q152 0 152 -160v-472q0 -81 -44 -120.5t-113 -39.5q-70 0 -114.5 40t-44.5 120v191h-95v-338zM451 160v446q0 39 -16 57.5t-40 18.5t-40 -18.5t-16 -57.5v-446q0 -39 16 -57.5t40 -18.5t40 18.5t16 57.5z" />
    <glyph glyph-name="uni042F" unicode="&#x42f;" horiz-adv-x="376" 
d="M234 412v257h-51q-29 0 -42.5 -17.5t-13.5 -58.5v-105q0 -41 13.5 -58.5t42.5 -17.5h51zM336 0h-102v315h-39l-88 -315h-102l94 337q-41 18 -57.5 52t-16.5 94v123q0 82 39.5 121t101.5 39h170v-766z" />
    <glyph glyph-name="uni0430" unicode="&#x430;" horiz-adv-x="331" 
d="M298 0h-86l-9 47q-9 -16 -17 -25.5t-28 -19.5t-47 -10q-20 0 -33.5 6t-26 23.5t-19 53.5t-6.5 92v16q0 82 21 116t66 34q51 0 85 -46v117q0 43 -7.5 59.5t-28.5 16.5t-28.5 -16.5t-7.5 -59.5v-18h-100v35q0 154 138 154q74 0 104 -41t30 -116v-418zM198 152v22
q0 64 -36 64q-21 0 -28.5 -16.5t-7.5 -59.5v-4q0 -38 7.5 -54t28.5 -16q36 0 36 64z" />
    <glyph glyph-name="uni0431" unicode="&#x431;" horiz-adv-x="335" 
d="M33 143v318q0 120 20 179.5t75 90.5q44 25 166 38l21 -81q-105 -10 -141 -40q-42 -35 -43 -125q7 20 32.5 36.5t57.5 16.5q84 0 84 -131v-302q0 -151 -136 -151t-136 151zM205 143v271q0 67 -35 67q-37 0 -37 -77v-261q0 -56 36 -56t36 56z" />
    <glyph glyph-name="uni0432" unicode="&#x432;" horiz-adv-x="344" 
d="M215 0h-181v567h163q116 0 116 -118v-63q0 -75 -66 -96q74 -27 74 -100v-72q0 -59 -29 -88.5t-77 -29.5zM213 391v25q0 31 -10 43.5t-32 12.5h-37v-137h37q22 0 32 13t10 43zM221 152v33q0 56 -50 56h-37v-145h46q22 0 31.5 12.5t9.5 43.5z" />
    <glyph glyph-name="uni0433" unicode="&#x433;" horiz-adv-x="304" 
d="M134 0h-100v567h262v-93h-162v-474z" />
    <glyph glyph-name="uni0434" unicode="&#x434;" horiz-adv-x="395" 
d="M384 -96h-93v96h-181v-96h-101v182q49 19 52 81l15 399h271v-473h37v-189zM247 93v381h-72l-12 -295q-3 -59 -34 -86h118z" />
    <glyph glyph-name="uni0435" unicode="&#x435;" horiz-adv-x="327" 
d="M302 187v-35q0 -83 -33 -121.5t-102 -38.5q-70 0 -103.5 39t-33.5 121v263q0 82 33.5 121t103.5 39q69 0 102 -38.5t33 -121.5v-174h-172v-77q0 -43 7.5 -59.5t28.5 -16.5t28.5 16.5t7.5 59.5v23h100zM202 335v69q0 43 -7.5 59.5t-28.5 16.5t-28.5 -16.5t-7.5 -59.5v-69
h72z" />
    <glyph glyph-name="uni0436" unicode="&#x436;" horiz-adv-x="496" 
d="M482 0h-101q0 143 -82 290q82 140 82 277h102q0 -140 -78 -274q77 -145 77 -293zM298 0h-100v567h100v-567zM115 0h-101q0 148 77 293q-78 134 -78 274h102q0 -137 82 -277q-82 -147 -82 -290z" />
    <glyph glyph-name="uni0437" unicode="&#x437;" horiz-adv-x="317" 
d="M292 157v-17q0 -148 -138 -148q-68 0 -101 39t-33 121v30h100v-18q0 -43 7.5 -59.5t28.5 -16.5t28.5 16.5t7.5 59.5v11q0 37 -21.5 51.5t-43.5 14.5q-29 0 -55 -1v96q26 -1 54 -1q22 0 44 14.5t22 51.5v15q-1 35 -9 49.5t-27 14.5q-20 0 -28 -15t-8 -51v-5h-100v6
q0 160 132 160q69 0 104.5 -37.5t35.5 -102.5v-16q0 -30 -1.5 -47t-8.5 -36t-22 -30t-40 -18q47 -15 59.5 -43.5t12.5 -87.5z" />
    <glyph glyph-name="uni0438" unicode="&#x438;" horiz-adv-x="366" 
d="M332 0h-100l2 312l-107 -312h-93v567h100l-2 -312l107 312h93v-567z" />
    <glyph glyph-name="uni0439" unicode="&#x439;" horiz-adv-x="366" 
d="M332 0h-100l2 312l-107 -312h-93v567h100l-2 -312l107 312h93v-567zM241 750h56q-3 -124 -117 -124q-115 0 -117 124h56q2 -53 61 -53q57 0 61 53z" />
    <glyph glyph-name="uni043A" unicode="&#x43a;" horiz-adv-x="332" 
d="M318 0h-101q0 143 -82 290q82 140 82 277h102q0 -140 -78 -274q77 -145 77 -293zM134 0h-100v567h100v-567z" />
    <glyph glyph-name="uni043B" unicode="&#x43b;" horiz-adv-x="358" 
d="M324 0h-100v474h-72v-331q0 -74 -24.5 -112t-80.5 -38q-19 0 -39 4v81q5 -1 14 -1q30 0 30 67v423h272v-567z" />
    <glyph glyph-name="uni043C" unicode="&#x43c;" horiz-adv-x="450" 
d="M416 0h-100l2 317l-74 -317h-38l-74 317l2 -317h-100v567h114l77 -316l77 316h114v-567z" />
    <glyph glyph-name="uni043D" unicode="&#x43d;" horiz-adv-x="340" 
d="M306 0h-100v242h-72v-242h-100v567h100v-232h72v232h100v-567z" />
    <glyph glyph-name="uni043E" unicode="&#x43e;" horiz-adv-x="332" 
d="M302 415v-263q0 -83 -33 -121.5t-102 -38.5q-70 0 -103.5 39t-33.5 121v263q0 82 33.5 121t103.5 39q69 0 102 -38.5t33 -121.5zM202 164v240q0 43 -7.5 59.5t-28.5 16.5t-28.5 -16.5t-7.5 -59.5v-240q0 -43 7.5 -59.5t28.5 -16.5t28.5 16.5t7.5 59.5z" />
    <glyph glyph-name="uni043F" unicode="&#x43f;" horiz-adv-x="340" 
d="M306 0h-100v474h-72v-474h-100v567h272v-567z" />
    <glyph glyph-name="uni0440" unicode="&#x440;" horiz-adv-x="337" 
d="M134 -199h-100v766h86l9 -46q32 54 92 54q50 0 67.5 -36t17.5 -120v-271q0 -85 -18 -120.5t-68 -35.5q-55 0 -86 48v-239zM206 163v241q0 43 -7.5 59.5t-28.5 16.5t-28.5 -16.5t-7.5 -59.5v-241q0 -43 7.5 -59.5t28.5 -16.5t28.5 16.5t7.5 59.5z" />
    <glyph glyph-name="uni0441" unicode="&#x441;" horiz-adv-x="325" 
d="M302 222v-70q0 -83 -33 -121.5t-102 -38.5q-70 0 -103.5 39t-33.5 121v263q0 82 33.5 121t103.5 39q69 0 102 -38.5t33 -121.5v-56h-100v45q0 43 -7.5 59.5t-28.5 16.5t-28.5 -16.5t-7.5 -59.5v-240q0 -43 7.5 -59.5t28.5 -16.5t28.5 16.5t7.5 59.5v58h100z" />
    <glyph glyph-name="uni0442" unicode="&#x442;" horiz-adv-x="299" 
d="M199 0h-100v474h-91v93h283v-93h-92v-474z" />
    <glyph glyph-name="uni0443" unicode="&#x443;" horiz-adv-x="313" 
d="M191 -200h-104l30 162l-119 605h104l57 -402l44 402h104z" />
    <glyph glyph-name="uni0444" unicode="&#x444;" horiz-adv-x="464" 
d="M281 -198h-98v192q-157 13 -157 176v228q0 163 157 176v192h98v-192q157 -13 157 -176v-228q0 -163 -157 -176v-192zM183 91v386q-57 -8 -57 -82v-222q0 -74 57 -82zM338 173v222q0 74 -57 82v-386q57 8 57 82z" />
    <glyph glyph-name="uni0445" unicode="&#x445;" horiz-adv-x="320" 
d="M316 0h-99l-61 189l-53 -189h-98l94 290l-93 277h99l55 -172l53 172h101l-97 -278z" />
    <glyph glyph-name="uni0446" unicode="&#x446;" horiz-adv-x="381" 
d="M371 -96h-93v96h-244v567h100v-474h72v474h100v-474h65v-189z" />
    <glyph glyph-name="uni0447" unicode="&#x447;" horiz-adv-x="329" 
d="M295 567v-567h-100v257q-31 -48 -86 -48q-51 0 -68.5 35.5t-17.5 120.5v202h100v-187q0 -43 7.5 -59.5t28.5 -16.5t28.5 16.5t7.5 59.5v187h100z" />
    <glyph glyph-name="uni0448" unicode="&#x448;" horiz-adv-x="502" 
d="M468 567v-567h-434v567h100v-474h67v474h100v-474h67v474h100z" />
    <glyph glyph-name="uni0449" unicode="&#x449;" horiz-adv-x="543" 
d="M533 -96h-93v96h-406v567h100v-474h67v474h100v-474h67v474h100v-474h65v-189z" />
    <glyph glyph-name="uni044A" unicode="&#x44a;" horiz-adv-x="450" 
d="M326 0h-166v474h-152v93h252v-220h71q45 0 73 -28t28 -90v-111q0 -62 -30 -90t-76 -28zM332 151v46q0 56 -36 56h-36v-158h36q36 0 36 56z" />
    <glyph glyph-name="uni044B" unicode="&#x44b;" horiz-adv-x="505" 
d="M206 151v46q0 56 -36 56h-36v-158h36q36 0 36 56zM200 0h-166v567h100v-220h71q45 0 73 -28t28 -90v-111q0 -62 -30 -90t-76 -28zM471 0h-100v567h100v-567z" />
    <glyph glyph-name="uni044C" unicode="&#x44c;" horiz-adv-x="324" 
d="M206 151v46q0 56 -36 56h-36v-158h36q36 0 36 56zM200 0h-166v567h100v-220h71q45 0 73 -28t28 -90v-111q0 -62 -30 -90t-76 -28z" />
    <glyph glyph-name="uni044D" unicode="&#x44d;" horiz-adv-x="322" 
d="M292 415v-263q0 -82 -33.5 -121t-103.5 -39q-69 0 -102 38.5t-33 121.5v30h100v-18q0 -43 7.5 -59.5t28.5 -16.5t28.5 16.5t7.5 59.5v78h-150v93h150v69q0 43 -7.5 59.5t-28.5 16.5t-28.5 -16.5t-7.5 -59.5v-5h-100v16q0 83 33 121.5t102 38.5q70 0 103.5 -39t33.5 -121z
" />
    <glyph glyph-name="uni044E" unicode="&#x44e;" horiz-adv-x="511" 
d="M134 0h-100v567h100v-232h75v80q0 82 33.5 121t103.5 39q69 0 102 -38.5t33 -121.5v-263q0 -83 -33 -121.5t-102 -38.5q-70 0 -103.5 39t-33.5 121v90h-75v-242zM381 164v240q0 43 -7.5 59.5t-28.5 16.5t-28.5 -16.5t-7.5 -59.5v-240q0 -43 7.5 -59.5t28.5 -16.5
t28.5 16.5t7.5 59.5z" />
    <glyph glyph-name="uni044F" unicode="&#x44f;" horiz-adv-x="332" 
d="M298 0h-100v222h-32l-62 -222h-93l67 232q-52 26 -52 108v109q0 62 30 90t76 28h166v-567zM198 316v156h-36q-36 0 -36 -56v-44q0 -56 36 -56h36z" />
    <glyph glyph-name="uni0451" unicode="&#x451;" horiz-adv-x="327" 
d="M302 187v-35q0 -83 -33 -121.5t-102 -38.5q-70 0 -103.5 39t-33.5 121v263q0 82 33.5 121t103.5 39q69 0 102 -38.5t33 -121.5v-174h-172v-77q0 -43 7.5 -59.5t28.5 -16.5t28.5 16.5t7.5 59.5v23h100zM202 335v69q0 43 -7.5 59.5t-28.5 16.5t-28.5 -16.5t-7.5 -59.5v-69
h72zM81 627q-24 0 -42 17.5t-18 42.5q0 24 18 41.5t42 17.5q25 0 42 -17t17 -42t-17 -42.5t-42 -17.5zM251 627q-24 0 -41.5 17.5t-17.5 42.5t17.5 42t41.5 17q25 0 42.5 -17t17.5 -42t-17.5 -42.5t-42.5 -17.5z" />
    <glyph glyph-name="uni0452" unicode="&#x452;" 
d="M140 -203v80q7 -1 16 -1q30 0 40 18t10 59v451q0 43 -7.5 59.5t-28.5 16.5t-28.5 -16.5t-7.5 -59.5v-404h-100v642h-34v71h34v53h100v-53h115v-71h-115v-115q31 48 86 48q50 0 68 -35.5t18 -120.5v-477q0 -81 -28 -115.5t-94 -34.5q-22 0 -44 5z" />
    <glyph glyph-name="uni0453" unicode="&#x453;" horiz-adv-x="304" 
d="M134 0h-100v567h262v-93h-162v-474zM189 637h-73l57 131h111z" />
    <glyph glyph-name="uni0454" unicode="&#x454;" horiz-adv-x="322" 
d="M302 182v-30q0 -83 -33 -121.5t-102 -38.5q-70 0 -103.5 39t-33.5 121v263q0 82 33.5 121t103.5 39q69 0 102 -38.5t33 -121.5v-16h-100v5q0 43 -7.5 59.5t-28.5 16.5t-28.5 -16.5t-7.5 -59.5v-69h150v-93h-150v-78q0 -43 7.5 -59.5t28.5 -16.5t28.5 16.5t7.5 59.5v18
h100z" />
    <glyph glyph-name="uni0455" unicode="&#x455;" horiz-adv-x="327" 
d="M122 187v-24q0 -39 9.5 -57.5t32.5 -18.5q40 0 40 50q0 28 -13.5 51t-33.5 37.5t-44 33.5t-44 38.5t-33.5 53.5t-13.5 78q0 146 144 146q72 0 105 -38t33 -122v-37h-100v26q0 42 -8.5 59t-31.5 17q-41 0 -41 -51q0 -32 13.5 -56t33.5 -37.5t43.5 -31.5t43.5 -36
t33.5 -51.5t13.5 -78.5q0 -146 -142 -146q-72 0 -106 39t-34 119v37h100z" />
    <glyph glyph-name="uni0456" unicode="&#x456;" horiz-adv-x="168" 
d="M134 0h-100v567h100v-567zM84 625q-26 0 -44.5 18.5t-18.5 44.5t18.5 44.5t44.5 18.5t44.5 -18.5t18.5 -44.5t-18.5 -44.5t-44.5 -18.5z" />
    <glyph glyph-name="uni0457" unicode="&#x457;" horiz-adv-x="168" 
d="M134 0h-100v567h100v-567zM-1 627q-24 0 -42 17.5t-18 42.5q0 24 18 41.5t42 17.5q25 0 42 -17t17 -42t-17 -42.5t-42 -17.5zM169 627q-24 0 -41.5 17.5t-17.5 42.5t17.5 42t41.5 17q25 0 42.5 -17t17.5 -42t-17.5 -42.5t-42.5 -17.5z" />
    <glyph glyph-name="uni0458" unicode="&#x458;" horiz-adv-x="168" 
d="M-32 -203v80q7 -1 16 -1q30 0 40 18t10 59v614h100v-625q0 -81 -28 -115.5t-94 -34.5q-22 0 -44 5zM84 625q-26 0 -44.5 18.5t-18.5 44.5t18.5 44.5t44.5 18.5t44.5 -18.5t18.5 -44.5t-18.5 -44.5t-44.5 -18.5z" />
    <glyph glyph-name="uni0459" unicode="&#x459;" horiz-adv-x="514" 
d="M390 0h-166v474h-72v-331q0 -74 -24.5 -112t-80.5 -38q-19 0 -39 4v81q5 -1 14 -1q30 0 30 67v423h272v-220h71q45 0 73 -28t28 -90v-111q0 -62 -30 -90t-76 -28zM396 151v46q0 56 -36 56h-36v-158h36q36 0 36 56z" />
    <glyph glyph-name="uni045A" unicode="&#x45a;" horiz-adv-x="496" 
d="M372 0h-166v253h-72v-253h-100v567h100v-221h72v221h100v-220h71q45 0 73 -28t28 -90v-111q0 -62 -30 -90t-76 -28zM378 151v46q0 56 -36 56h-36v-158h36q36 0 36 56z" />
    <glyph glyph-name="uni045B" unicode="&#x45b;" 
d="M306 0h-100v404q0 43 -7.5 59.5t-28.5 16.5t-28.5 -16.5t-7.5 -59.5v-404h-100v642h-34v71h34v53h100v-53h115v-71h-115v-115q31 48 86 48q50 0 68 -35.5t18 -120.5v-419z" />
    <glyph glyph-name="uni045C" unicode="&#x45c;" horiz-adv-x="332" 
d="M318 0h-101q0 143 -82 290q82 140 82 277h102q0 -140 -78 -274q77 -145 77 -293zM134 0h-100v567h100v-567zM188 637h-73l57 131h111z" />
    <glyph glyph-name="uni045E" unicode="&#x45e;" horiz-adv-x="313" 
d="M191 -200h-104l30 162l-119 605h104l57 -402l44 402h104zM215 750h56q-3 -124 -117 -124q-115 0 -117 124h56q2 -53 61 -53q57 0 61 53z" />
    <glyph glyph-name="uni045F" unicode="&#x45f;" horiz-adv-x="340" 
d="M217 -96h-93v96h-90v567h100v-474h72v474h100v-567h-89v-96z" />
    <glyph glyph-name="uni0490" unicode="&#x490;" horiz-adv-x="321" 
d="M142 0h-102v766h178v106h96v-203h-172v-669z" />
    <glyph glyph-name="uni0491" unicode="&#x491;" horiz-adv-x="304" 
d="M134 0h-100v567h169v96h93v-189h-162v-474z" />
    <glyph glyph-name="uni1E02" unicode="&#x1e02;" horiz-adv-x="386" 
d="M222 0h-182v766h172q61 0 100 -40.5t39 -119.5v-97q0 -88 -73 -116q83 -31 83 -123v-110q0 -79 -39 -119.5t-100 -40.5zM249 516v77q0 41 -13.5 58.5t-42.5 17.5h-51v-229h51q29 0 42.5 17.5t13.5 58.5zM259 173v94q0 76 -66 76h-51v-246h61q29 0 42.5 17.5t13.5 58.5z
M186 831q-24 0 -42 17.5t-18 42.5q0 24 18 41.5t42 17.5q25 0 42 -17t17 -42t-17 -42.5t-42 -17.5z" />
    <glyph glyph-name="uni1E03" unicode="&#x1e03;" horiz-adv-x="337" 
d="M120 0h-86v766h100v-239q31 48 86 48q50 0 68 -35.5t18 -120.5v-271q0 -84 -17.5 -120t-67.5 -36q-60 0 -92 54zM206 163v241q0 43 -7.5 59.5t-28.5 16.5t-28.5 -16.5t-7.5 -59.5v-241q0 -43 7.5 -59.5t28.5 -16.5t28.5 16.5t7.5 59.5zM239 637q-24 0 -42 17.5t-18 42.5
q0 24 18 41.5t42 17.5q25 0 42 -17t17 -42t-17 -42.5t-42 -17.5z" />
    <glyph glyph-name="uni1E0A" unicode="&#x1e0a;" horiz-adv-x="386" 
d="M212 0h-172v766h172q62 0 100.5 -39t38.5 -121v-446q0 -82 -38.5 -121t-100.5 -39zM249 173v420q0 41 -13.5 58.5t-42.5 17.5h-51v-572h51q29 0 42.5 17.5t13.5 58.5zM186 831q-24 0 -42 17.5t-18 42.5q0 24 18 41.5t42 17.5q25 0 42 -17t17 -42t-17 -42.5t-42 -17.5z
" />
    <glyph glyph-name="uni1E0B" unicode="&#x1e0b;" horiz-adv-x="337" 
d="M303 0h-86l-9 46q-32 -54 -92 -54q-50 0 -67.5 36t-17.5 120v271q0 85 17.5 120.5t68.5 35.5q55 0 86 -48v239h100v-766zM203 163v241q0 43 -7.5 59.5t-28.5 16.5t-28.5 -16.5t-7.5 -59.5v-241q0 -43 7.5 -59.5t28.5 -16.5t28.5 16.5t7.5 59.5zM98 637q-24 0 -42 17.5
t-18 42.5q0 24 18 41.5t42 17.5q25 0 42 -17t17 -42t-17 -42.5t-42 -17.5z" />
    <glyph glyph-name="uni1E1E" unicode="&#x1e1e;" horiz-adv-x="336" 
d="M142 0h-102v766h274v-97h-172v-234h165v-97h-165v-338zM182 831q-24 0 -42 17.5t-18 42.5q0 24 18 41.5t42 17.5q25 0 42 -17t17 -42t-17 -42.5t-42 -17.5z" />
    <glyph glyph-name="uni1E1F" unicode="&#x1e1f;" horiz-adv-x="233" 
d="M162 0h-100v474h-55v93h55v70q0 77 28.5 108.5t84.5 31.5q35 0 53 -7v-83q-14 2 -20 2q-28 0 -37 -18.5t-9 -59.5v-44h65v-93h-65v-474zM143 824q-24 0 -42 17.5t-18 42.5q0 24 18 41.5t42 17.5q25 0 42 -17t17 -42t-17 -42.5t-42 -17.5z" />
    <glyph glyph-name="uni1E22" unicode="&#x1e22;" horiz-adv-x="396" 
d="M356 0h-102v338h-112v-338h-102v766h102v-331h112v331h102v-766zM198 831q-24 0 -42 17.5t-18 42.5q0 24 18 41.5t42 17.5q25 0 42 -17t17 -42t-17 -42.5t-42 -17.5z" />
    <glyph glyph-name="uni1E23" unicode="&#x1e23;" 
d="M306 0h-100v404q0 43 -7.5 59.5t-28.5 16.5t-28.5 -16.5t-7.5 -59.5v-404h-100v766h100v-239q31 48 86 48q50 0 68 -35.5t18 -120.5v-419zM239 637q-24 0 -42 17.5t-18 42.5q0 24 18 41.5t42 17.5q25 0 42 -17t17 -42t-17 -42.5t-42 -17.5z" />
    <glyph glyph-name="uni1E40" unicode="&#x1e40;" horiz-adv-x="580" 
d="M540 0h-102l2 573l-104 -573h-92l-104 572l2 -572h-102v766h165l85 -534l85 534h165v-766zM290 831q-24 0 -42 17.5t-18 42.5q0 24 18 41.5t42 17.5q25 0 42 -17t17 -42t-17 -42.5t-42 -17.5z" />
    <glyph glyph-name="uni1E41" unicode="&#x1e41;" horiz-adv-x="511" 
d="M478 0h-100v404q0 43 -7.5 59.5t-28.5 16.5t-28.5 -16.5t-7.5 -59.5v-404h-100v404q0 43 -7.5 59.5t-28.5 16.5t-28.5 -16.5t-7.5 -59.5v-404h-100v567h86l9 -46q32 54 92 54q63 0 78 -66q32 66 95 66q49 0 66.5 -36t17.5 -120v-419zM257 632q-24 0 -42 17.5t-18 42.5
q0 24 18 41.5t42 17.5q25 0 42 -17t17 -42t-17 -42.5t-42 -17.5z" />
    <glyph glyph-name="uni1E56" unicode="&#x1e56;" horiz-adv-x="371" 
d="M142 0h-102v766h169q63 0 102.5 -39.5t39.5 -120.5v-131q0 -82 -37 -121t-99 -39h-73v-315zM249 488v105q0 41 -13.5 58.5t-42.5 17.5h-51v-257h51q29 0 42.5 17.5t13.5 58.5zM181 831q-24 0 -42 17.5t-18 42.5q0 24 18 41.5t42 17.5q25 0 42 -17t17 -42t-17 -42.5
t-42 -17.5z" />
    <glyph glyph-name="uni1E57" unicode="&#x1e57;" horiz-adv-x="337" 
d="M134 -199h-100v766h86l9 -46q32 54 92 54q50 0 67.5 -36t17.5 -120v-271q0 -85 -18 -120.5t-68 -35.5q-55 0 -86 48v-239zM206 163v241q0 43 -7.5 59.5t-28.5 16.5t-28.5 -16.5t-7.5 -59.5v-241q0 -43 7.5 -59.5t28.5 -16.5t28.5 16.5t7.5 59.5zM168 632q-24 0 -42 17.5
t-18 42.5q0 24 18 41.5t42 17.5q25 0 42 -17t17 -42t-17 -42.5t-42 -17.5z" />
    <glyph glyph-name="uni1E60" unicode="&#x1e60;" horiz-adv-x="371" 
d="M343 244v-97q0 -80 -42.5 -120t-115.5 -40t-115.5 40.5t-42.5 119.5v109h102v-96q0 -39 16 -57.5t40 -18.5t40 18.5t16 57.5v63q0 23 -22 49t-53.5 52t-63 54.5t-53.5 66.5t-22 78v96q0 80 44.5 120t113.5 40q158 0 158 -160v-120h-102v107q0 39 -16 57.5t-40 18.5
t-40 -18.5t-16 -57.5v-64q0 -32 22 -61t53.5 -53.5t63 -49.5t53.5 -60t22 -74zM185 831q-24 0 -42 17.5t-18 42.5q0 24 18 41.5t42 17.5q25 0 42 -17t17 -42t-17 -42.5t-42 -17.5z" />
    <glyph glyph-name="uni1E61" unicode="&#x1e61;" horiz-adv-x="323" 
d="M120 187v-24q0 -39 9.5 -57.5t32.5 -18.5q40 0 40 50q0 28 -13.5 51t-33.5 37.5t-44 33.5t-44 38.5t-33.5 53.5t-13.5 78q0 146 144 146q72 0 105 -38t33 -122v-37h-100v26q0 42 -8.5 59t-31.5 17q-41 0 -41 -51q0 -32 13.5 -56t33.5 -37.5t43.5 -31.5t43.5 -36
t33.5 -51.5t13.5 -78.5q0 -146 -142 -146q-72 0 -106 39t-34 119v37h100zM161 632q-24 0 -42 17.5t-18 42.5q0 24 18 41.5t42 17.5q25 0 42 -17t17 -42t-17 -42.5t-42 -17.5z" />
    <glyph glyph-name="uni1E6A" unicode="&#x1e6a;" horiz-adv-x="308" 
d="M205 0h-102v669h-95v97h292v-97h-95v-669zM154 831q-24 0 -42 17.5t-18 42.5q0 24 18 41.5t42 17.5q25 0 42 -17t17 -42t-17 -42.5t-42 -17.5z" />
    <glyph glyph-name="uni1E6B" unicode="&#x1e6b;" horiz-adv-x="231" 
d="M219 82v-85q-22 -5 -40 -5q-69 0 -97.5 34t-28.5 116v332h-45v93h45v140h100v-140h65v-93h-65v-316q0 -41 9 -59.5t37 -18.5q6 0 20 2zM106 762q-24 0 -42 17.5t-18 42.5q0 24 18 41.5t42 17.5q25 0 42 -17t17 -42t-17 -42.5t-42 -17.5z" />
    <glyph glyph-name="Wgrave" unicode="&#x1e80;" horiz-adv-x="611" 
d="M602 766l-84 -766h-145l-68 618l-67 -618h-145l-84 766h102l57 -592l66 592h143l66 -592l57 592h102zM350 836h-73l-95 131h111z" />
    <glyph glyph-name="wgrave" unicode="&#x1e81;" horiz-adv-x="514" 
d="M429 0h-131l-41 407l-41 -407h-131l-77 567h104l45 -432l46 432h108l46 -432l45 432h104zM308 637h-73l-95 131h111z" />
    <glyph glyph-name="Wacute" unicode="&#x1e82;" horiz-adv-x="611" 
d="M602 766l-84 -766h-145l-68 618l-67 -618h-145l-84 766h102l57 -592l66 592h143l66 -592l57 592h102zM332 836h-73l57 131h111z" />
    <glyph glyph-name="wacute" unicode="&#x1e83;" horiz-adv-x="514" 
d="M429 0h-131l-41 407l-41 -407h-131l-77 567h104l45 -432l46 432h108l46 -432l45 432h104zM285 637h-73l57 131h111z" />
    <glyph glyph-name="Wdieresis" unicode="&#x1e84;" horiz-adv-x="611" 
d="M602 766l-84 -766h-145l-68 618l-67 -618h-145l-84 766h102l57 -592l66 592h143l66 -592l57 592h102zM220 826q-24 0 -42 17.5t-18 42.5q0 24 18 41.5t42 17.5q25 0 42 -17t17 -42t-17 -42.5t-42 -17.5zM390 826q-24 0 -41.5 17.5t-17.5 42.5t17.5 42t41.5 17
q25 0 42.5 -17t17.5 -42q0 -26 -17 -43t-43 -17z" />
    <glyph glyph-name="wdieresis" unicode="&#x1e85;" horiz-adv-x="514" 
d="M429 0h-131l-41 407l-41 -407h-131l-77 567h104l45 -432l46 432h108l46 -432l45 432h104zM171 627q-24 0 -42 17.5t-18 42.5q0 24 18 41.5t42 17.5q25 0 42 -17t17 -42t-17 -42.5t-42 -17.5zM341 627q-24 0 -41.5 17.5t-17.5 42.5t17.5 42t41.5 17q25 0 42.5 -17
t17.5 -42t-17.5 -42.5t-42.5 -17.5z" />
    <glyph glyph-name="Ygrave" unicode="&#x1ef2;" horiz-adv-x="357" 
d="M229 0h-102v266l-127 500h103l75 -347l77 347h103l-129 -499v-267zM227 836h-73l-95 131h111z" />
    <glyph glyph-name="ygrave" unicode="&#x1ef3;" horiz-adv-x="316" 
d="M194 -200h-104l30 162l-119 605h104l57 -402l44 402h104zM214 637h-73l-95 131h111z" />
    <glyph glyph-name="endash" unicode="&#x2013;" horiz-adv-x="316" 
d="M284 244h-252v96h252v-96z" />
    <glyph glyph-name="emdash" unicode="&#x2014;" horiz-adv-x="448" 
d="M416 244h-384v96h384v-96z" />
    <glyph glyph-name="uni2015" unicode="&#x2015;" horiz-adv-x="1064" 
d="M1032 244h-1000v96h1000v-96z" />
    <glyph glyph-name="quoteleft" unicode="&#x2018;" horiz-adv-x="200" 
d="M132 543h-113l100 223h70z" />
    <glyph glyph-name="quoteright" unicode="&#x2019;" horiz-adv-x="195" 
d="M90 543h-70l57 223h113z" />
    <glyph glyph-name="quotesinglbase" unicode="&#x201a;" horiz-adv-x="231" 
d="M90 -135h-70l56 223h113z" />
    <glyph glyph-name="quotedblleft" unicode="&#x201c;" horiz-adv-x="355" 
d="M287 543h-113l100 223h70zM132 543h-113l100 223h70z" />
    <glyph glyph-name="quotedblright" unicode="&#x201d;" horiz-adv-x="350" 
d="M90 543h-70l57 223h113zM245 543h-70l57 223h113z" />
    <glyph glyph-name="quotedblbase" unicode="&#x201e;" horiz-adv-x="386" 
d="M90 -135h-70l56 223h113zM245 -135h-70l56 223h113z" />
    <glyph glyph-name="dagger" unicode="&#x2020;" horiz-adv-x="332" 
d="M206 -60h-80l-10 537l-100 -5v95l105 -5l-10 204h110l-11 -204l106 5v-95l-100 5z" />
    <glyph glyph-name="daggerdbl" unicode="&#x2021;" horiz-adv-x="344" 
d="M212 -60h-80l-7 296l-103 -4v95l103 -5q-3 34 -3 68q0 48 4 87l-104 -5v95l105 -5l-10 204h110l-11 -204l106 5v-95l-104 5q3 -42 3 -83q0 -36 -3 -72l104 5v-95l-104 4z" />
    <glyph glyph-name="bullet" unicode="&#x2022;" horiz-adv-x="329" 
d="M167 262q-52 0 -88.5 34.5t-36.5 87.5q0 50 36 86t87 36q44 0 82.5 -29t38.5 -93q0 -55 -36 -88.5t-83 -33.5z" />
    <glyph glyph-name="onedotenleader" unicode="&#x2024;" horiz-adv-x="172" 
d="M86 -8q-26 0 -44.5 18.5t-18.5 44.5t18.5 44.5t44.5 18.5t44.5 -18.5t18.5 -44.5t-18.5 -44.5t-44.5 -18.5z" />
    <glyph glyph-name="twodotenleader" unicode="&#x2025;" horiz-adv-x="344" 
d="M86 -8q-26 0 -44.5 18.5t-18.5 44.5t18.5 44.5t44.5 18.5t44.5 -18.5t18.5 -44.5t-18.5 -44.5t-44.5 -18.5zM258 -8q-26 0 -44.5 18.5t-18.5 44.5t18.5 44.5t44.5 18.5t44.5 -18.5t18.5 -44.5t-18.5 -44.5t-44.5 -18.5z" />
    <glyph glyph-name="ellipsis" unicode="&#x2026;" horiz-adv-x="516" 
d="M86 -8q-26 0 -44.5 18.5t-18.5 44.5t18.5 44.5t44.5 18.5t44.5 -18.5t18.5 -44.5t-18.5 -44.5t-44.5 -18.5zM258 -8q-26 0 -44.5 18.5t-18.5 44.5t18.5 44.5t44.5 18.5t44.5 -18.5t18.5 -44.5t-18.5 -44.5t-44.5 -18.5zM430 -8q-26 0 -44.5 18.5t-18.5 44.5t18.5 44.5
t44.5 18.5t44.5 -18.5t18.5 -44.5t-18.5 -44.5t-44.5 -18.5z" />
    <glyph glyph-name="perthousand" unicode="&#x2030;" horiz-adv-x="1040" 
d="M313 0h-91l206 766h91zM271 612v-180q0 -85 -28.5 -122.5t-96.5 -37.5q-69 0 -98 38t-29 122v180q0 84 29 122t98 38q68 0 96.5 -37.5t28.5 -122.5zM181 443v158q0 43 -7.5 59.5t-28.5 16.5t-28.5 -16.5t-7.5 -59.5v-158q0 -43 7.5 -59.5t28.5 -16.5t28.5 16.5t7.5 59.5z
M719 331v-180q0 -85 -28.5 -122.5t-96.5 -37.5q-69 0 -98 38t-29 122v180q0 84 29 122t98 38q68 0 96.5 -37.5t28.5 -122.5zM629 162v158q0 43 -7.5 59.5t-28.5 16.5t-28.5 -16.5t-7.5 -59.5v-158q0 -43 7.5 -59.5t28.5 -16.5t28.5 16.5t7.5 59.5zM1021 331v-180
q0 -85 -28.5 -122.5t-96.5 -37.5q-69 0 -98 38t-29 122v180q0 84 29 122t98 38q68 0 96.5 -37.5t28.5 -122.5zM931 162v158q0 43 -7.5 59.5t-28.5 16.5t-28.5 -16.5t-7.5 -59.5v-158q0 -43 7.5 -59.5t28.5 -16.5t28.5 16.5t7.5 59.5z" />
    <glyph glyph-name="guilsinglleft" unicode="&#x2039;" horiz-adv-x="224" 
d="M194 90h-102l-78 177l78 179h102l-79 -179z" />
    <glyph glyph-name="guilsinglright" unicode="&#x203a;" horiz-adv-x="224" 
d="M132 90h-102l79 177l-79 179h102l78 -179z" />
    <glyph glyph-name="fraction" unicode="&#x2044;" horiz-adv-x="278" 
d="M76 0h-81l206 766h81z" />
    <glyph glyph-name="foursuperior" unicode="&#x2074;" horiz-adv-x="263" 
d="M211 384h-77v72h-117v69l77 242h117v-242h33v-69h-33v-72zM134 525v172l-43 -172h43z" />
    <glyph glyph-name="Euro" unicode="&#x20ac;" horiz-adv-x="409" 
d="M384 186v-39q0 -81 -44.5 -120.5t-113.5 -39.5t-113.5 40t-44.5 120v107h-48v96h48v64h-49v96h49v109q0 80 44.5 120t113.5 40q71 0 114.5 -36t43.5 -117v-57h-102v37q0 39 -16 57.5t-40 18.5t-40 -18.5t-16 -57.5v-96h151v-96h-151v-64h152v-96h-152v-94q0 -39 16 -57.5
t40 -18.5t40 18.5t16 57.5v26h102z" />
    <glyph glyph-name="uni2116" unicode="&#x2116;" horiz-adv-x="747" 
d="M416 0h-134l-132 511v-511h-102v766h129l137 -520v520h102v-766zM724 507v-90q0 -85 -28.5 -122.5t-96.5 -37.5q-69 0 -98 38t-29 122v90q0 84 29 122t98 38q68 0 96.5 -37.5t28.5 -122.5zM715 98h-230v86h230v-86zM634 428v68q0 43 -7.5 59.5t-28.5 16.5t-28.5 -16.5
t-7.5 -59.5v-68q0 -43 7.5 -59.5t28.5 -16.5t28.5 16.5t7.5 59.5z" />
    <glyph glyph-name="Omega" unicode="&#x2126;" horiz-adv-x="388" 
d="M360 0h-151v106q41 10 41 74v426q0 38 -15.5 57t-40.5 19t-40.5 -19t-15.5 -57v-426q0 -64 41 -74v-106h-151v98l91 -6q-45 14 -64 49t-19 99v379q0 87 47.5 123.5t110.5 36.5q158 0 158 -160v-379q0 -64 -19 -99t-64 -49l91 6v-98z" />
    <glyph glyph-name="angstrom" unicode="&#x212b;" horiz-adv-x="383" 
d="M370 0h-102l-20 170h-113l-20 -170h-102l111 755q-20 23 -20 57q0 37 25 62t62 25t62 -25t25 -62q0 -33 -21 -57zM236 267l-45 392l-45 -392h90zM222 812q0 14 -9 22.5t-22 8.5t-22 -8.5t-9 -22.5t9 -22.5t22 -8.5t22 8.5t9 22.5z" />
    <glyph glyph-name="onethird" unicode="&#x2153;" horiz-adv-x="565" 
d="M159 384h-82v298l-62 -29v77l73 37h71v-383zM544 116v-34q0 -40 -27 -64.5t-80 -24.5q-54 0 -80.5 24.5t-26.5 64.5v24h81v-9q0 -35 26 -35q25 0 25 35v30q0 31 -38 31q-8 0 -20 -1v69q11 -1 19 -1q20 0 29.5 6t9.5 24v29q0 35 -25 35q-26 0 -26 -35v-11h-81v26
q0 40 26.5 64.5t80.5 24.5q53 0 80 -24.5t27 -64.5v-37q0 -52 -39 -68q39 -13 39 -78zM193 0h-81l206 766h81z" />
    <glyph glyph-name="twothirds" unicode="&#x2154;" horiz-adv-x="615" 
d="M227 384h-206v53q0 29 20.5 56t45.5 44.5t45.5 42t20.5 48.5v40q0 35 -26 35t-26 -35v-43h-80v49q0 44 25 71.5t81 27.5q57 0 82.5 -28t25.5 -71v-51q0 -32 -17.5 -59.5t-39 -43t-39 -33t-17.5 -31.5h105v-72zM598 116v-34q0 -40 -27 -64.5t-80 -24.5q-54 0 -80.5 24.5
t-26.5 64.5v24h81v-9q0 -35 26 -35q25 0 25 35v30q0 31 -38 31q-8 0 -20 -1v69q11 -1 19 -1q20 0 29.5 6t9.5 24v29q0 35 -25 35q-26 0 -26 -35v-11h-81v26q0 40 26.5 64.5t80.5 24.5q53 0 80 -24.5t27 -64.5v-37q0 -52 -39 -68q39 -13 39 -78zM247 0h-81l206 766h81z" />
    <glyph glyph-name="Delta" unicode="&#x2206;" horiz-adv-x="387" 
d="M372 0h-357l103 766h150zM258 97l-65 562l-65 -562h130z" />
    <glyph glyph-name="product" unicode="&#x220f;" horiz-adv-x="412" 
d="M364 -100h-102v769h-112v-769h-102v866h316v-866z" />
    <glyph glyph-name="summation" unicode="&#x2211;" horiz-adv-x="315" 
d="M295 -120h-276v97l119 356l-119 336v97h276v-97h-171l118 -336l-118 -356h171v-97z" />
    <glyph glyph-name="minus" unicode="&#x2212;" horiz-adv-x="422" 
d="M402 316h-382v94h382v-94z" />
    <glyph glyph-name="notequal" unicode="&#x2260;" horiz-adv-x="422" 
d="M402 230h-177l-29 -118h-95l29 118h-110v94h134l19 76h-153v94h176l30 118h95l-30 -118h111v-94h-134l-19 -76h153v-94z" />
    <glyph glyph-name="commaaccent" unicode="&#xf6c3;" horiz-adv-x="217" 
d="M110 -206h-76l53 156h106z" />
    <glyph glyph-name="apple" unicode="&#xf8ff;" horiz-adv-x="1006" 
d="M604 0h-202l-100 503l201 198l202 -198zM353 0h-172l-131 171l86 163l166 -82zM826 0h-172l51 252l165 82l86 -163z" />
    <glyph glyph-name="G.alt" horiz-adv-x="391" 
d="M259 160v160h-68v97h170v-270q0 -82 -45 -121t-117 -39q-73 0 -118.5 39.5t-45.5 120.5v472q0 81 44.5 120.5t119.5 39.5t118.5 -39.5t43.5 -120.5v-119h-102v106q0 76 -61 76t-61 -76v-446q0 -76 61 -76t61 76z" />
    <glyph glyph-name="J.alt" horiz-adv-x="207" 
d="M11 -12h-4v97h4q24 0 40 18.5t16 57.5v605h102v-618q0 -81 -44.5 -120.5t-113.5 -39.5z" />
    <glyph glyph-name="R.alt" horiz-adv-x="383" 
d="M351 0h-102v239q0 76 -66 76h-41v-315h-102v766h172q61 0 100 -40.5t39 -119.5v-125q0 -87 -73 -116q73 -20 73 -123v-242zM249 488v105q0 41 -13.5 58.5t-42.5 17.5h-51v-257h51q29 0 42.5 17.5t13.5 58.5z" />
    <glyph glyph-name="a.alt" horiz-adv-x="331" 
d="M298 0h-87l-8 46q-11 -23 -34 -38.5t-52 -15.5q-52 0 -71.5 41t-19.5 123v36q0 81 26 116.5t81 35.5h65v60q0 43 -7.5 59.5t-28.5 16.5t-28.5 -16.5t-7.5 -59.5v-18h-100v27q0 83 33 122.5t103 39.5t103 -37.5t33 -118.5v-419zM198 164v103h-36q-20 0 -28 -21t-8 -65v-17
q0 -43 7.5 -59.5t28.5 -16.5t28.5 16.5t7.5 59.5z" />
    <glyph glyph-name="g.alt" horiz-adv-x="337" 
d="M203 -36v73q-30 -45 -87 -45q-50 0 -67.5 36t-17.5 120v271q0 84 17.5 120t67.5 36q60 0 92 -54l9 46h86v-615q0 -81 -33 -120.5t-103 -39.5q-136 0 -136 150v2h100q2 -30 9 -43t27 -13q21 0 28.5 16.5t7.5 59.5zM203 163v241q0 43 -7.5 59.5t-28.5 16.5t-28.5 -16.5
t-7.5 -59.5v-241q0 -43 7.5 -59.5t28.5 -16.5t28.5 16.5t7.5 59.5z" />
    <glyph glyph-name="j.alt" horiz-adv-x="168" 
d="M114 -199h-100q20 66 20 169v597h100v-601q0 -100 -20 -165zM84 625q-26 0 -44.5 18.5t-18.5 44.5t18.5 44.5t44.5 18.5t44.5 -18.5t18.5 -44.5t-18.5 -44.5t-44.5 -18.5z" />
    <glyph glyph-name="y.alt" 
d="M205 -36v73q-30 -45 -87 -45q-50 0 -67.5 36t-17.5 120v419h100v-404q0 -43 7.5 -59.5t28.5 -16.5t28.5 16.5t7.5 59.5v404h100v-615q0 -81 -33 -120.5t-103 -39.5q-136 0 -136 150v2h100q2 -30 9 -43t27 -13q21 0 28.5 16.5t7.5 59.5z" />
    <glyph glyph-name="Gcircumflex.alt" horiz-adv-x="391" 
d="M259 160v160h-68v97h170v-270q0 -82 -45 -121t-117 -39q-73 0 -118.5 39.5t-45.5 120.5v472q0 81 44.5 120.5t119.5 39.5t118.5 -39.5t43.5 -120.5v-119h-102v106q0 76 -61 76t-61 -76v-446q0 -76 61 -76t61 76zM320 836h-78l-45 77l-40 -77h-81l75 141h90z" />
    <glyph glyph-name="Gbreve.alt" horiz-adv-x="391" 
d="M259 160v160h-68v97h170v-270q0 -82 -45 -121t-117 -39q-73 0 -118.5 39.5t-45.5 120.5v472q0 81 44.5 120.5t119.5 39.5t118.5 -39.5t43.5 -120.5v-119h-102v106q0 76 -61 76t-61 -76v-446q0 -76 61 -76t61 76zM259 949h56q-3 -124 -117 -124q-115 0 -117 124h56
q2 -53 61 -53q57 0 61 53z" />
    <glyph glyph-name="Gdotaccent.alt" horiz-adv-x="391" 
d="M259 160v160h-68v97h170v-270q0 -82 -45 -121t-117 -39q-73 0 -118.5 39.5t-45.5 120.5v472q0 81 44.5 120.5t119.5 39.5t118.5 -39.5t43.5 -120.5v-119h-102v106q0 76 -61 76t-61 -76v-446q0 -76 61 -76t61 76zM198 831q-24 0 -42 17.5t-18 42.5q0 24 18 41.5t42 17.5
q25 0 42 -17t17 -42t-17 -42.5t-42 -17.5z" />
    <glyph glyph-name="Gcommaaccent.alt" horiz-adv-x="391" 
d="M259 160v160h-68v97h170v-270q0 -82 -45 -121t-117 -39q-73 0 -118.5 39.5t-45.5 120.5v472q0 81 44.5 120.5t119.5 39.5t118.5 -39.5t43.5 -120.5v-119h-102v106q0 76 -61 76t-61 -76v-446q0 -76 61 -76t61 76zM193 -206h-76l53 156h106z" />
    <glyph glyph-name="IJ.alt" horiz-adv-x="389" 
d="M142 0h-102v766h102v-766zM193 -12h-4v97h4q24 0 40 18.5t16 57.5v605h102v-618q0 -81 -44.5 -120.5t-113.5 -39.5z" />
    <glyph glyph-name="ij.alt" horiz-adv-x="336" 
d="M134 0h-100v567h100v-567zM84 625q-26 0 -44.5 18.5t-18.5 44.5t18.5 44.5t44.5 18.5t44.5 -18.5t18.5 -44.5t-18.5 -44.5t-44.5 -18.5zM282 -199h-100q20 66 20 169v597h100v-601q0 -100 -20 -165zM252 625q-26 0 -44.5 18.5t-18.5 44.5t18.5 44.5t44.5 18.5t44.5 -18.5
t18.5 -44.5t-18.5 -44.5t-44.5 -18.5z" />
    <glyph glyph-name="Jcircumflex.alt" horiz-adv-x="207" 
d="M240 836h-78l-45 77l-40 -77h-81l75 141h90zM11 -12h-4v97h4q24 0 40 18.5t16 57.5v605h102v-618q0 -81 -44.5 -120.5t-113.5 -39.5z" />
    <glyph glyph-name="Racute.alt" horiz-adv-x="383" 
d="M351 0h-102v239q0 76 -66 76h-41v-315h-102v766h172q61 0 100 -40.5t39 -119.5v-125q0 -87 -73 -116q73 -20 73 -123v-242zM249 488v105q0 41 -13.5 58.5t-42.5 17.5h-51v-257h51q29 0 42.5 17.5t13.5 58.5zM204 836h-73l57 131h111z" />
    <glyph glyph-name="Rcommaaccent.alt" horiz-adv-x="383" 
d="M351 0h-102v239q0 76 -66 76h-41v-315h-102v766h172q61 0 100 -40.5t39 -119.5v-125q0 -87 -73 -116q73 -20 73 -123v-242zM249 488v105q0 41 -13.5 58.5t-42.5 17.5h-51v-257h51q29 0 42.5 17.5t13.5 58.5zM188 -206h-76l53 156h106z" />
    <glyph glyph-name="Rcaron.alt" horiz-adv-x="383" 
d="M351 0h-102v239q0 76 -66 76h-41v-315h-102v766h172q61 0 100 -40.5t39 -119.5v-125q0 -87 -73 -116q73 -20 73 -123v-242zM249 488v105q0 41 -13.5 58.5t-42.5 17.5h-51v-257h51q29 0 42.5 17.5t13.5 58.5zM231 836h-90l-79 141h78l45 -77l40 77h81z" />
    <glyph glyph-name="jcircumflex.alt" horiz-adv-x="168" 
d="M114 -199h-100q20 66 20 169v597h100v-601q0 -100 -20 -165zM206 637h-78l-45 77l-40 -77h-81l75 141h90z" />
    <glyph glyph-name="dotlessj.alt" horiz-adv-x="168" 
d="M114 -199h-100q20 66 20 169v597h100v-601q0 -100 -20 -165z" />
    <glyph glyph-name="agrave.alt" horiz-adv-x="331" 
d="M298 0h-87l-8 46q-11 -23 -34 -38.5t-52 -15.5q-52 0 -71.5 41t-19.5 123v36q0 81 26 116.5t81 35.5h65v60q0 43 -7.5 59.5t-28.5 16.5t-28.5 -16.5t-7.5 -59.5v-18h-100v27q0 83 33 122.5t103 39.5t103 -37.5t33 -118.5v-419zM198 164v103h-36q-20 0 -28 -21t-8 -65v-17
q0 -43 7.5 -59.5t28.5 -16.5t28.5 16.5t7.5 59.5zM224 637h-73l-95 131h111z" />
    <glyph glyph-name="aacute.alt" horiz-adv-x="331" 
d="M298 0h-87l-8 46q-11 -23 -34 -38.5t-52 -15.5q-52 0 -71.5 41t-19.5 123v36q0 81 26 116.5t81 35.5h65v60q0 43 -7.5 59.5t-28.5 16.5t-28.5 -16.5t-7.5 -59.5v-18h-100v27q0 83 33 122.5t103 39.5t103 -37.5t33 -118.5v-419zM198 164v103h-36q-20 0 -28 -21t-8 -65v-17
q0 -43 7.5 -59.5t28.5 -16.5t28.5 16.5t7.5 59.5zM185 637h-73l57 131h111z" />
    <glyph glyph-name="adieresis.alt" horiz-adv-x="330" 
d="M298 0h-87l-8 46q-11 -23 -34 -38.5t-52 -15.5q-52 0 -71.5 41t-19.5 123v36q0 81 26 116.5t81 35.5h65v60q0 43 -7.5 59.5t-28.5 16.5t-28.5 -16.5t-7.5 -59.5v-18h-100v27q0 83 33 122.5t103 39.5t103 -37.5t33 -118.5v-419zM198 164v103h-36q-20 0 -28 -21t-8 -65v-17
q0 -43 7.5 -59.5t28.5 -16.5t28.5 16.5t7.5 59.5zM77 627q-24 0 -42 17.5t-18 42.5q0 24 18 41.5t42 17.5q25 0 42 -17t17 -42t-17 -42.5t-42 -17.5zM247 627q-24 0 -41.5 17.5t-17.5 42.5t17.5 42t41.5 17q25 0 42.5 -17t17.5 -42t-17.5 -42.5t-42.5 -17.5z" />
    <glyph glyph-name="acircumflex.alt" horiz-adv-x="331" 
d="M298 0h-87l-8 46q-11 -23 -34 -38.5t-52 -15.5q-52 0 -71.5 41t-19.5 123v36q0 81 26 116.5t81 35.5h65v60q0 43 -7.5 59.5t-28.5 16.5t-28.5 -16.5t-7.5 -59.5v-18h-100v27q0 83 33 122.5t103 39.5t103 -37.5t33 -118.5v-419zM198 164v103h-36q-20 0 -28 -21t-8 -65v-17
q0 -43 7.5 -59.5t28.5 -16.5t28.5 16.5t7.5 59.5zM283 637h-78l-45 77l-40 -77h-81l75 141h90z" />
    <glyph glyph-name="aring.alt" horiz-adv-x="331" 
d="M298 0h-87l-8 46q-11 -23 -34 -38.5t-52 -15.5q-52 0 -71.5 41t-19.5 123v36q0 81 26 116.5t81 35.5h65v60q0 43 -7.5 59.5t-28.5 16.5t-28.5 -16.5t-7.5 -59.5v-18h-100v27q0 83 33 122.5t103 39.5t103 -37.5t33 -118.5v-419zM198 164v103h-36q-20 0 -28 -21t-8 -65v-17
q0 -43 7.5 -59.5t28.5 -16.5t28.5 16.5t7.5 59.5zM194 703q0 13 -9 22t-22 9t-22 -9t-9 -22t9 -22t22 -9t22 9t9 22zM163 616q-37 0 -62 25t-25 62t25 62t62 25t62 -25t25 -62t-25 -62t-62 -25z" />
    <glyph glyph-name="atilde.alt" horiz-adv-x="331" 
d="M298 0h-87l-8 46q-11 -23 -34 -38.5t-52 -15.5q-52 0 -71.5 41t-19.5 123v36q0 81 26 116.5t81 35.5h65v60q0 43 -7.5 59.5t-28.5 16.5t-28.5 -16.5t-7.5 -59.5v-18h-100v27q0 83 33 122.5t103 39.5t103 -37.5t33 -118.5v-419zM198 164v103h-36q-20 0 -28 -21t-8 -65v-17
q0 -43 7.5 -59.5t28.5 -16.5t28.5 16.5t7.5 59.5zM220 732h65q-2 -42 -20 -68.5t-52 -26.5q-16 0 -42.5 9.5t-40.5 9.5q-24 0 -26 -20h-65q2 42 20 68.5t52 26.5q16 0 42.5 -9.5t40.5 -9.5q24 0 26 20z" />
    <glyph glyph-name="amacron.alt" horiz-adv-x="331" 
d="M298 0h-87l-8 46q-11 -23 -34 -38.5t-52 -15.5q-52 0 -71.5 41t-19.5 123v36q0 81 26 116.5t81 35.5h65v60q0 43 -7.5 59.5t-28.5 16.5t-28.5 -16.5t-7.5 -59.5v-18h-100v27q0 83 33 122.5t103 39.5t103 -37.5t33 -118.5v-419zM198 164v103h-36q-20 0 -28 -21t-8 -65v-17
q0 -43 7.5 -59.5t28.5 -16.5t28.5 16.5t7.5 59.5zM294 637h-262v81h262v-81z" />
    <glyph glyph-name="abreve.alt" horiz-adv-x="331" 
d="M298 0h-87l-8 46q-11 -23 -34 -38.5t-52 -15.5q-52 0 -71.5 41t-19.5 123v36q0 81 26 116.5t81 35.5h65v60q0 43 -7.5 59.5t-28.5 16.5t-28.5 -16.5t-7.5 -59.5v-18h-100v27q0 83 33 122.5t103 39.5t103 -37.5t33 -118.5v-419zM198 164v103h-36q-20 0 -28 -21t-8 -65v-17
q0 -43 7.5 -59.5t28.5 -16.5t28.5 16.5t7.5 59.5zM225 750h56q-3 -124 -117 -124q-115 0 -117 124h56q2 -53 61 -53q57 0 61 53z" />
    <glyph glyph-name="aogonek.alt" horiz-adv-x="331" 
d="M312 -156l-35 -52q-56 3 -91 35t-35 76q0 58 60 94l-8 49q-26 -54 -89 -54q-49 0 -68.5 41.5t-19.5 122.5v36q0 81 26 116.5t81 35.5h65v60q0 43 -7.5 59.5t-28.5 16.5t-28.5 -16.5t-7.5 -59.5v-18h-100v27q0 84 33 123t104 39q69 0 102 -37.5t33 -118.5v-419
q-58 -38 -58 -86q0 -24 18.5 -43t53.5 -27zM198 164v103h-36q-20 0 -28 -21t-8 -65v-17q0 -43 7.5 -59.5t28.5 -16.5t28.5 16.5t7.5 59.5z" />
    <glyph glyph-name="gcircumflex.alt" horiz-adv-x="337" 
d="M203 -36v73q-30 -45 -87 -45q-50 0 -67.5 36t-17.5 120v271q0 84 17.5 120t67.5 36q60 0 92 -54l9 46h86v-615q0 -81 -33 -120.5t-103 -39.5q-136 0 -136 150v2h100q2 -30 9 -43t27 -13q21 0 28.5 16.5t7.5 59.5zM203 163v241q0 43 -7.5 59.5t-28.5 16.5t-28.5 -16.5
t-7.5 -59.5v-241q0 -43 7.5 -59.5t28.5 -16.5t28.5 16.5t7.5 59.5zM289 637h-78l-45 77l-40 -77h-81l75 141h90z" />
    <glyph glyph-name="gbreve.alt" horiz-adv-x="337" 
d="M203 -36v73q-30 -45 -87 -45q-50 0 -67.5 36t-17.5 120v271q0 84 17.5 120t67.5 36q60 0 92 -54l9 46h86v-615q0 -81 -33 -120.5t-103 -39.5q-136 0 -136 150v2h100q2 -30 9 -43t27 -13q21 0 28.5 16.5t7.5 59.5zM203 163v241q0 43 -7.5 59.5t-28.5 16.5t-28.5 -16.5
t-7.5 -59.5v-241q0 -43 7.5 -59.5t28.5 -16.5t28.5 16.5t7.5 59.5zM229 750h56q-3 -124 -117 -124q-115 0 -117 124h56q2 -53 61 -53q57 0 61 53z" />
    <glyph glyph-name="gdotaccent.alt" horiz-adv-x="337" 
d="M203 -36v73q-30 -45 -87 -45q-50 0 -67.5 36t-17.5 120v271q0 84 17.5 120t67.5 36q60 0 92 -54l9 46h86v-615q0 -81 -33 -120.5t-103 -39.5q-136 0 -136 150v2h100q2 -30 9 -43t27 -13q21 0 28.5 16.5t7.5 59.5zM203 163v241q0 43 -7.5 59.5t-28.5 16.5t-28.5 -16.5
t-7.5 -59.5v-241q0 -43 7.5 -59.5t28.5 -16.5t28.5 16.5t7.5 59.5zM168 632q-24 0 -42 17.5t-18 42.5q0 24 18 41.5t42 17.5q25 0 42 -17t17 -42t-17 -42.5t-42 -17.5z" />
    <glyph glyph-name="gcommaaccent.alt" horiz-adv-x="337" 
d="M203 -36v73q-30 -45 -87 -45q-50 0 -67.5 36t-17.5 120v271q0 84 17.5 120t67.5 36q60 0 92 -54l9 46h86v-615q0 -81 -33 -120.5t-103 -39.5q-136 0 -136 150v2h100q2 -30 9 -43t27 -13q21 0 28.5 16.5t7.5 59.5zM203 163v241q0 43 -7.5 59.5t-28.5 16.5t-28.5 -16.5
t-7.5 -59.5v-241q0 -43 7.5 -59.5t28.5 -16.5t28.5 16.5t7.5 59.5zM191 793h76l-53 -156h-106z" />
    <glyph glyph-name="eng.alt" 
d="M286 -199h-100q20 66 20 169v434q0 43 -7.5 59.5t-28.5 16.5t-28.5 -16.5t-7.5 -59.5v-404h-100v567h86l9 -46q32 54 92 54q50 0 67.5 -36t17.5 -120v-453q0 -100 -20 -165z" />
    <glyph glyph-name="ygrave.alt" 
d="M205 -36v73q-30 -45 -87 -45q-50 0 -67.5 36t-17.5 120v419h100v-404q0 -43 7.5 -59.5t28.5 -16.5t28.5 16.5t7.5 59.5v404h100v-615q0 -81 -33 -120.5t-103 -39.5q-136 0 -136 150v2h100q2 -30 9 -43t27 -13q21 0 28.5 16.5t7.5 59.5zM217 637h-73l-95 131h111z" />
    <glyph glyph-name="yacute.alt" 
d="M205 -36v73q-30 -45 -87 -45q-50 0 -67.5 36t-17.5 120v419h100v-404q0 -43 7.5 -59.5t28.5 -16.5t28.5 16.5t7.5 59.5v404h100v-615q0 -81 -33 -120.5t-103 -39.5q-136 0 -136 150v2h100q2 -30 9 -43t27 -13q21 0 28.5 16.5t7.5 59.5zM188 637h-73l57 131h111z" />
    <glyph glyph-name="ycircumflex.alt" 
d="M205 -36v73q-30 -45 -87 -45q-50 0 -67.5 36t-17.5 120v419h100v-404q0 -43 7.5 -59.5t28.5 -16.5t28.5 16.5t7.5 59.5v404h100v-615q0 -81 -33 -120.5t-103 -39.5q-136 0 -136 150v2h100q2 -30 9 -43t27 -13q21 0 28.5 16.5t7.5 59.5zM291 637h-78l-45 77l-40 -77h-81
l75 141h90z" />
    <glyph glyph-name="ydieresis.alt" 
d="M205 -36v73q-30 -45 -87 -45q-50 0 -67.5 36t-17.5 120v419h100v-404q0 -43 7.5 -59.5t28.5 -16.5t28.5 16.5t7.5 59.5v404h100v-615q0 -81 -33 -120.5t-103 -39.5q-136 0 -136 150v2h100q2 -30 9 -43t27 -13q21 0 28.5 16.5t7.5 59.5zM85 627q-24 0 -42 17.5t-18 42.5
q0 24 18 41.5t42 17.5q25 0 42 -17t17 -42t-17 -42.5t-42 -17.5zM255 627q-24 0 -41.5 17.5t-17.5 42.5t17.5 42t41.5 17q25 0 42.5 -17t17.5 -42t-17.5 -42.5t-42.5 -17.5z" />
    <glyph glyph-name="Kappa.alt" horiz-adv-x="370" 
d="M366 0h-102q-9 170 -121 383q101 211 102 383h102q0 -173 -96 -380q108 -215 115 -386zM142 0h-102v766h102v-766z" />
    <glyph glyph-name="alpha.alt" horiz-adv-x="335" 
d="M302 0h-86l-9 46q-32 -54 -92 -54q-50 0 -67.5 36t-17.5 120v267q0 82 33.5 121t103.5 39q69 0 102 -38.5t33 -121.5v-415zM202 163v241q0 43 -7.5 59.5t-28.5 16.5t-28.5 -16.5t-7.5 -59.5v-241q0 -43 7.5 -59.5t28.5 -16.5t28.5 16.5t7.5 59.5z" />
    <glyph glyph-name="gamma.alt" horiz-adv-x="332" 
d="M231 -198h-100l4 194l-73 408q-7 40 -15.5 55.5t-22.5 15.5q-3 0 -11 -2l-15 91q31 7 57 7q44 0 64.5 -25.5t27.5 -84.5l34 -296l46 402h104l-104 -571z" />
    <glyph glyph-name="eta.alt" 
d="M306 -199h-100v603q0 43 -7.5 59.5t-28.5 16.5t-28.5 -16.5t-7.5 -59.5v-404h-100v567h86l9 -46q32 54 92 54q50 0 67.5 -36t17.5 -120v-618z" />
    <glyph glyph-name="kappa.alt" horiz-adv-x="332" 
d="M318 0h-101q0 143 -82 290q82 140 82 277h102q0 -140 -78 -274q77 -145 77 -293zM134 0h-100v567h100v-567z" />
    <glyph glyph-name="alphatonos.alt" horiz-adv-x="335" 
d="M302 0h-86l-9 46q-32 -54 -92 -54q-50 0 -67.5 36t-17.5 120v267q0 82 33.5 121t103.5 39q69 0 102 -38.5t33 -121.5v-415zM202 163v241q0 43 -7.5 59.5t-28.5 16.5t-28.5 -16.5t-7.5 -59.5v-241q0 -43 7.5 -59.5t28.5 -16.5t28.5 16.5t7.5 59.5zM176 637h-73l57 131h111
z" />
    <glyph glyph-name="etatonos.alt" 
d="M306 -199h-100v603q0 43 -7.5 59.5t-28.5 16.5t-28.5 -16.5t-7.5 -59.5v-404h-100v567h86l9 -46q32 54 92 54q50 0 67.5 -36t17.5 -120v-618zM185 637h-73l57 131h111z" />
    <glyph glyph-name="uni042F.alt" horiz-adv-x="383" 
d="M241 412v257h-51q-29 0 -42.5 -17.5t-13.5 -58.5v-105q0 -41 13.5 -58.5t42.5 -17.5h51zM343 0h-102v315h-41q-66 0 -66 -76v-239h-102v242q0 103 73 123q-73 29 -73 116v125q0 79 39 119.5t100 40.5h172v-766z" />
    <glyph glyph-name="uni0408.alt" horiz-adv-x="207" 
d="M11 -12h-4v97h4q24 0 40 18.5t16 57.5v605h102v-618q0 -81 -44.5 -120.5t-113.5 -39.5z" />
    <glyph glyph-name="uni0430.alt" horiz-adv-x="331" 
d="M298 0h-87l-8 46q-11 -23 -34 -38.5t-52 -15.5q-52 0 -71.5 41t-19.5 123v36q0 81 26 116.5t81 35.5h65v60q0 43 -7.5 59.5t-28.5 16.5t-28.5 -16.5t-7.5 -59.5v-18h-100v27q0 83 33 122.5t103 39.5t103 -37.5t33 -118.5v-419zM198 164v103h-36q-20 0 -28 -21t-8 -65v-17
q0 -43 7.5 -59.5t28.5 -16.5t28.5 16.5t7.5 59.5z" />
    <glyph glyph-name="uni044F.alt" horiz-adv-x="341" 
d="M307 0h-100v221h-29q-50 0 -50 -56v-165h-100v170q0 41 15.5 64t50.5 36q-66 21 -66 96v83q0 118 116 118h163v-567zM207 315v157h-37q-22 0 -32 -12.5t-10 -43.5v-45q0 -30 10 -43t32 -13h37z" />
    <glyph glyph-name="uni0458.alt" horiz-adv-x="168" 
d="M114 -199h-100q20 66 20 169v597h100v-601q0 -100 -20 -165zM84 625q-26 0 -44.5 18.5t-18.5 44.5t18.5 44.5t44.5 18.5t44.5 -18.5t18.5 -44.5t-18.5 -44.5t-44.5 -18.5z" />
    <glyph glyph-name="uni0452.alt" 
d="M286 -199h-100q20 66 20 169v434q0 43 -7.5 59.5t-28.5 16.5t-28.5 -16.5t-7.5 -59.5v-404h-100v642h-34v71h34v53h100v-53h115v-71h-115v-115q31 48 86 48q50 0 68 -35.5t18 -120.5v-453q0 -100 -20 -165z" />
    <glyph glyph-name="dollar.alt" horiz-adv-x="326" 
d="M219 0h-100v104q-97 20 -97 154v37h100v-24q0 -39 9.5 -57.5t32.5 -18.5q40 0 40 50q0 28 -13.5 51t-33.5 37.5t-44 33.5t-44 38.5t-33.5 53.5t-13.5 78q0 120 97 141v89h100v-91q85 -23 85 -153v-37h-100v26q0 42 -8.5 59t-31.5 17q-41 0 -41 -51q0 -32 13.5 -56
t33.5 -37.5t43.5 -31.5t43.5 -36t33.5 -51.5t13.5 -78.5q0 -113 -85 -139v-107z" />
    <glyph glyph-name="sterling.alt" horiz-adv-x="417" 
d="M390 0h-369v102h55v212h-55v96h55v202q0 167 162 167q154 0 154 -167v-44h-102v38q0 39 -16 57.5t-40 18.5t-40 -18.5t-16 -57.5v-196h185v-96h-185v-212h212v-102z" />
    <glyph glyph-name="registered.alt" horiz-adv-x="697" 
d="M347 -8q-325 0 -325 388q0 391 326 391q166 0 246.5 -101t80.5 -289q0 -187 -80.5 -288t-247.5 -101zM350 77q122 0 180 74.5t58 228.5q0 156 -59 231.5t-182 75.5t-180.5 -75.5t-57.5 -227.5q0 -157 60 -232t181 -75zM492 152h-92l-46 160h-27v-159h-90v467h156
q43 0 70.5 -27t27.5 -83v-88q0 -80 -52 -102zM400 450v30q0 29 -9 41t-29 12h-35v-135h35q38 0 38 52z" />
    <glyph glyph-name="A.uni" horiz-adv-x="384" 
d="M346 0h-92l-5 48q-34 -61 -107 -61q-113 0 -113 130v174q0 130 113 130q67 0 102 -53v238q0 39 -16 57.5t-40 18.5t-40 -18.5t-16 -57.5v-106h-102v126q0 80 43.5 116.5t110.5 36.5q72 0 117 -39.5t45 -120.5v-619zM243 169v70q0 86 -59 86q-53 0 -53 -86v-70
q0 -86 53 -86q59 0 59 86z" />
    <glyph glyph-name="E.uni" horiz-adv-x="391" 
d="M361 256v-109q0 -81 -43.5 -120.5t-118.5 -39.5t-119.5 39.5t-44.5 120.5v472q0 81 45.5 120.5t118.5 39.5q72 0 117 -39t45 -121v-260h-224v-199q0 -76 61 -76t61 76v96h102zM259 456v150q0 76 -61 76t-61 -76v-150h122z" />
    <glyph glyph-name="M.uni" horiz-adv-x="609" 
d="M571 0h-102v597q0 86 -52 86q-27 0 -43.5 -19.5t-16.5 -59.5v-604h-102v597q0 86 -53 86q-59 0 -59 -86v-597h-103v766h92l5 -48q34 61 107 61q80 0 104 -67q34 67 111 67q112 0 112 -130v-649z" />
    <glyph glyph-name="N.uni" horiz-adv-x="395" 
d="M357 0h-102v597q0 86 -53 86q-59 0 -59 -86v-597h-103v766h92l5 -48q34 61 107 61q113 0 113 -130v-649z" />
    <glyph glyph-name="U.uni" horiz-adv-x="395" 
d="M355 0h-92l-5 48q-34 -61 -107 -61q-113 0 -113 130v649h102v-597q0 -86 53 -86q59 0 59 86v597h103v-766z" />
    <glyph glyph-name="Agrave.uni" horiz-adv-x="384" 
d="M346 0h-92l-5 48q-34 -61 -107 -61q-113 0 -113 130v174q0 130 113 130q67 0 102 -53v238q0 39 -16 57.5t-40 18.5t-40 -18.5t-16 -57.5v-106h-102v126q0 80 43.5 116.5t110.5 36.5q72 0 117 -39.5t45 -120.5v-619zM243 169v70q0 86 -59 86q-53 0 -53 -86v-70
q0 -86 53 -86q59 0 59 86zM236 836h-73l-95 131h111z" />
    <glyph glyph-name="Aacute.uni" horiz-adv-x="384" 
d="M346 0h-92l-5 48q-34 -61 -107 -61q-113 0 -113 130v174q0 130 113 130q67 0 102 -53v238q0 39 -16 57.5t-40 18.5t-40 -18.5t-16 -57.5v-106h-102v126q0 80 43.5 116.5t110.5 36.5q72 0 117 -39.5t45 -120.5v-619zM243 169v70q0 86 -59 86q-53 0 -53 -86v-70
q0 -86 53 -86q59 0 59 86zM216 836h-73l57 131h111z" />
    <glyph glyph-name="Acircumflex.uni" horiz-adv-x="384" 
d="M346 0h-92l-5 48q-34 -61 -107 -61q-113 0 -113 130v174q0 130 113 130q67 0 102 -53v238q0 39 -16 57.5t-40 18.5t-40 -18.5t-16 -57.5v-106h-102v126q0 80 43.5 116.5t110.5 36.5q72 0 117 -39.5t45 -120.5v-619zM243 169v70q0 86 -59 86q-53 0 -53 -86v-70
q0 -86 53 -86q59 0 59 86zM309 836h-78l-45 77l-40 -77h-81l75 141h90z" />
    <glyph glyph-name="Adieresis.uni" horiz-adv-x="384" 
d="M346 0h-92l-5 48q-34 -61 -107 -61q-113 0 -113 130v174q0 130 113 130q67 0 102 -53v238q0 39 -16 57.5t-40 18.5t-40 -18.5t-16 -57.5v-106h-102v126q0 80 43.5 116.5t110.5 36.5q72 0 117 -39.5t45 -120.5v-619zM243 169v70q0 86 -59 86q-53 0 -53 -86v-70
q0 -86 53 -86q59 0 59 86zM102 826q-24 0 -42 17.5t-18 42.5q0 24 18 41.5t42 17.5q25 0 42 -17t17 -42t-17 -42.5t-42 -17.5zM272 826q-24 0 -41.5 17.5t-17.5 42.5t17.5 42t41.5 17q25 0 42.5 -17t17.5 -42q0 -26 -17 -43t-43 -17z" />
    <glyph glyph-name="Atilde.uni" horiz-adv-x="384" 
d="M346 0h-92l-5 48q-34 -61 -107 -61q-113 0 -113 130v174q0 130 113 130q67 0 102 -53v238q0 39 -16 57.5t-40 18.5t-40 -18.5t-16 -57.5v-106h-102v126q0 80 43.5 116.5t110.5 36.5q72 0 117 -39.5t45 -120.5v-619zM243 169v70q0 86 -59 86q-53 0 -53 -86v-70
q0 -86 53 -86q59 0 59 86zM245 931h65q-2 -42 -20 -68.5t-52 -26.5q-16 0 -42.5 9.5t-40.5 9.5q-24 0 -26 -20h-65q2 42 20 68.5t52 26.5q16 0 42.5 -9.5t40.5 -9.5q24 0 26 20z" />
    <glyph glyph-name="Amacron.uni" horiz-adv-x="384" 
d="M346 0h-92l-5 48q-34 -61 -107 -61q-113 0 -113 130v174q0 130 113 130q67 0 102 -53v238q0 39 -16 57.5t-40 18.5t-40 -18.5t-16 -57.5v-106h-102v126q0 80 43.5 116.5t110.5 36.5q72 0 117 -39.5t45 -120.5v-619zM243 169v70q0 86 -59 86q-53 0 -53 -86v-70
q0 -86 53 -86q59 0 59 86zM318 836h-262v81h262v-81z" />
    <glyph glyph-name="Abreve.uni" horiz-adv-x="384" 
d="M346 0h-92l-5 48q-34 -61 -107 -61q-113 0 -113 130v174q0 130 113 130q67 0 102 -53v238q0 39 -16 57.5t-40 18.5t-40 -18.5t-16 -57.5v-106h-102v126q0 80 43.5 116.5t110.5 36.5q72 0 117 -39.5t45 -120.5v-619zM243 169v70q0 86 -59 86q-53 0 -53 -86v-70
q0 -86 53 -86q59 0 59 86zM248 949h56q-3 -124 -117 -124q-115 0 -117 124h56q2 -53 61 -53q57 0 61 53z" />
    <glyph glyph-name="Aring.uni" horiz-adv-x="384" 
d="M346 0h-92l-5 48q-34 -61 -107 -61q-113 0 -113 130v174q0 130 113 130q67 0 102 -53v238q0 39 -16 57.5t-40 18.5t-40 -18.5t-16 -57.5v-106h-102v126q0 80 43.5 116.5t110.5 36.5q72 0 117 -39.5t45 -120.5v-619zM243 169v70q0 86 -59 86q-53 0 -53 -86v-70
q0 -86 53 -86q59 0 59 86zM218 902q0 14 -9 22.5t-22 8.5t-22 -8.5t-9 -22.5t9 -22.5t22 -8.5t22 8.5t9 22.5zM187 815q-37 0 -62 25t-25 62t25 62t62 25t62 -25t25 -62t-25 -62t-62 -25z" />
    <glyph glyph-name="Aogonek.uni" horiz-adv-x="384" 
d="M360 -156l-35 -52q-56 3 -91 35t-35 75q0 57 56 93l-6 53q-34 -61 -107 -61q-113 0 -113 130v174q0 130 113 130q67 0 102 -53v238q0 39 -16 57.5t-40 18.5t-40 -18.5t-16 -57.5v-106h-102v126q0 80 43.5 116.5t110.5 36.5q72 0 117 -39.5t45 -120.5v-619
q-58 -38 -58 -86q0 -24 18.5 -43t53.5 -27zM243 169v70q0 86 -59 86q-53 0 -53 -86v-70q0 -86 53 -86q59 0 59 86z" />
    <glyph glyph-name="AE.uni" horiz-adv-x="600" 
d="M570 256v-109q0 -81 -43.5 -120.5t-118.5 -39.5q-110 0 -147 77q-42 -77 -119 -77q-113 0 -113 130v174q0 130 113 130q67 0 102 -53v238q0 39 -16 57.5t-40 18.5t-40 -18.5t-16 -57.5v-106h-102v126q0 80 43.5 116.5t110.5 36.5q73 0 111 -45q40 45 113 45q72 0 117 -39
t45 -121v-260h-224v-199q0 -76 61 -76t61 76v96h102zM468 456v150q0 76 -61 76q-27 0 -44 -16.5t-17 -51.5v-158h122zM243 169v70q0 86 -59 86q-53 0 -53 -86v-70q0 -86 53 -86q59 0 59 86z" />
    <glyph glyph-name="AEacute.uni" horiz-adv-x="600" 
d="M322 836h-73l57 131h111zM570 256v-109q0 -81 -43.5 -120.5t-118.5 -39.5q-110 0 -147 77q-42 -77 -119 -77q-113 0 -113 130v174q0 130 113 130q67 0 102 -53v238q0 39 -16 57.5t-40 18.5t-40 -18.5t-16 -57.5v-106h-102v126q0 80 43.5 116.5t110.5 36.5q73 0 111 -45
q40 45 113 45q72 0 117 -39t45 -121v-260h-224v-199q0 -76 61 -76t61 76v96h102zM468 456v150q0 76 -61 76q-27 0 -44 -16.5t-17 -51.5v-158h122zM243 169v70q0 86 -59 86q-53 0 -53 -86v-70q0 -86 53 -86q59 0 59 86z" />
    <glyph glyph-name="Egrave.uni" horiz-adv-x="391" 
d="M361 256v-109q0 -81 -43.5 -120.5t-118.5 -39.5t-119.5 39.5t-44.5 120.5v472q0 81 45.5 120.5t118.5 39.5q72 0 117 -39t45 -121v-260h-224v-199q0 -76 61 -76t61 76v96h102zM259 456v150q0 76 -61 76t-61 -76v-150h122zM247 836h-73l-95 131h111z" />
    <glyph glyph-name="Eacute.uni" horiz-adv-x="391" 
d="M361 256v-109q0 -81 -43.5 -120.5t-118.5 -39.5t-119.5 39.5t-44.5 120.5v472q0 81 45.5 120.5t118.5 39.5q72 0 117 -39t45 -121v-260h-224v-199q0 -76 61 -76t61 76v96h102zM259 456v150q0 76 -61 76t-61 -76v-150h122zM222 836h-73l57 131h111z" />
    <glyph glyph-name="Ecircumflex.uni" horiz-adv-x="391" 
d="M361 256v-109q0 -81 -43.5 -120.5t-118.5 -39.5t-119.5 39.5t-44.5 120.5v472q0 81 45.5 120.5t118.5 39.5q72 0 117 -39t45 -121v-260h-224v-199q0 -76 61 -76t61 76v96h102zM259 456v150q0 76 -61 76t-61 -76v-150h122zM320 836h-78l-45 77l-40 -77h-81l75 141h90z" />
    <glyph glyph-name="Edieresis.uni" horiz-adv-x="391" 
d="M361 256v-109q0 -81 -43.5 -120.5t-118.5 -39.5t-119.5 39.5t-44.5 120.5v472q0 81 45.5 120.5t118.5 39.5q72 0 117 -39t45 -121v-260h-224v-199q0 -76 61 -76t61 76v96h102zM259 456v150q0 76 -61 76t-61 -76v-150h122zM113 826q-24 0 -42 17.5t-18 42.5q0 24 18 41.5
t42 17.5q25 0 42 -17t17 -42t-17 -42.5t-42 -17.5zM283 826q-24 0 -41.5 17.5t-17.5 42.5t17.5 42t41.5 17q25 0 42.5 -17t17.5 -42q0 -26 -17.5 -43t-42.5 -17z" />
    <glyph glyph-name="Emacron.uni" horiz-adv-x="391" 
d="M361 256v-109q0 -81 -43.5 -120.5t-118.5 -39.5t-119.5 39.5t-44.5 120.5v472q0 81 45.5 120.5t118.5 39.5q72 0 117 -39t45 -121v-260h-224v-199q0 -76 61 -76t61 76v96h102zM259 456v150q0 76 -61 76t-61 -76v-150h122zM329 836h-262v81h262v-81z" />
    <glyph glyph-name="Ebreve.uni" horiz-adv-x="391" 
d="M361 256v-109q0 -81 -43.5 -120.5t-118.5 -39.5t-119.5 39.5t-44.5 120.5v472q0 81 45.5 120.5t118.5 39.5q72 0 117 -39t45 -121v-260h-224v-199q0 -76 61 -76t61 76v96h102zM259 456v150q0 76 -61 76t-61 -76v-150h122zM259 949h56q-3 -124 -117 -124q-115 0 -117 124
h56q2 -53 61 -53q57 0 61 53z" />
    <glyph glyph-name="Edotaccent.uni" horiz-adv-x="391" 
d="M361 256v-109q0 -81 -43.5 -120.5t-118.5 -39.5t-119.5 39.5t-44.5 120.5v472q0 81 45.5 120.5t118.5 39.5q72 0 117 -39t45 -121v-260h-224v-199q0 -76 61 -76t61 76v96h102zM259 456v150q0 76 -61 76t-61 -76v-150h122zM199 831q-24 0 -42 17.5t-18 42.5q0 24 18 41.5
t42 17.5q25 0 42 -17t17 -42t-17 -42.5t-42 -17.5z" />
    <glyph glyph-name="Eogonek.uni" horiz-adv-x="391" 
d="M306 -147l-35 -52q-56 3 -91 35t-35 75q0 45 35 77q-67 5 -106 44t-39 115v472q0 81 45.5 120.5t118.5 39.5q72 0 117 -39t45 -121v-260h-224v-199q0 -76 61 -76t61 76v96h102v-109q0 -33 -7 -58.5t-21 -42t-23 -24.5t-24 -17q-52 -34 -52 -78q0 -57 72 -74zM259 456v150
q0 76 -61 76t-61 -76v-150h122z" />
    <glyph glyph-name="Ecaron.uni" horiz-adv-x="391" 
d="M361 256v-109q0 -81 -43.5 -120.5t-118.5 -39.5t-119.5 39.5t-44.5 120.5v472q0 81 45.5 120.5t118.5 39.5q72 0 117 -39t45 -121v-260h-224v-199q0 -76 61 -76t61 76v96h102zM259 456v150q0 76 -61 76t-61 -76v-150h122zM245 836h-90l-79 141h78l45 -77l40 77h81z" />
    <glyph glyph-name="uni1E40.uni" horiz-adv-x="609" 
d="M309 831q-24 0 -42 17.5t-18 42.5q0 24 18 41.5t42 17.5q25 0 42 -17t17 -42t-17 -42.5t-42 -17.5zM571 0h-102v597q0 86 -52 86q-27 0 -43.5 -19.5t-16.5 -59.5v-604h-102v597q0 86 -53 86q-59 0 -59 -86v-597h-103v766h92l5 -48q34 61 107 61q80 0 104 -67
q34 67 111 67q112 0 112 -130v-649z" />
    <glyph glyph-name="Ntilde.uni" horiz-adv-x="395" 
d="M357 0h-102v597q0 86 -53 86q-59 0 -59 -86v-597h-103v766h92l5 -48q34 61 107 61q113 0 113 -130v-649zM261 931h65q-2 -42 -20 -68.5t-52 -26.5q-16 0 -42.5 9.5t-40.5 9.5q-24 0 -26 -20h-65q2 42 20 68.5t52 26.5q16 0 42.5 -9.5t40.5 -9.5q24 0 26 20z" />
    <glyph glyph-name="Nacute.uni" horiz-adv-x="395" 
d="M357 0h-102v597q0 86 -53 86q-59 0 -59 -86v-597h-103v766h92l5 -48q34 61 107 61q113 0 113 -130v-649zM214 836h-73l57 131h111z" />
    <glyph glyph-name="Ncaron.uni" horiz-adv-x="395" 
d="M357 0h-102v597q0 86 -53 86q-59 0 -59 -86v-597h-103v766h92l5 -48q34 61 107 61q113 0 113 -130v-649zM246 836h-90l-79 141h78l45 -77l40 77h81z" />
    <glyph glyph-name="Ncommaaccent.uni" horiz-adv-x="395" 
d="M357 0h-102v597q0 86 -53 86q-59 0 -59 -86v-597h-103v766h92l5 -48q34 61 107 61q113 0 113 -130v-649zM193 -206h-76l53 156h106z" />
    <glyph glyph-name="Eng.uni" horiz-adv-x="395" 
d="M199 -192h-3v97h3q24 0 40 18.5t16 57.5v616q0 86 -53 86q-59 0 -59 -86v-597h-103v766h92l5 -48q34 61 107 61q113 0 113 -130v-681q0 -81 -44.5 -120.5t-113.5 -39.5z" />
    <glyph glyph-name="OE.uni" horiz-adv-x="605" 
d="M575 256v-109q0 -81 -43.5 -120.5t-118.5 -39.5q-74 0 -113 43q-36 -43 -106 -43t-114.5 40t-44.5 120v472q0 81 44.5 120.5t119.5 39.5q71 0 105 -42q38 42 109 42q72 0 117 -39t45 -121v-260h-224v-207q0 -35 17 -51.5t44 -16.5q61 0 61 76v96h102zM249 152v462
q0 34 -16.5 51t-39.5 17q-24 0 -40 -18.5t-16 -57.5v-446q0 -39 16 -57.5t40 -18.5q23 0 39.5 17t16.5 51zM473 456v150q0 76 -61 76q-27 0 -44 -16.5t-17 -51.5v-158h122z" />
    <glyph glyph-name="Ugrave.uni" horiz-adv-x="395" 
d="M355 0h-92l-5 48q-34 -61 -107 -61q-113 0 -113 130v649h102v-597q0 -86 53 -86q59 0 59 86v597h103v-766zM242 836h-73l-95 131h111z" />
    <glyph glyph-name="Uacute.uni" horiz-adv-x="395" 
d="M355 0h-92l-5 48q-34 -61 -107 -61q-113 0 -113 130v649h102v-597q0 -86 53 -86q59 0 59 86v597h103v-766zM226 836h-73l57 131h111z" />
    <glyph glyph-name="Ucircumflex.uni" horiz-adv-x="395" 
d="M355 0h-92l-5 48q-34 -61 -107 -61q-113 0 -113 130v649h102v-597q0 -86 53 -86q59 0 59 86v597h103v-766zM308 836h-78l-45 77l-40 -77h-81l75 141h90z" />
    <glyph glyph-name="Udieresis.uni" horiz-adv-x="395" 
d="M355 0h-92l-5 48q-34 -61 -107 -61q-113 0 -113 130v649h102v-597q0 -86 53 -86q59 0 59 86v597h103v-766zM111 826q-24 0 -42 17.5t-18 42.5q0 24 18 41.5t42 17.5q25 0 42 -17t17 -42t-17 -42.5t-42 -17.5zM281 826q-24 0 -41.5 17.5t-17.5 42.5t17.5 42t41.5 17
q25 0 42.5 -17t17.5 -42q0 -26 -17.5 -43t-42.5 -17z" />
    <glyph glyph-name="Utilde.uni" horiz-adv-x="395" 
d="M355 0h-92l-5 48q-34 -61 -107 -61q-113 0 -113 130v649h102v-597q0 -86 53 -86q59 0 59 86v597h103v-766zM254 931h65q-2 -42 -20 -68.5t-52 -26.5q-16 0 -42.5 9.5t-40.5 9.5q-24 0 -26 -20h-65q2 42 20 68.5t52 26.5q16 0 42.5 -9.5t40.5 -9.5q24 0 26 20z" />
    <glyph glyph-name="Umacron.uni" horiz-adv-x="395" 
d="M355 0h-92l-5 48q-34 -61 -107 -61q-113 0 -113 130v649h102v-597q0 -86 53 -86q59 0 59 86v597h103v-766zM327 836h-262v81h262v-81z" />
    <glyph glyph-name="Ubreve.uni" horiz-adv-x="395" 
d="M355 0h-92l-5 48q-34 -61 -107 -61q-113 0 -113 130v649h102v-597q0 -86 53 -86q59 0 59 86v597h103v-766zM257 949h56q-3 -124 -117 -124q-115 0 -117 124h56q2 -53 61 -53q57 0 61 53z" />
    <glyph glyph-name="Uring.uni" horiz-adv-x="395" 
d="M355 0h-92l-5 48q-34 -61 -107 -61q-113 0 -113 130v649h102v-597q0 -86 53 -86q59 0 59 86v597h103v-766zM227 902q0 14 -8.5 22.5t-22.5 8.5t-22.5 -8.5t-8.5 -22.5t8.5 -22.5t22.5 -8.5t22.5 8.5t8.5 22.5zM196 815q-37 0 -62 25t-25 62t25 62t62 25t62 -25t25 -62
t-25 -62t-62 -25z" />
    <glyph glyph-name="Uhungarumlaut.uni" horiz-adv-x="395" 
d="M355 0h-92l-5 48q-34 -61 -107 -61q-113 0 -113 130v649h102v-597q0 -86 53 -86q59 0 59 86v597h103v-766zM158 836h-83l44 135h101zM295 836h-83l44 135h101z" />
    <glyph glyph-name="Uogonek.uni" horiz-adv-x="395" 
d="M369 -156l-35 -52q-56 3 -91 35t-35 75q0 57 55 92l-5 54q-34 -61 -107 -61q-113 0 -113 130v649h102v-597q0 -86 53 -86q59 0 59 86v597h103v-766q-58 -38 -58 -86q0 -24 18.5 -43t53.5 -27z" />
    <glyph glyph-name="a.sc" horiz-adv-x="332" 
d="M327 0h-101l-14 122h-90l-15 -122h-101l80 597h160zM200 219l-34 283l-34 -283h68z" />
    <glyph glyph-name="b.sc" horiz-adv-x="351" 
d="M218 0h-183v597h171q53 0 83.5 -32.5t30.5 -92.5v-76q0 -61 -56 -90q36 -17 50 -39t14 -57v-85q0 -57 -29 -91t-81 -34zM219 412v31q0 60 -43 60h-40v-151h40q43 0 43 60zM227 154v45q0 59 -51 59h-40v-164h48q43 0 43 60z" />
    <glyph glyph-name="c.sc" horiz-adv-x="345" 
d="M132 451v-304q0 -30 12.5 -45t31.5 -15t31.5 15t12.5 45v53h101v-85q0 -68 -41.5 -96.5t-103.5 -28.5q-23 0 -45.5 6t-46 19t-38.5 39t-15 61v368q0 35 15 61t38.5 39t46 19t45.5 6q62 0 103.5 -28.5t41.5 -96.5v-94h-101v62q0 30 -12.5 45t-31.5 15t-31.5 -15t-12.5 -45
z" />
    <glyph glyph-name="d.sc" horiz-adv-x="352" 
d="M210 0h-175v597h175q53 0 81.5 -32.5t28.5 -91.5v-348q0 -59 -29 -92t-81 -33zM219 154v290q0 59 -43 59h-40v-409h40q43 0 43 60z" />
    <glyph glyph-name="e.sc" horiz-adv-x="311" 
d="M286 0h-251v597h251v-94h-150v-154h145v-94h-145v-161h150v-94z" />
    <glyph glyph-name="f.sc" horiz-adv-x="307" 
d="M136 0h-101v597h251v-94h-150v-154h145v-94h-145v-255z" />
    <glyph glyph-name="g.sc" horiz-adv-x="350" 
d="M222 146v73h-53v95h154v-206q0 -59 -42 -88.5t-105 -29.5q-64 0 -107 32t-43 90v371q0 58 42 91.5t108 33.5q67 0 107 -30.5t40 -87.5v-99h-101v60q0 60 -47 60q-48 0 -48 -60v-305q0 -59 48 -59q47 0 47 59z" />
    <glyph glyph-name="h.sc" horiz-adv-x="359" 
d="M324 0h-101v252h-87v-252h-101v597h101v-251h87v251h101v-597z" />
    <glyph glyph-name="i.sc" horiz-adv-x="171" 
d="M136 0h-101v597h101v-597z" />
    <glyph glyph-name="j.sc" horiz-adv-x="171" 
d="M-9 -150h-3v97h3q19 0 31.5 14.5t12.5 45.5v590h101v-622q0 -59 -39 -92t-106 -33z" />
    <glyph glyph-name="k.sc" horiz-adv-x="344" 
d="M348 0h-101l-110 299l95 298h101l-91 -296zM136 0h-101v597h101v-597z" />
    <glyph glyph-name="l.sc" horiz-adv-x="251" 
d="M242 0h-207v597h101v-503h106v-94z" />
    <glyph glyph-name="m.sc" horiz-adv-x="535" 
d="M500 0h-101l1 419l-79 -419h-100l-85 416v-416h-101v597h166l67 -407l66 407h166v-597z" />
    <glyph glyph-name="n.sc" horiz-adv-x="416" 
d="M381 0h-141l-106 385l2 -385h-101v597h137l110 -392l-2 392h101v-597z" />
    <glyph glyph-name="o.sc" horiz-adv-x="352" 
d="M321 483v-368q0 -68 -41.5 -96.5t-103.5 -28.5q-23 0 -45.5 6t-46 19t-38.5 39t-15 61v368q0 35 15 61t38.5 39t46 19t45.5 6q62 0 103.5 -28.5t41.5 -96.5zM132 451v-304q0 -30 12.5 -45t31.5 -15t31.5 15t12.5 45v304q0 30 -12.5 45t-31.5 15t-31.5 -15t-12.5 -45z" />
    <glyph glyph-name="p.sc" horiz-adv-x="338" 
d="M35 597h171q52 0 83 -33t31 -92v-109q0 -60 -27.5 -92.5t-78.5 -32.5h-78v-238h-101v597zM219 392v51q0 32 -10.5 46t-33.5 14h-39v-170h39q23 0 33.5 13.5t10.5 45.5z" />
    <glyph glyph-name="q.sc" horiz-adv-x="347" 
d="M284 -83l-82 -33l-47 107q-51 3 -90 34t-39 90v368q0 58 40.5 91.5t105.5 33.5q69 0 106.5 -32t37.5 -93v-368q0 -38 -16.5 -62.5t-58.5 -43.5zM215 146v305q0 31 -13 45.5t-31 14.5t-31 -14t-13 -46v-305q0 -31 13 -45t31 -14t31 14t13 45z" />
    <glyph glyph-name="r.sc" horiz-adv-x="344" 
d="M136 0h-101v597h172q52 0 82.5 -32.5t30.5 -91.5v-101q0 -42 -13 -67.5t-44 -43.5l73 -261h-101l-68 236h-31v-236zM136 503v-170h40q43 0 43 59v74q0 37 -43 37h-40z" />
    <glyph glyph-name="s.sc" 
d="M314 196v-87q0 -60 -42 -89.5t-102 -29.5q-61 0 -103 29.5t-42 89.5v91h101v-54q0 -30 13 -44.5t31 -14.5q14 0 28.5 10.5t14.5 30.5v46q0 15 -19.5 34t-47 39t-55 43t-47 52.5t-19.5 60.5v73q0 59 39.5 95.5t105.5 36.5q144 0 144 -131v-88h-101v62q0 31 -12.5 45.5
t-30.5 14.5q-15 0 -29.5 -10.5t-14.5 -30.5v-47q0 -22 19.5 -43t47 -40t55 -39t47 -47t19.5 -58z" />
    <glyph glyph-name="t.sc" horiz-adv-x="267" 
d="M184 0h-101v503h-74v94h249v-94h-74v-503z" />
    <glyph glyph-name="u.sc" horiz-adv-x="357" 
d="M222 146v451h101v-482q0 -59 -42 -92t-101 -33q-61 0 -103.5 33.5t-42.5 91.5v482h101v-451q0 -31 13 -45t31 -14t30.5 14t12.5 45z" />
    <glyph glyph-name="v.sc" horiz-adv-x="324" 
d="M315 597l-73 -597h-160l-73 597h101l53 -480l51 480h101z" />
    <glyph glyph-name="w.sc" horiz-adv-x="568" 
d="M558 597l-66 -597h-154l-55 504l-54 -504h-153l-66 597h101l44 -439l52 439h154l51 -439l45 439h101z" />
    <glyph glyph-name="x.sc" horiz-adv-x="342" 
d="M340 0h-101l-66 217l-73 -217h-101l111 307l-106 290h101l68 -196l63 196h102l-97 -290z" />
    <glyph glyph-name="y.sc" horiz-adv-x="325" 
d="M213 0h-102v197l-109 400h102l58 -257l60 257h102l-111 -399v-198z" />
    <glyph glyph-name="z.sc" horiz-adv-x="273" 
d="M254 0h-237v94l124 409h-117v94h230v-60l-133 -443h133v-94z" />
    <glyph glyph-name="ff.sc" horiz-adv-x="614" 
d="M136 0h-101v597h251v-94h-150v-154h145v-94h-145v-255zM443 0h-101v597h251v-94h-150v-154h145v-94h-145v-255z" />
    <glyph glyph-name="fi.sc" horiz-adv-x="478" 
d="M136 0h-101v597h251v-94h-150v-154h145v-94h-145v-255zM443 0h-101v597h101v-597z" />
    <glyph glyph-name="f_j.sc" horiz-adv-x="478" 
d="M136 0h-101v597h251v-94h-150v-154h145v-94h-145v-255zM298 -150h-3v97h3q19 0 31.5 14.5t12.5 45.5v590h101v-622q0 -59 -39 -92t-106 -33z" />
    <glyph glyph-name="fl.sc" horiz-adv-x="558" 
d="M136 0h-101v597h251v-94h-150v-154h145v-94h-145v-255zM549 0h-207v597h101v-503h106v-94z" />
    <glyph glyph-name="f_t.sc" horiz-adv-x="574" 
d="M136 0h-101v597h251v-94h-150v-154h145v-94h-145v-255zM491 0h-101v503h-74v94h249v-94h-74v-503z" />
    <glyph glyph-name="ffi.sc" horiz-adv-x="785" 
d="M136 0h-101v597h251v-94h-150v-154h145v-94h-145v-255zM443 0h-101v597h251v-94h-150v-154h145v-94h-145v-255zM750 0h-101v597h101v-597z" />
    <glyph glyph-name="ffl.sc" horiz-adv-x="865" 
d="M136 0h-101v597h251v-94h-150v-154h145v-94h-145v-255zM443 0h-101v597h251v-94h-150v-154h145v-94h-145v-255zM856 0h-207v597h101v-503h106v-94z" />
    <glyph glyph-name="germandbls.sc" horiz-adv-x="678" 
d="M314 196v-87q0 -60 -42 -89.5t-102 -29.5q-61 0 -103 29.5t-42 89.5v91h101v-54q0 -30 13 -44.5t31 -14.5q14 0 28.5 10.5t14.5 30.5v46q0 15 -19.5 34t-47 39t-55 43t-47 52.5t-19.5 60.5v73q0 59 39.5 95.5t105.5 36.5q144 0 144 -131v-88h-101v62q0 31 -12.5 45.5
t-30.5 14.5q-15 0 -29.5 -10.5t-14.5 -30.5v-47q0 -22 19.5 -43t47 -40t55 -39t47 -47t19.5 -58zM653 196v-87q0 -60 -42 -89.5t-102 -29.5q-61 0 -103 29.5t-42 89.5v91h101v-54q0 -30 13 -44.5t31 -14.5q14 0 28.5 10.5t14.5 30.5v46q0 15 -19.5 34t-47 39t-55 43
t-47 52.5t-19.5 60.5v73q0 59 39.5 95.5t105.5 36.5q144 0 144 -131v-88h-101v62q0 31 -12.5 45.5t-30.5 14.5q-15 0 -29.5 -10.5t-14.5 -30.5v-47q0 -22 19.5 -43t47 -40t55 -39t47 -47t19.5 -58z" />
    <glyph glyph-name="agrave.sc" horiz-adv-x="332" 
d="M203 649h-67l-92 118h108zM327 0h-101l-14 122h-90l-15 -122h-101l80 597h160zM200 219l-34 283l-34 -283h68z" />
    <glyph glyph-name="aacute.sc" horiz-adv-x="332" 
d="M186 649h-68l51 118h108zM327 0h-101l-14 122h-90l-15 -122h-101l80 597h160zM200 219l-34 283l-34 -283h68z" />
    <glyph glyph-name="acircumflex.sc" horiz-adv-x="332" 
d="M277 649h-74l-38 68l-33 -68h-77l68 132h81zM327 0h-101l-14 122h-90l-15 -122h-101l80 597h160zM200 219l-34 283l-34 -283h68z" />
    <glyph glyph-name="atilde.sc" horiz-adv-x="332" 
d="M221 741h55q0 -91 -61 -91q-14 0 -38.5 8t-38.5 8q-24 0 -25 -18h-56q3 91 63 91q14 0 37 -8.5t38 -8.5h4q4 -1 6.5 -0.5t6.5 1.5t6 6t3 12zM327 0h-101l-14 122h-90l-15 -122h-101l80 597h160zM200 219l-34 283l-34 -283h68z" />
    <glyph glyph-name="adieresis.sc" horiz-adv-x="332" 
d="M89 641q-22 0 -39 16.5t-17 39.5t17 39t39 16q23 0 39 -16t16 -39q0 -24 -16 -40t-39 -16zM242 641q-22 0 -38 16t-16 40q0 23 16 39t38 16q24 0 40 -16t16 -39q0 -24 -16 -40t-40 -16zM327 0h-101l-14 122h-90l-15 -122h-101l80 597h160zM200 219l-34 283l-34 -283h68z
" />
    <glyph glyph-name="aring.sc" horiz-adv-x="332" 
d="M188 719q0 22 -22 22q-21 0 -21 -22q0 -21 21 -21q22 0 22 21zM166 639q-34 0 -57 23t-23 57t23 57t57 23t57 -23t23 -57t-23 -57t-57 -23zM327 0h-101l-14 122h-90l-15 -122h-101l80 597h160zM200 219l-34 283l-34 -283h68z" />
    <glyph glyph-name="amacron.sc" horiz-adv-x="332" 
d="M285 649h-237v80h237v-80zM327 0h-101l-14 122h-90l-15 -122h-101l80 597h160zM200 219l-34 283l-34 -283h68z" />
    <glyph glyph-name="abreve.sc" horiz-adv-x="332" 
d="M218 754h53q-2 -57 -26 -86.5t-79 -29.5t-79 29.5t-25 86.5h52q1 -12 4 -20t15 -16t33 -8t33 8t14.5 15.5t4.5 20.5zM327 0h-101l-14 122h-90l-15 -122h-101l80 597h160zM200 219l-34 283l-34 -283h68z" />
    <glyph glyph-name="aogonek.sc" horiz-adv-x="331" 
d="M349 -130l-35 -52q-50 1 -84 30t-34 69q0 38 31 69l-18 136h-88l-15 -122h-101l80 597h160l81 -597q-39 -42 -39 -69q0 -19 14.5 -36.5t47.5 -24.5zM199 219l-34 283l-34 -283h68z" />
    <glyph glyph-name="ae.sc" horiz-adv-x="496" 
d="M471 0h-251v122h-90l-32 -122h-100l156 597h317v-94h-150v-154h145v-94h-145v-161h150v-94zM220 226v248l-67 -248h67z" />
    <glyph glyph-name="aeacute.sc" horiz-adv-x="496" 
d="M319 649h-68l51 118h108zM471 0h-251v122h-90l-32 -122h-100l156 597h317v-94h-150v-154h145v-94h-145v-161h150v-94zM220 226v248l-67 -248h67z" />
    <glyph glyph-name="uni1E03.sc" horiz-adv-x="351" 
d="M172 648q-22 0 -39 16.5t-17 39.5q0 22 17 38t39 16q23 0 39 -16t16 -38q0 -24 -16 -40t-39 -16zM218 0h-183v597h171q53 0 83.5 -32.5t30.5 -92.5v-76q0 -61 -56 -90q36 -17 50 -39t14 -57v-85q0 -57 -29 -91t-81 -34zM219 412v31q0 60 -43 60h-40v-151h40q43 0 43 60z
M227 154v45q0 59 -51 59h-40v-164h48q43 0 43 60z" />
    <glyph glyph-name="ccedilla.sc" 
d="M105 -146l14 52q12 -7 27 -7q14 0 22.5 8t8.5 18q0 23 -33 23q-5 0 -8 -1l11 45q-52 7 -86.5 39.5t-34.5 83.5v368q0 57 43 91t107 34q57 0 98 -29.5t41 -86.5v-103h-101v62q0 32 -12.5 46t-30.5 14t-31 -14t-13 -46v-305q0 -31 13 -45t31 -14t30.5 14t12.5 45v54h101
v-85q0 -45 -27.5 -77t-68.5 -42l-10 -32q29 0 43.5 -16.5t14.5 -38.5q0 -28 -22 -48t-69 -20q-45 0 -71 13z" />
    <glyph glyph-name="ccircumflex.sc" horiz-adv-x="345" 
d="M287 649h-74l-38 68l-33 -68h-77l68 132h81zM132 451v-304q0 -30 12.5 -45t31.5 -15t31.5 15t12.5 45v53h101v-85q0 -68 -41.5 -96.5t-103.5 -28.5q-23 0 -45.5 6t-46 19t-38.5 39t-15 61v368q0 35 15 61t38.5 39t46 19t45.5 6q62 0 103.5 -28.5t41.5 -96.5v-94h-101v62
q0 30 -12.5 45t-31.5 15t-31.5 -15t-12.5 -45z" />
    <glyph glyph-name="cacute.sc" horiz-adv-x="345" 
d="M190 649h-68l51 118h108zM132 451v-304q0 -30 12.5 -45t31.5 -15t31.5 15t12.5 45v53h101v-85q0 -68 -41.5 -96.5t-103.5 -28.5q-23 0 -45.5 6t-46 19t-38.5 39t-15 61v368q0 35 15 61t38.5 39t46 19t45.5 6q62 0 103.5 -28.5t41.5 -96.5v-94h-101v62q0 30 -12.5 45
t-31.5 15t-31.5 -15t-12.5 -45z" />
    <glyph glyph-name="cdotaccent.sc" horiz-adv-x="345" 
d="M176 648q-22 0 -39 16.5t-17 39.5q0 22 17 38t39 16q23 0 39 -16t16 -38q0 -24 -16 -40t-39 -16zM132 451v-304q0 -30 12.5 -45t31.5 -15t31.5 15t12.5 45v53h101v-85q0 -68 -41.5 -96.5t-103.5 -28.5q-23 0 -45.5 6t-46 19t-38.5 39t-15 61v368q0 35 15 61t38.5 39
t46 19t45.5 6q62 0 103.5 -28.5t41.5 -96.5v-94h-101v62q0 30 -12.5 45t-31.5 15t-31.5 -15t-12.5 -45z" />
    <glyph glyph-name="ccaron.sc" horiz-adv-x="345" 
d="M217 649h-81l-73 132h73l40 -68l31 68h78zM132 451v-304q0 -30 12.5 -45t31.5 -15t31.5 15t12.5 45v53h101v-85q0 -68 -41.5 -96.5t-103.5 -28.5q-23 0 -45.5 6t-46 19t-38.5 39t-15 61v368q0 35 15 61t38.5 39t46 19t45.5 6q62 0 103.5 -28.5t41.5 -96.5v-94h-101v62
q0 30 -12.5 45t-31.5 15t-31.5 -15t-12.5 -45z" />
    <glyph glyph-name="dcaron.sc" horiz-adv-x="352" 
d="M210 649h-81l-73 132h73l40 -68l31 68h78zM210 0h-175v597h175q53 0 81.5 -32.5t28.5 -91.5v-348q0 -59 -29 -92t-81 -33zM219 154v290q0 59 -43 59h-40v-409h40q43 0 43 60z" />
    <glyph glyph-name="dcroat.sc" horiz-adv-x="356" 
d="M215 0h-175v256h-39v92h39v249h175q53 0 81.5 -32.5t28.5 -91.5v-348q0 -59 -29 -92t-81 -33zM224 156v285q0 32 -10.5 45.5t-32.5 13.5h-40v-152h39v-92h-39v-159h40q43 0 43 59z" />
    <glyph glyph-name="uni1E0B.sc" horiz-adv-x="351" 
d="M170 648q-22 0 -39 16.5t-17 39.5q0 22 17 38t39 16q23 0 39 -16t16 -38q0 -24 -16 -40t-39 -16zM210 0h-175v597h175q53 0 81.5 -32.5t28.5 -91.5v-348q0 -59 -29 -92t-81 -33zM219 154v290q0 59 -43 59h-40v-409h40q43 0 43 60z" />
    <glyph glyph-name="eth.sc" horiz-adv-x="356" 
d="M215 0h-175v256h-39v92h39v249h175q53 0 81.5 -32.5t28.5 -91.5v-348q0 -59 -29 -92t-81 -33zM224 156v285q0 32 -10.5 45.5t-32.5 13.5h-40v-152h39v-92h-39v-159h40q43 0 43 59z" />
    <glyph glyph-name="egrave.sc" horiz-adv-x="311" 
d="M221 649h-67l-92 118h108zM286 0h-251v597h251v-94h-150v-154h145v-94h-145v-161h150v-94z" />
    <glyph glyph-name="eacute.sc" horiz-adv-x="311" 
d="M177 649h-68l51 118h108zM286 0h-251v597h251v-94h-150v-154h145v-94h-145v-161h150v-94z" />
    <glyph glyph-name="ecircumflex.sc" horiz-adv-x="311" 
d="M268 649h-74l-38 68l-33 -68h-77l68 132h81zM286 0h-251v597h251v-94h-150v-154h145v-94h-145v-161h150v-94z" />
    <glyph glyph-name="edieresis.sc" horiz-adv-x="311" 
d="M84 641q-22 0 -39 16.5t-17 39.5t17 39t39 16q23 0 39 -16t16 -39q0 -24 -16 -40t-39 -16zM237 641q-22 0 -38 16t-16 40q0 23 16 39t38 16q24 0 40 -16t16 -39q0 -24 -16 -40t-40 -16zM286 0h-251v597h251v-94h-150v-154h145v-94h-145v-161h150v-94z" />
    <glyph glyph-name="emacron.sc" horiz-adv-x="311" 
d="M277 649h-237v80h237v-80zM286 0h-251v597h251v-94h-150v-154h145v-94h-145v-161h150v-94z" />
    <glyph glyph-name="ebreve.sc" horiz-adv-x="311" 
d="M216 754h53q-2 -57 -26 -86.5t-79 -29.5t-79 29.5t-25 86.5h52q1 -12 4 -20t15 -16t33 -8t33 8t14.5 15.5t4.5 20.5zM286 0h-251v597h251v-94h-150v-154h145v-94h-145v-161h150v-94z" />
    <glyph glyph-name="edotaccent.sc" horiz-adv-x="311" 
d="M169 648q-22 0 -39 16.5t-17 39.5q0 22 17 38t39 16q23 0 39 -16t16 -38q0 -24 -16 -40t-39 -16zM286 0h-251v597h251v-94h-150v-154h145v-94h-145v-161h150v-94z" />
    <glyph glyph-name="eogonek.sc" horiz-adv-x="311" 
d="M273 -130l-35 -52q-50 1 -83.5 30.5t-33.5 68.5q0 50 51 83h-137v597h251v-94h-150v-154h145v-94h-145v-161h150v-94h-28q-46 -29 -46 -69q0 -48 61 -61z" />
    <glyph glyph-name="ecaron.sc" horiz-adv-x="311" 
d="M206 649h-81l-73 132h73l40 -68l31 68h78zM286 0h-251v597h251v-94h-150v-154h145v-94h-145v-161h150v-94z" />
    <glyph glyph-name="uni1E1F.sc" horiz-adv-x="307" 
d="M166 648q-22 0 -39 16.5t-17 39.5q0 22 17 38t39 16q23 0 39 -16t16 -38q0 -24 -16 -40t-39 -16zM136 0h-101v597h251v-94h-150v-154h145v-94h-145v-255z" />
    <glyph glyph-name="gcircumflex.sc" horiz-adv-x="350" 
d="M286 649h-74l-38 68l-33 -68h-77l68 132h81zM222 146v73h-53v95h154v-206q0 -59 -42 -88.5t-105 -29.5q-64 0 -107 32t-43 90v371q0 58 42 91.5t108 33.5q67 0 107 -30.5t40 -87.5v-99h-101v60q0 60 -47 60q-48 0 -48 -60v-305q0 -59 48 -59q47 0 47 59z" />
    <glyph glyph-name="gbreve.sc" horiz-adv-x="350" 
d="M225 754h53q-2 -57 -26 -86.5t-79 -29.5t-79 29.5t-25 86.5h52q1 -12 4 -20t15 -16t33 -8t33 8t14.5 15.5t4.5 20.5zM222 146v73h-53v95h154v-206q0 -59 -42 -88.5t-105 -29.5q-64 0 -107 32t-43 90v371q0 58 42 91.5t108 33.5q67 0 107 -30.5t40 -87.5v-99h-101v60
q0 60 -47 60q-48 0 -48 -60v-305q0 -59 48 -59q47 0 47 59z" />
    <glyph glyph-name="gdotaccent.sc" horiz-adv-x="350" 
d="M175 648q-22 0 -39 16.5t-17 39.5q0 22 17 38t39 16q23 0 39 -16t16 -38q0 -24 -16 -40t-39 -16zM222 146v73h-53v95h154v-206q0 -59 -42 -88.5t-105 -29.5q-64 0 -107 32t-43 90v371q0 58 42 91.5t108 33.5q67 0 107 -30.5t40 -87.5v-99h-101v60q0 60 -47 60
q-48 0 -48 -60v-305q0 -59 48 -59q47 0 47 59z" />
    <glyph glyph-name="gcommaaccent.sc" horiz-adv-x="350" 
d="M173 -187h-75l50 148h105zM222 146v73h-53v95h154v-206q0 -59 -42 -88.5t-105 -29.5q-64 0 -107 32t-43 90v371q0 58 42 91.5t108 33.5q67 0 107 -30.5t40 -87.5v-99h-101v60q0 60 -47 60q-48 0 -48 -60v-305q0 -59 48 -59q47 0 47 59z" />
    <glyph glyph-name="hcircumflex.sc" horiz-adv-x="359" 
d="M291 649h-74l-38 68l-33 -68h-77l68 132h81zM324 0h-101v252h-87v-252h-101v597h101v-251h87v251h101v-597z" />
    <glyph glyph-name="hbar.sc" horiz-adv-x="363" 
d="M326 0h-101v252h-87v-252h-101v442h-35v78h35v77h101v-77h87v77h101v-77h35v-78h-35v-442zM225 346v96h-87v-96h87z" />
    <glyph glyph-name="uni1E23.sc" horiz-adv-x="359" 
d="M180 648q-22 0 -39 16.5t-17 39.5q0 22 17 38t39 16q23 0 39 -16t16 -38q0 -24 -16 -40t-39 -16zM324 0h-101v252h-87v-252h-101v597h101v-251h87v251h101v-597z" />
    <glyph glyph-name="igrave.sc" horiz-adv-x="171" 
d="M127 649h-67l-92 118h108zM136 0h-101v597h101v-597z" />
    <glyph glyph-name="iacute.sc" horiz-adv-x="171" 
d="M106 649h-68l51 118h108zM136 0h-101v597h101v-597z" />
    <glyph glyph-name="icircumflex.sc" horiz-adv-x="171" 
d="M196 649h-74l-38 68l-33 -68h-77l68 132h81zM136 0h-101v597h101v-597z" />
    <glyph glyph-name="idieresis.sc" horiz-adv-x="171" 
d="M9 641q-22 0 -39 16.5t-17 39.5t17 39t39 16q23 0 39 -16t16 -39q0 -24 -16 -40t-39 -16zM162 641q-22 0 -38 16t-16 40q0 23 16 39t38 16q24 0 40 -16t16 -39q0 -24 -16 -40t-40 -16zM136 0h-101v597h101v-597z" />
    <glyph glyph-name="itilde.sc" horiz-adv-x="171" 
d="M140 741h55q0 -91 -61 -91q-14 0 -38.5 8t-38.5 8q-24 0 -25 -18h-56q3 91 63 91q14 0 37 -8.5t38 -8.5q24 0 26 19zM136 0h-101v597h101v-597z" />
    <glyph glyph-name="imacron.sc" horiz-adv-x="171" 
d="M204 649h-237v80h237v-80zM136 0h-101v597h101v-597z" />
    <glyph glyph-name="ibreve.sc" horiz-adv-x="171" 
d="M137 754h53q-2 -57 -26 -86.5t-79 -29.5t-79 29.5t-25 86.5h52q1 -12 4 -20t15 -16t33 -8t33 8t14.5 15.5t4.5 20.5zM136 0h-101v597h101v-597z" />
    <glyph glyph-name="iogonek.sc" horiz-adv-x="171" 
d="M154 -130l-34 -52q-50 1 -84 30t-34 69q0 39 33 70v610h101v-597q-43 -31 -43 -69q0 -19 14.5 -36.5t46.5 -24.5z" />
    <glyph glyph-name="dotlessi.sc" horiz-adv-x="171" 
d="M136 0h-101v597h101v-597z" />
    <glyph glyph-name="idotaccent.sc" horiz-adv-x="171" 
d="M86 648q-22 0 -39 16.5t-17 39.5q0 22 17 38t39 16q23 0 39 -16t16 -38q0 -24 -16 -40t-39 -16zM136 0h-101v597h101v-597z" />
    <glyph glyph-name="ij.sc" horiz-adv-x="342" 
d="M136 0h-101v597h101v-597zM162 -150h-3v97h3q19 0 31.5 14.5t12.5 45.5v590h101v-622q0 -59 -39 -92t-106 -33z" />
    <glyph glyph-name="jcircumflex.sc" horiz-adv-x="171" 
d="M196 649h-74l-38 68l-33 -68h-77l68 132h81zM-9 -150h-3v97h3q19 0 31.5 14.5t12.5 45.5v590h101v-622q0 -59 -39 -92t-106 -33z" />
    <glyph glyph-name="dotlessj.sc" horiz-adv-x="171" 
d="M-8 -150h-2v97h2q18 0 30.5 14.5t12.5 45.5v590h101v-616q0 -59 -39 -95t-105 -36z" />
    <glyph glyph-name="kcommaaccent.sc" horiz-adv-x="344" 
d="M175 -187h-75l50 148h105zM348 0h-101l-110 299l95 298h101l-91 -296zM136 0h-101v597h101v-597z" />
    <glyph glyph-name="kgreenlandic.sc" horiz-adv-x="346" 
d="M348 0h-101l-110 299l95 298h101l-91 -296zM136 0h-101v597h101v-597z" />
    <glyph glyph-name="lslash.sc" horiz-adv-x="290" 
d="M280 0h-206v174l-33 -20l-45 79l78 43v321h101v-264l46 26l42 -79l-88 -50v-136h105v-94z" />
    <glyph glyph-name="lacute.sc" horiz-adv-x="251" 
d="M113 649h-68l51 118h108zM242 0h-207v597h101v-503h106v-94z" />
    <glyph glyph-name="ldot.sc" horiz-adv-x="303" 
d="M235 224q-25 0 -42.5 17.5t-17.5 42.5t17.5 42.5t42.5 17.5q26 0 43.5 -17.5t17.5 -42.5t-17.5 -42.5t-43.5 -17.5zM242 0h-207v597h101v-503h106v-94z" />
    <glyph glyph-name="lcommaaccent.sc" horiz-adv-x="251" 
d="M129 -187h-75l50 148h105zM242 0h-207v597h101v-503h106v-94z" />
    <glyph glyph-name="lcaron.sc" horiz-adv-x="304" 
d="M251 420h-79l27 177h110zM242 0h-207v597h101v-503h106v-94z" />
    <glyph glyph-name="uni1E41.sc" horiz-adv-x="535" 
d="M268 648q-22 0 -39 16.5t-17 39.5q0 22 17 38t39 16q23 0 39 -16t16 -38q0 -24 -16 -40t-39 -16zM500 0h-101l1 419l-79 -419h-100l-85 416v-416h-101v597h166l67 -407l66 407h166v-597z" />
    <glyph glyph-name="ntilde.sc" horiz-adv-x="416" 
d="M280 741h55q0 -91 -61 -91q-14 0 -38.5 8t-38.5 8q-24 0 -25 -18h-56q3 91 63 91q14 0 37 -8.5t38 -8.5q24 0 26 19zM381 0h-141l-106 385l2 -385h-101v597h137l110 -392l-2 392h101v-597z" />
    <glyph glyph-name="nacute.sc" horiz-adv-x="416" 
d="M251 649h-68l51 118h108zM381 0h-141l-106 385l2 -385h-101v597h137l110 -392l-2 392h101v-597z" />
    <glyph glyph-name="ncommaaccent.sc" horiz-adv-x="416" 
d="M205 -187h-75l50 148h105zM381 0h-141l-106 385l2 -385h-101v597h137l110 -392l-2 392h101v-597z" />
    <glyph glyph-name="ncaron.sc" horiz-adv-x="416" 
d="M263 649h-81l-73 132h73l40 -68l31 68h78zM381 0h-141l-106 385l2 -385h-101v597h137l110 -392l-2 392h101v-597z" />
    <glyph glyph-name="eng.sc" horiz-adv-x="416" 
d="M236 -159h-1v97h1q18 0 31 14.5t13 44.5v15l-146 373l2 -385h-101v597h137l110 -328l-2 328h101v-625q0 -59 -39.5 -95t-105.5 -36z" />
    <glyph glyph-name="ograve.sc" horiz-adv-x="352" 
d="M221 649h-67l-92 118h108zM321 483v-368q0 -68 -41.5 -96.5t-103.5 -28.5q-23 0 -45.5 6t-46 19t-38.5 39t-15 61v368q0 35 15 61t38.5 39t46 19t45.5 6q62 0 103.5 -28.5t41.5 -96.5zM132 451v-304q0 -30 12.5 -45t31.5 -15t31.5 15t12.5 45v304q0 30 -12.5 45t-31.5 15
t-31.5 -15t-12.5 -45z" />
    <glyph glyph-name="oacute.sc" horiz-adv-x="352" 
d="M206 649h-68l51 118h108zM321 483v-368q0 -68 -41.5 -96.5t-103.5 -28.5q-23 0 -45.5 6t-46 19t-38.5 39t-15 61v368q0 35 15 61t38.5 39t46 19t45.5 6q62 0 103.5 -28.5t41.5 -96.5zM132 451v-304q0 -30 12.5 -45t31.5 -15t31.5 15t12.5 45v304q0 30 -12.5 45t-31.5 15
t-31.5 -15t-12.5 -45z" />
    <glyph glyph-name="ocircumflex.sc" horiz-adv-x="352" 
d="M287 649h-74l-38 68l-33 -68h-77l68 132h81zM321 483v-368q0 -68 -41.5 -96.5t-103.5 -28.5q-23 0 -45.5 6t-46 19t-38.5 39t-15 61v368q0 35 15 61t38.5 39t46 19t45.5 6q62 0 103.5 -28.5t41.5 -96.5zM132 451v-304q0 -30 12.5 -45t31.5 -15t31.5 15t12.5 45v304
q0 30 -12.5 45t-31.5 15t-31.5 -15t-12.5 -45z" />
    <glyph glyph-name="otilde.sc" horiz-adv-x="352" 
d="M231 741h55q0 -91 -61 -91q-14 0 -38.5 8t-38.5 8q-24 0 -25 -18h-56q3 91 63 91q14 0 37 -8.5t38 -8.5q24 0 26 19zM321 483v-368q0 -68 -41.5 -96.5t-103.5 -28.5q-23 0 -45.5 6t-46 19t-38.5 39t-15 61v368q0 35 15 61t38.5 39t46 19t45.5 6q62 0 103.5 -28.5
t41.5 -96.5zM132 451v-304q0 -30 12.5 -45t31.5 -15t31.5 15t12.5 45v304q0 30 -12.5 45t-31.5 15t-31.5 -15t-12.5 -45z" />
    <glyph glyph-name="odieresis.sc" horiz-adv-x="352" 
d="M100 641q-22 0 -39 16.5t-17 39.5t17 39t39 16q23 0 39 -16t16 -39q0 -24 -16 -40t-39 -16zM253 641q-22 0 -38 16t-16 40q0 23 16 39t38 16q24 0 40 -16t16 -39q0 -24 -16 -40t-40 -16zM321 483v-368q0 -68 -41.5 -96.5t-103.5 -28.5q-23 0 -45.5 6t-46 19t-38.5 39
t-15 61v368q0 35 15 61t38.5 39t46 19t45.5 6q62 0 103.5 -28.5t41.5 -96.5zM132 451v-304q0 -30 12.5 -45t31.5 -15t31.5 15t12.5 45v304q0 30 -12.5 45t-31.5 15t-31.5 -15t-12.5 -45z" />
    <glyph glyph-name="omacron.sc" horiz-adv-x="352" 
d="M295 649h-237v80h237v-80zM321 483v-368q0 -68 -41.5 -96.5t-103.5 -28.5q-23 0 -45.5 6t-46 19t-38.5 39t-15 61v368q0 35 15 61t38.5 39t46 19t45.5 6q62 0 103.5 -28.5t41.5 -96.5zM132 451v-304q0 -30 12.5 -45t31.5 -15t31.5 15t12.5 45v304q0 30 -12.5 45t-31.5 15
t-31.5 -15t-12.5 -45z" />
    <glyph glyph-name="obreve.sc" horiz-adv-x="352" 
d="M228 754h53q-2 -57 -26 -86.5t-79 -29.5t-79 29.5t-25 86.5h52q1 -12 4 -20t15 -16t33 -8t33 8t14.5 15.5t4.5 20.5zM321 483v-368q0 -68 -41.5 -96.5t-103.5 -28.5q-23 0 -45.5 6t-46 19t-38.5 39t-15 61v368q0 35 15 61t38.5 39t46 19t45.5 6q62 0 103.5 -28.5
t41.5 -96.5zM132 451v-304q0 -30 12.5 -45t31.5 -15t31.5 15t12.5 45v304q0 30 -12.5 45t-31.5 15t-31.5 -15t-12.5 -45z" />
    <glyph glyph-name="ohungarumlaut.sc" horiz-adv-x="352" 
d="M148 649h-81l34 124h95zM273 649h-80l34 124h95zM321 483v-368q0 -68 -41.5 -96.5t-103.5 -28.5q-23 0 -45.5 6t-46 19t-38.5 39t-15 61v368q0 35 15 61t38.5 39t46 19t45.5 6q62 0 103.5 -28.5t41.5 -96.5zM132 451v-304q0 -30 12.5 -45t31.5 -15t31.5 15t12.5 45v304
q0 30 -12.5 45t-31.5 15t-31.5 -15t-12.5 -45z" />
    <glyph glyph-name="oslash.sc" horiz-adv-x="352" 
d="M321 483v-368q0 -68 -41.5 -96.5t-103.5 -28.5q-15 0 -33 3l-5 -34h-29l6 41q-84 27 -84 115v368q0 35 15 61t38.5 39t46 19t45.5 6q12 0 34 -2l5 32h29l-6 -38q83 -25 83 -117zM132 451v-304q0 -30 2 -44l60 404q-7 4 -18 4q-19 0 -31.5 -15t-12.5 -45zM220 471
q0 8 -2 20l-60 -401q9 -3 18 -3q19 0 31.5 15t12.5 45v324z" />
    <glyph glyph-name="oslashacute.sc" horiz-adv-x="353" 
d="M185 649h-68l51 118h108zM321 483v-368q0 -68 -41.5 -96.5t-103.5 -28.5q-15 0 -33 3l-5 -34h-29l6 41q-84 27 -84 115v368q0 35 15 61t38.5 39t46 19t45.5 6q12 0 34 -2l5 32h29l-6 -38q83 -25 83 -117zM132 451v-304q0 -30 2 -44l60 404q-7 4 -18 4q-19 0 -31.5 -15
t-12.5 -45zM220 471q0 8 -2 20l-60 -401q9 -3 18 -3q19 0 31.5 15t12.5 45v324z" />
    <glyph glyph-name="oe.sc" horiz-adv-x="491" 
d="M466 0h-233q-26 -10 -60 -10q-61 0 -104 33.5t-43 91.5v368q0 58 42.5 91.5t107.5 33.5q33 0 66 -11h224v-94h-151v-154h145v-94h-145v-161h151v-94zM213 140l1 307q0 33 -12.5 48.5t-31.5 15.5q-18 0 -30.5 -14t-12.5 -46v-305q0 -31 13 -45t31 -14q16 0 29 12.5
t13 40.5z" />
    <glyph glyph-name="uni1E57.sc" horiz-adv-x="338" 
d="M165 648q-22 0 -39 16.5t-17 39.5q0 22 17 38t39 16q23 0 39 -16t16 -38q0 -24 -16 -40t-39 -16zM35 597h171q52 0 83 -33t31 -92v-109q0 -60 -27.5 -92.5t-78.5 -32.5h-78v-238h-101v597zM219 392v51q0 32 -10.5 46t-33.5 14h-39v-170h39q23 0 33.5 13.5t10.5 45.5z" />
    <glyph glyph-name="thorn.sc" horiz-adv-x="336" 
d="M136 0h-101v597h101v-127h65q62 0 90.5 -34t28.5 -104v-65q0 -70 -25.5 -104t-80.5 -34h-78v-129zM219 282v35q0 59 -43 59h-40v-153h40q43 0 43 59z" />
    <glyph glyph-name="racute.sc" horiz-adv-x="344" 
d="M187 649h-68l51 118h108zM136 0h-101v597h172q52 0 82.5 -32.5t30.5 -91.5v-101q0 -42 -13 -67.5t-44 -43.5l73 -261h-101l-68 236h-31v-236zM136 503v-170h40q43 0 43 59v74q0 37 -43 37h-40z" />
    <glyph glyph-name="rcommaaccent.sc" horiz-adv-x="344" 
d="M178 -187h-75l50 148h105zM136 0h-101v597h172q52 0 82.5 -32.5t30.5 -91.5v-101q0 -42 -13 -67.5t-44 -43.5l73 -261h-101l-68 236h-31v-236zM136 503v-170h40q43 0 43 59v74q0 37 -43 37h-40z" />
    <glyph glyph-name="rcaron.sc" horiz-adv-x="344" 
d="M213 649h-81l-73 132h73l40 -68l31 68h78zM136 0h-101v597h172q52 0 82.5 -32.5t30.5 -91.5v-101q0 -42 -13 -67.5t-44 -43.5l73 -261h-101l-68 236h-31v-236zM136 503v-170h40q43 0 43 59v74q0 37 -43 37h-40z" />
    <glyph glyph-name="scedilla.sc" 
d="M102 -146l14 52q12 -7 28 -7q14 0 22 8t8 18q0 23 -33 23q-4 0 -7 -1l11 45q-52 7 -86 36t-34 81v91h101v-54q0 -30 13 -44.5t31 -14.5t30.5 14.5t12.5 44.5v28q0 15 -19.5 34t-47 39t-55 43t-47 52.5t-19.5 60.5v73q0 59 39.5 95.5t105.5 36.5q144 0 144 -131v-88h-101
v62q0 31 -12.5 45.5t-30.5 14.5q-19 0 -31.5 -14.5t-12.5 -45.5v-28q0 -22 19.5 -43t47 -40t55 -39t47 -47t19.5 -58v-87q0 -47 -28 -75t-70 -39l-9 -31q29 0 43.5 -16.5t14.5 -38.5q0 -28 -22.5 -48t-69.5 -20q-45 0 -71 13z" />
    </font>
</defs>
</svg>
