<?xml version="1.0" encoding="UTF-8"?>
<svg width="29px" height="25px" viewBox="0 0 29 25" version="1.1" xmlns="http://www.w3.org/2000/svg" xmlns:xlink="http://www.w3.org/1999/xlink">
    <!-- Generator: sketchtool 52.6 (67491) - http://www.bohemiancoding.com/sketch -->
    <title>D6C189BF-4B19-41E1-87C7-455EF7ACCE93</title>
    <desc>Created with sketchtool.</desc>
    <g id="Components" stroke="none" stroke-width="1" fill="none" fill-rule="evenodd">
        <g id="Core-Elements" transform="translate(-118.000000, -665.000000)" fill="#00002D" fill-rule="nonzero">
            <g id="Group" transform="translate(50.000000, 537.000000)">
                <path d="M71.7021852,144.37462 C71.7192042,140.82549 74.0834987,137.587401 77.6642337,136.627946 L78.9601342,136.28071 L79.657361,138.882796 L83.5450625,137.84109 L82.8478357,135.239004 L95.8068405,131.766649 L96.8526808,135.669778 L86.9219391,140.760635 C87.1753568,141.258183 87.3809667,141.789675 87.5313171,142.350791 C88.6865239,146.662081 86.1418444,151.089821 81.8475946,152.240461 C78.2668191,153.199927 74.6002762,151.577797 72.8109719,148.512669 C72.4645464,148.963911 71.9729302,149.308555 71.3818376,149.466938 C69.9504345,149.850481 68.4778751,148.996406 68.0928098,147.559323 C67.7077445,146.12224 68.5559809,144.646309 69.9873839,144.262766 C70.578436,144.104394 71.1765506,144.157046 71.7021852,144.37462 Z M70.3779744,145.67933 C69.7247547,145.85436 69.3358815,146.521252 69.5121294,147.179017 C69.687159,147.832237 70.354051,148.22111 71.011817,148.044863 C71.6650366,147.869833 72.0539098,147.202941 71.877662,146.545175 C71.7026323,145.891955 71.0357403,145.503082 70.3779744,145.67933 Z M78.166029,128.380306 L79.5853485,128 L80.9798022,133.204172 L79.5604826,133.584477 L78.166029,128.380306 Z M85.0344818,128.061131 L86.3044408,128.474454 L84.8071975,133.699846 L83.5372385,133.286524 L85.0344818,128.061131 Z M73.0044003,131.284582 L76.9137471,135.061283 L76.0205918,136.05421 L72.111245,132.27751 L73.0044003,131.284582 Z" id="icon-whistle"></path>
            </g>
        </g>
    </g>
</svg>