<?xml version="1.0" encoding="UTF-8" standalone="no"?><!DOCTYPE svg PUBLIC "-//W3C//DTD SVG 1.1//EN" "http://www.w3.org/Graphics/SVG/1.1/DTD/svg11.dtd"><svg width="100%" height="100%" viewBox="0 0 23 23" version="1.1" xmlns="http://www.w3.org/2000/svg" xmlns:xlink="http://www.w3.org/1999/xlink" xml:space="preserve" xmlns:serif="http://www.serif.com/" style="fill-rule:evenodd;clip-rule:evenodd;stroke-linejoin:round;stroke-miterlimit:1.41421;"><g><g id="Icons"><path d="M22.285,11.1c0,6.122 -4.963,11.084 -11.085,11.084c-6.121,0 -11.084,-4.962 -11.084,-11.084c0,-6.122 4.963,-11.085 11.084,-11.085c6.122,0 11.085,4.963 11.085,11.085" style="fill:#f5f5f5;fill-rule:nonzero;"/><path d="M8.122,9.857l-1.684,0l0,-1.684l-1.121,0l0,1.684l-1.683,0l0,1.121l1.683,0l0,1.684l1.121,0l0,-1.684l1.684,0l0,-1.121Zm8.767,6.414l-0.145,-2.027c-0.071,-0.991 -0.895,-1.758 -1.889,-1.758l-5.244,0c-0.994,0 -1.818,0.767 -1.889,1.758l-0.145,2.027l9.312,0Zm-7.893,-8.098c0,-1.788 1.449,-3.237 3.237,-3.237c1.787,0 3.237,1.449 3.237,3.237c0,1.788 -1.45,3.237 -3.237,3.237c-1.788,0 -3.237,-1.449 -3.237,-3.237" style="fill:#000027;fill-rule:nonzero;"/></g></g></svg>