<?xml version="1.0" encoding="UTF-8" standalone="no"?><!DOCTYPE svg PUBLIC "-//W3C//DTD SVG 1.1//EN" "http://www.w3.org/Graphics/SVG/1.1/DTD/svg11.dtd"><svg width="100%" height="100%" viewBox="0 0 71 71" version="1.1" xmlns="http://www.w3.org/2000/svg" xmlns:xlink="http://www.w3.org/1999/xlink" xml:space="preserve" xmlns:serif="http://www.serif.com/" style="fill-rule:evenodd;clip-rule:evenodd;stroke-linejoin:round;stroke-miterlimit:1.41421;"><g><g id="League-Icons" serif:id="League Icons"><path d="M35.018,23.664l-0.93,2.876l-3.022,0l2.447,1.769l-0.943,2.88l2.448,-1.786l2.448,1.786l-0.943,-2.88l2.447,-1.769l-3.022,0l-0.93,-2.876Z" style="fill:#000027;fill-rule:nonzero;"/><path d="M43.519,29.89l2.74,0c0.979,0 1.551,-2.685 1.654,-4.928l-3.363,0c-0.181,1.54 -0.495,3.266 -1.031,4.928" style="fill:#000027;fill-rule:nonzero;"/><path d="M52.544,21.308c-0.006,1.32 -0.2,12.882 -5.284,12.882l-5.905,0c-0.192,0.247 -0.395,0.484 -0.609,0.709c-0.57,0.6 -1.192,1.089 -1.868,1.467l3.221,13.324l-14.163,0l3.221,-13.326c-0.675,-0.378 -1.3,-0.868 -1.867,-1.465c-0.215,-0.225 -0.417,-0.462 -0.609,-0.709l-5.912,0c-5.083,0 -5.277,-11.562 -5.283,-12.882l-0.003,-0.645l7.771,0c0.003,-0.419 0.017,-0.683 0.019,-0.745l0.031,-0.614l19.43,0l0.028,0.614c0.003,0.062 0.017,0.326 0.019,0.745l7.766,0l-0.003,0.645Zm-8.532,34.782l-17.988,0l0,-4.808l17.988,0l0,4.808Zm-8.997,-55.982c-19.33,0 -35,15.67 -35,35c0,19.33 15.67,35 35,35c19.33,0 35,-15.67 35,-35c0,-19.33 -15.67,-35 -35,-35" style="fill:#000027;fill-rule:nonzero;"/><path d="M21.875,24.963c0.103,2.243 0.675,4.928 1.654,4.928l2.987,0c-0.536,-1.662 -0.85,-3.388 -1.031,-4.928l-3.61,0Z" style="fill:#000027;fill-rule:nonzero;"/></g></g></svg>