<?xml version="1.0" encoding="UTF-8" standalone="no"?><!DOCTYPE svg PUBLIC "-//W3C//DTD SVG 1.1//EN" "http://www.w3.org/Graphics/SVG/1.1/DTD/svg11.dtd"><svg width="100%" height="100%" viewBox="0 0 70 70" version="1.1" xmlns="http://www.w3.org/2000/svg" xmlns:xlink="http://www.w3.org/1999/xlink" xml:space="preserve" xmlns:serif="http://www.serif.com/" style="fill-rule:evenodd;clip-rule:evenodd;stroke-linejoin:round;stroke-miterlimit:1.41421;"><g id="Icons"><path d="M32.633,52.674l2.375,-1.733l2.375,1.733l-0.915,-2.794l2.374,-1.717l-2.931,0l-0.903,-2.79l-0.903,2.79l-2.931,0l2.374,1.717l-0.915,2.794Z" style="fill:#000027;fill-rule:nonzero;"/><path d="M54.986,56.007l-12.231,0l0,-8.39l12.231,0l0,8.39Zm-13.87,0l-12.231,0l0,-13.966l12.231,0l0,13.966Zm-13.87,0l-12.231,0l0,-8.39l12.231,0l0,8.39Zm-10.959,-30.897c0.032,-0.874 0.75,-1.565 1.623,-1.565l6.436,0c0.876,0 1.595,0.693 1.627,1.568l0.341,9.143l-1.953,0.328l-0.449,11.398l-2.398,0l0,-11.336l-0.743,0l0,11.336l-2.399,0l-0.449,-11.398l-1.977,-0.328l0.341,-9.146Zm4.855,-8.461c1.686,0 3.052,1.367 3.052,3.052c0,1.685 -1.366,3.052 -3.052,3.052c-1.685,0 -3.051,-1.367 -3.051,-3.052c0,-1.685 1.366,-3.052 3.051,-3.052m9.022,2.953c0.033,-0.873 0.75,-1.564 1.624,-1.564l6.436,0c0.875,0 1.594,0.692 1.627,1.567l0.341,9.143l-1.953,0.329l-0.449,11.397l-2.398,0l0,-11.336l-0.744,0l0,11.336l-2.398,0l-0.448,-11.397l-1.979,-0.329l0.341,-9.146Zm4.856,-8.46c1.686,0 3.052,1.366 3.052,3.051c0,1.685 -1.366,3.052 -3.052,3.052c-1.685,0 -3.052,-1.367 -3.052,-3.052c0,-1.685 1.367,-3.051 3.052,-3.051m9.007,13.968c0.033,-0.874 0.75,-1.565 1.625,-1.565l6.435,0c0.876,0 1.595,0.693 1.628,1.568l0.34,9.143l-1.952,0.328l-0.001,0l-0.449,11.398l-2.397,0l0,-11.336l-0.745,0l0,11.336l-2.398,0l-0.448,-11.398l-1.978,-0.328l0.34,-9.146Zm4.856,-8.461c1.686,0 3.051,1.367 3.051,3.052c0,1.685 -1.365,3.052 -3.051,3.052c-1.685,0 -3.051,-1.367 -3.051,-3.052c0,-1.685 1.366,-3.052 3.051,-3.052m-13.883,-16.649c-19.33,0 -35,15.67 -35,35c0,19.33 15.67,35 35,35c19.33,0 35,-15.67 35,-35c0,-19.33 -15.67,-35 -35,-35" style="fill:#000027;fill-rule:nonzero;"/></g></svg>